<svg width="200" height="200" viewBox="0 0 200 200" fill="none" xmlns="http://www.w3.org/2000/svg">
<path d="M149.815 124.451C150.156 124.513 150.499 124.424 150.773 124.221C151.049 124.019 151.23 123.714 151.279 123.375C151.55 121.44 151.689 119.502 151.689 117.617C151.689 79.6694 111.685 57.4241 111.281 57.2044C110.887 56.991 110.409 56.9986 110.024 57.2285C108.934 57.8787 83.9139 73.0171 74.2124 98.4171C73.3996 97.2843 72.6693 96.1222 72.0585 94.9272C71.8591 94.5373 71.473 94.2769 71.0361 94.2401C70.598 94.1969 70.1751 94.3925 69.9122 94.743C69.5312 95.2498 60.6475 107.479 66.5149 134.683C66.5822 134.994 66.7638 135.269 67.0229 135.452C67.1944 135.572 68.5495 136.474 71.4324 137.285C76.1491 157.661 89.634 158.646 105.538 158.646C106.374 158.646 107.218 158.643 108.066 158.639L110.673 158.634C113.285 158.634 115.926 158.379 118.523 157.875C118.858 157.81 119.154 157.612 119.342 157.326C119.53 157.04 119.595 156.691 119.522 156.356C119.104 154.446 118.892 152.527 118.892 150.654C118.892 146.402 119.925 142.209 121.864 138.458C122.569 138.605 123.289 138.705 124.029 138.705C129.837 138.705 134.562 133.981 134.562 128.173C134.562 127.597 134.503 127.035 134.413 126.483C137.89 124.886 141.609 124.066 145.48 124.066C146.818 124.067 148.237 124.193 149.815 124.451Z" fill="#ECE6FE"/>
<path d="M115.325 87.9639L117.691 86.6698C118.097 86.4475 118.351 86.0196 118.351 85.556C118.351 85.0925 118.098 84.6645 117.691 84.4422L115.325 83.1468C113.178 81.9721 111.422 80.2156 110.246 78.0693L108.952 75.7033C108.73 75.2957 108.302 75.0417 107.838 75.0417C107.374 75.0417 106.946 75.2944 106.724 75.7033L105.43 78.0693C104.255 80.2156 102.499 81.9721 100.351 83.1468L97.9854 84.4422C97.5777 84.6645 97.325 85.0925 97.325 85.556C97.325 86.0196 97.579 86.4475 97.9854 86.6698L100.351 87.9639C102.499 89.1399 104.255 90.8963 105.43 93.0426L106.724 95.4087C106.946 95.8163 107.374 96.0703 107.838 96.0703C108.303 96.0703 108.73 95.8176 108.952 95.4087L110.246 93.0426C111.421 90.8963 113.177 89.1399 115.325 87.9639ZM108.017 91.8247L107.838 92.1537L107.658 91.8247C106.249 89.2504 104.144 87.1448 101.569 85.7363L101.24 85.556L101.569 85.3744C104.144 83.9685 106.249 81.8628 107.658 79.2873L107.838 78.9584L108.017 79.2873C109.426 81.8628 111.531 83.9685 114.105 85.3744L114.434 85.556L114.105 85.7363C111.531 87.146 109.426 89.2504 108.017 91.8247Z" fill="#7C71FC"/>
<path d="M142.875 118.1C143.215 118.162 143.558 118.074 143.832 117.87C144.108 117.668 144.29 117.364 144.338 117.024C144.61 115.089 144.748 113.151 144.748 111.266C144.748 73.3187 104.744 51.0734 104.34 50.8537C103.947 50.6403 103.468 50.6479 103.083 50.8778C101.994 51.528 76.9732 66.6664 67.2717 92.0664C66.4589 90.9336 65.7287 89.7715 65.1178 88.5765C64.9184 88.1866 64.5323 87.9262 64.0954 87.8894C63.6573 87.8462 63.2344 88.0418 62.9715 88.3923C62.5905 88.8991 53.7068 101.128 59.5742 128.333C59.6416 128.644 59.8232 128.918 60.0822 129.101C60.2537 129.222 61.6088 130.123 64.4917 130.935C69.2085 151.311 82.6933 152.295 98.5975 152.295C99.4332 152.295 100.278 152.292 101.125 152.289L103.732 152.283C106.345 152.283 108.985 152.028 111.582 151.524C111.917 151.459 112.213 151.261 112.401 150.975C112.589 150.69 112.654 150.34 112.582 150.005C112.164 148.095 111.952 146.176 111.952 144.303C111.952 140.051 112.984 135.859 114.923 132.107C115.628 132.254 116.348 132.355 117.089 132.355C122.896 132.355 127.621 127.63 127.621 121.823C127.621 121.246 127.562 120.685 127.472 120.132C130.95 118.536 134.668 117.715 138.539 117.715C139.878 117.717 141.296 117.842 142.875 118.1ZM63.9723 91.7121C74.5501 108.875 104.602 119.115 105.924 119.558C105.928 119.559 105.933 119.561 105.938 119.563L113.182 121.897C78.3525 134.267 64.3672 128.512 61.9415 127.249C57.767 107.338 61.8983 95.8663 63.9723 91.7121ZM109.413 144.303C109.413 145.933 109.559 147.593 109.846 149.252C107.815 149.577 105.764 149.742 103.733 149.742L101.118 149.747C84.9196 149.82 72.0317 149.836 67.2628 131.574C69.4828 131.981 72.2692 132.275 75.7058 132.273C83.1023 132.273 93.4998 130.912 107.646 126.435C107.662 126.473 107.659 126.514 107.678 126.551C108.745 128.669 110.452 130.296 112.49 131.284C110.478 135.307 109.413 139.775 109.413 144.303ZM117.089 129.815C114.142 129.815 111.489 128.218 110.083 125.644C112.467 124.853 114.945 123.983 117.535 123.011C118.04 122.822 118.371 122.333 118.357 121.792C118.345 121.251 117.992 120.779 117.477 120.612L109.987 118.198C111.347 115.532 114.059 113.829 117.089 113.829C121.496 113.829 125.081 117.414 125.081 121.823C125.081 126.229 121.496 129.815 117.089 129.815ZM117.089 111.289C112.959 111.289 109.269 113.687 107.547 117.412L106.724 117.146C106.174 116.96 81.0969 108.362 69.1196 94.4121C77.3073 71.1927 99.7278 56.0251 103.759 53.4495C108.816 56.429 142.207 77.3992 142.207 111.266C142.207 112.623 142.131 114.009 141.979 115.404C140.767 115.252 139.633 115.175 138.539 115.175C134.428 115.175 130.475 116.019 126.764 117.666C125.148 113.921 121.422 111.289 117.089 111.289Z" fill="#7C71FC"/>
<path d="M66.0329 100.716C66.0843 100.018 65.7244 99.3943 65.2284 99.322C64.735 99.2381 64.2894 99.7563 64.238 100.454C64.2308 100.55 63.5299 110.306 64.2362 123.001C64.2732 123.667 64.6682 124.172 65.1345 124.172C65.158 124.172 65.1814 124.171 65.2058 124.168C65.7019 124.114 66.0735 123.503 66.0347 122.803C65.3429 110.353 66.0257 100.81 66.0329 100.716Z" fill="#7C71FC"/>
<path d="M71.9322 106.369C71.9925 105.672 71.6414 105.039 71.1481 104.954C70.6593 104.873 70.2064 105.362 70.1452 106.059C70.1164 106.397 69.4349 114.431 70.1425 125.207C70.1857 125.866 70.5782 126.36 71.0383 126.36C71.0662 126.36 71.0941 126.359 71.122 126.355C71.6171 126.29 71.9817 125.672 71.9349 124.973C71.2462 114.487 71.925 106.448 71.9322 106.369Z" fill="#7C71FC"/>
<path d="M76.8563 126.36C76.874 126.36 76.8926 126.36 76.9103 126.359C77.4522 126.321 77.8675 125.723 77.838 125.022C77.5033 116.998 77.8331 111.075 77.8371 111.016C77.8773 110.316 77.4709 109.708 76.9309 109.656C76.3939 109.6 75.9197 110.128 75.8795 110.828C75.8647 111.075 75.5359 116.962 75.8785 125.159C75.905 125.836 76.3389 126.36 76.8563 126.36Z" fill="#7C71FC"/>
<path d="M83.3572 126.36C83.3828 126.36 83.4093 126.359 83.4358 126.356C83.9761 126.302 84.3798 125.691 84.3376 124.991C84.0105 119.618 84.3317 115.448 84.3356 115.408C84.3907 114.709 83.9987 114.086 83.4584 114.015C82.9191 113.935 82.4358 114.449 82.3808 115.147C82.3661 115.326 82.037 119.573 82.3789 125.189C82.4201 125.856 82.8494 126.36 83.3572 126.36Z" fill="#7C71FC"/>
<path d="M89.7118 125.723C89.7472 125.723 89.7826 125.72 89.818 125.715C90.3576 125.64 90.7478 125.014 90.6898 124.317C90.3694 120.461 90.6829 117.468 90.6859 117.438C90.7606 116.744 90.3861 116.102 89.8484 116.005C89.3167 115.92 88.8154 116.391 88.7397 117.085C88.725 117.219 88.3878 120.401 88.7358 124.587C88.7898 125.239 89.2154 125.723 89.7118 125.723Z" fill="#7C71FC"/>
<path d="M96.6658 124.73C96.7337 124.73 96.8035 124.721 96.8733 124.702C97.4046 124.554 97.743 123.88 97.6289 123.193C97.3514 121.524 97.6111 120.225 97.6161 120.203C97.7597 119.53 97.4547 118.833 96.9343 118.642C96.413 118.457 95.8689 118.846 95.7214 119.521C95.7047 119.598 95.32 121.405 95.7066 123.726C95.804 124.322 96.2113 124.73 96.6658 124.73Z" fill="#7C71FC"/>
</svg>
