<svg width="58" height="58" viewBox="0 0 58 58" fill="none" xmlns="http://www.w3.org/2000/svg">
<rect x="32.0908" y="13.4559" width="19.2393" height="30.9203" rx="2.89734" transform="rotate(25 32.0908 13.4559)" fill="#ECE6FE"/>
<rect x="17.3428" y="10.5983" width="19.2393" height="30.9203" rx="2.89734" fill="#CCC3FC"/>
<rect x="8.09766" y="21.0825" width="19.2393" height="30.9203" rx="2.89734" transform="rotate(-25 8.09766 21.0825)" fill="#7C71FC"/>
<path d="M20.0508 33.7954C19.3171 33.8107 18.8164 32.7404 19.2942 32.1834C19.8697 31.5126 20.4237 30.7439 20.6892 30.0302C20.945 29.3424 20.9974 28.3492 20.9717 27.4259C20.9517 26.7046 21.96 26.2209 22.5066 26.6919C23.2151 27.3025 24.0261 27.902 24.7153 28.1528C25.405 28.4038 26.4124 28.4658 27.3482 28.4534C28.0695 28.4439 28.5316 29.4626 28.0529 30.0023C27.4325 30.7018 26.8228 31.5112 26.5636 32.2233C26.3189 32.8957 26.2578 33.8356 26.2734 34.7252C26.2861 35.4589 25.2199 35.9514 24.6685 35.4672C24.0032 34.883 23.25 34.3261 22.5784 34.0816C21.9009 33.835 20.9497 33.7766 20.0508 33.7954Z" fill="#ECE6FE"/>
</svg>
