<svg width="200" height="200" viewBox="0 0 200 200" fill="none" xmlns="http://www.w3.org/2000/svg">
<path d="M120.884 80.9183V74.5669C123.126 74.1595 124.833 72.1882 124.833 69.8268C124.833 67.1697 122.675 65.0083 120.023 65.0083H119.929V58.5452C119.929 56.59 118.342 55 116.389 55H101.468C99.516 55 97.9285 56.59 97.9285 58.5452V65.0083H97.8343C95.1826 65.0083 93.0247 67.1697 93.0247 69.8268C93.0247 72.1882 94.7312 74.1595 96.9736 74.5669V80.9183C91.3044 82.7028 86.0816 85.7785 81.7205 89.8579L80.3282 91.44C79.8694 90.6674 80.1274 90.9129 79.6686 91.6855L78.6068 93C78.1702 93.0981 91.9417 86.3942 86.9731 85.704C86.8343 86.1301 77.8465 92.6634 78.1429 93L74.8427 97L71.267 102C72.3397 100.5 72.2433 99.2881 71.267 102.835C72.5159 99.7704 70.7543 102.835 69.3794 108.187L69.0609 114.901C68.9239 116.255 69.0609 117.646 69.0609 119.01C69.0609 136.066 79.8819 151.243 95.9888 156.779C96.1216 156.823 96.2604 156.847 96.4006 156.847H121.457C121.597 156.847 121.736 156.823 121.869 156.779C137.976 151.243 148.797 136.065 148.797 119.01C148.797 101.631 137.368 86.1043 120.884 80.9183Z" fill="#ECE6FE"/>
<path d="M65.7587 64.9952C69.9606 64.9952 73.3787 61.5717 73.3787 57.3632C73.3787 53.1547 69.9606 49.7312 65.7587 49.7312C61.5568 49.7312 58.1387 53.1547 58.1387 57.3632C58.1387 61.5717 61.5567 64.9952 65.7587 64.9952ZM65.7587 52.2752C68.5604 52.2752 70.8387 54.557 70.8387 57.3632C70.8387 60.1692 68.5604 62.4512 65.7587 62.4512C62.9571 62.4512 60.6787 60.1692 60.6787 57.3632C60.6787 54.557 62.9571 52.2752 65.7587 52.2752Z" fill="#7C71FC"/>
<path d="M112.379 75.5948V69.2434C114.621 68.836 116.328 66.8647 116.328 64.5033C116.328 61.8462 114.17 59.6848 111.518 59.6848H111.424V53.2217C111.424 51.2665 109.837 49.6765 107.884 49.6765H92.9631C91.011 49.6765 89.4235 51.2665 89.4235 53.2217V59.6848H89.3293C86.6776 59.6848 84.5196 61.8462 84.5196 64.5033C84.5196 66.8647 86.2261 68.836 88.4686 69.2434V75.5948C82.7994 77.3793 77.5766 80.455 73.2155 84.5344L68.8232 77.1165C68.3644 76.3439 67.0968 76.3439 66.6379 77.1165L61.1636 86.362L50.691 88.7198C50.2544 88.8178 49.901 89.1408 49.762 89.5681C49.6232 89.9942 49.7199 90.4638 50.0163 90.8004L57.103 98.8747L56.1071 109.577C56.0662 110.024 56.2634 110.461 56.6255 110.724C56.989 110.988 57.4627 111.039 57.8744 110.863L60.7874 109.605C60.6504 110.96 60.5559 112.322 60.5559 113.686C60.5559 130.743 71.3769 145.92 87.4838 151.455C87.6165 151.5 87.7554 151.524 87.8956 151.524H112.952C113.092 151.524 113.231 151.5 113.364 151.455C129.471 145.92 140.292 130.742 140.292 113.686C140.292 96.307 128.863 80.7808 112.379 75.5948ZM91.9635 53.2217C91.9635 52.6701 92.4124 52.2205 92.9631 52.2205H107.884C108.435 52.2205 108.884 52.6701 108.884 53.2217V59.6848H91.9635V53.2217ZM58.8357 107.678L59.6839 98.564C59.7162 98.215 59.6034 97.8684 59.3726 97.6063L53.3377 90.7308L62.2549 88.7235C62.596 88.6464 62.8899 88.4328 63.0686 88.131L67.7306 80.2579L72.3927 88.131C72.5712 88.4328 72.8651 88.6464 73.2062 88.7235L82.1235 90.7308L76.0885 97.6063C75.8579 97.8684 75.745 98.215 75.7772 98.564L76.6256 107.678L68.2329 104.054C68.0729 103.985 67.9017 103.95 67.7306 103.95C67.5594 103.95 67.3882 103.985 67.2283 104.054L58.8357 107.678ZM137.474 109.408H114.858C114.156 109.408 113.588 109.977 113.588 110.68C113.588 111.383 114.156 111.952 114.858 111.952H137.679C137.707 112.53 137.752 113.104 137.752 113.686C137.752 116.061 137.502 118.389 137.071 120.661H120.651C119.949 120.661 119.381 121.23 119.381 121.933C119.381 122.636 119.949 123.205 120.651 123.205H136.5C135.694 126.268 134.506 129.188 132.983 131.915H116.539C115.837 131.915 115.269 132.484 115.269 133.188C115.269 133.891 115.837 134.46 116.539 134.46H131.428C127.026 141.049 120.566 146.241 112.739 148.98H88.1089C73.1393 143.742 63.0959 129.585 63.0959 113.686C63.0959 111.932 63.2291 110.172 63.4704 108.447L67.7306 106.607L77.5867 110.863C77.748 110.932 77.9191 110.967 78.089 110.967C78.3532 110.967 78.6149 110.885 78.8356 110.724C79.1978 110.461 79.3949 110.024 79.354 109.577L78.4681 100.056H135.125C136.298 103.028 137.096 106.165 137.474 109.408ZM79.5542 97.512L85.4448 90.8004C85.7413 90.4638 85.838 89.9942 85.6991 89.5681C85.5602 89.1408 85.2067 88.8178 84.7702 88.7198L74.8516 86.4868C79.1743 82.4132 84.4094 79.398 90.0895 77.7624C90.6339 77.6059 91.0086 77.1078 91.0086 76.5401V68.0485C91.0086 67.3453 90.4405 66.7765 89.7386 66.7765H89.3293C88.0779 66.7765 87.0596 65.7566 87.0596 64.5033C87.0596 63.2486 88.0779 62.2288 89.3293 62.2288H111.518C112.77 62.2288 113.788 63.2486 113.788 64.5033C113.788 65.7566 112.77 66.7765 111.518 66.7765H111.109C110.407 66.7765 109.839 67.3453 109.839 68.0485V76.5401C109.839 77.1078 110.214 77.6059 110.758 77.7624C121.16 80.759 129.482 88.1358 134.01 97.512H79.5542Z" fill="#7C71FC"/>
</svg>
