<svg width="1250" height="180" viewBox="0 0 1250 180" fill="none" xmlns="http://www.w3.org/2000/svg">
<ellipse cx="788" cy="151.5" rx="24" ry="11.5" fill="#ECE6FE"/>
<ellipse cx="788" cy="160.5" rx="24" ry="11.5" fill="#ECE6FE"/>
<rect x="764" y="151" width="12" height="11" fill="#ECE6FE"/>
<rect x="800" y="151" width="12" height="11" fill="#ECE6FE"/>
<ellipse cx="829" cy="148.5" rx="24" ry="11.5" fill="#ECE6FE"/>
<ellipse cx="829" cy="157.5" rx="24" ry="11.5" fill="#ECE6FE"/>
<rect x="805" y="148" width="12" height="11" fill="#ECE6FE"/>
<rect x="841" y="148" width="12" height="11" fill="#ECE6FE"/>
<ellipse cx="904.778" cy="140.844" rx="22.0484" ry="11.5" transform="rotate(60 904.778 140.844)" fill="#ECE6FE"/>
<ellipse cx="896.983" cy="145.344" rx="22.0484" ry="11.5" transform="rotate(60 896.983 145.344)" fill="#ECE6FE"/>
<rect x="894.187" y="121.5" width="11.0242" height="11" transform="rotate(60 894.187 121.5)" fill="#ECE6FE"/>
<rect x="910.723" y="150.142" width="11.0242" height="11" transform="rotate(60 910.723 150.142)" fill="#ECE6FE"/>
<ellipse cx="822.5" cy="130.5" rx="22.5" ry="11.5" fill="#ECE6FE"/>
<ellipse cx="822.5" cy="139.5" rx="22.5" ry="11.5" fill="#ECE6FE"/>
<rect x="800" y="130" width="11.25" height="11" fill="#ECE6FE"/>
<rect x="833.75" y="130" width="11.25" height="11" fill="#ECE6FE"/>
<ellipse cx="874" cy="145.5" rx="22" ry="11.5" fill="#ECE6FE"/>
<ellipse cx="874" cy="154.5" rx="22" ry="11.5" fill="#ECE6FE"/>
<rect x="852" y="145" width="11" height="11" fill="#ECE6FE"/>
<rect x="885" y="145" width="11" height="11" fill="#ECE6FE"/>
<ellipse cx="876" cy="135.5" rx="24" ry="11.5" fill="#ECE6FE"/>
<ellipse cx="876" cy="144.5" rx="24" ry="11.5" fill="#ECE6FE"/>
<rect x="852" y="135" width="12" height="11" fill="#ECE6FE"/>
<rect x="888" y="135" width="12" height="11" fill="#ECE6FE"/>
<ellipse cx="876" cy="128.5" rx="24" ry="11.5" fill="#ECE6FE"/>
<ellipse cx="876" cy="137.5" rx="24" ry="11.5" fill="#ECE6FE"/>
<rect x="852" y="128" width="12" height="11" fill="#ECE6FE"/>
<rect x="888" y="128" width="12" height="11" fill="#ECE6FE"/>
<ellipse cx="875.5" cy="117.5" rx="21.5" ry="11.5" fill="#ECE6FE"/>
<ellipse cx="875.5" cy="126.5" rx="21.5" ry="11.5" fill="#ECE6FE"/>
<rect x="854" y="117" width="10.75" height="11" fill="#ECE6FE"/>
<rect x="886.25" y="117" width="10.75" height="11" fill="#ECE6FE"/>
<ellipse cx="869" cy="106.5" rx="22" ry="11.5" fill="#ECE6FE"/>
<ellipse cx="869" cy="115.5" rx="22" ry="11.5" fill="#ECE6FE"/>
<rect x="847" y="106" width="11" height="11" fill="#ECE6FE"/>
<rect x="880" y="106" width="11" height="11" fill="#ECE6FE"/>
<ellipse cx="875.5" cy="87.5" rx="21.5" ry="11.5" fill="#ECE6FE"/>
<ellipse cx="875.5" cy="96.5" rx="21.5" ry="11.5" fill="#ECE6FE"/>
<rect x="854" y="87" width="10.75" height="11" fill="#ECE6FE"/>
<rect x="886.25" y="87" width="10.75" height="11" fill="#ECE6FE"/>
<circle cx="471" cy="66" r="58" fill="#ECE6FE"/>
<path d="M86.2642 13.0113C86.2642 10.8022 88.055 9.01134 90.2642 9.01134H219.687C221.896 9.01134 223.687 10.8022 223.687 13.0113V142.434C223.687 144.644 221.896 146.434 219.687 146.434H90.2642C88.055 146.434 86.2642 144.644 86.2642 142.434V13.0113Z" fill="#ECE6FE"/>
<rect x="75" y="1" width="135.423" height="135.423" rx="3" stroke="#7C71FC" stroke-width="2"/>
<path d="M177.63 50.6888C177.63 48.8225 179.143 47.3096 181.01 47.3096H195.653C197.52 47.3096 199.032 48.8225 199.032 50.6888C199.032 52.5551 197.519 54.0681 195.653 54.0681H181.01C179.143 54.0681 177.63 52.5551 177.63 50.6888Z" fill="#A79AFB"/>
<path d="M177.63 87.8606C177.63 85.9943 179.143 84.4814 181.01 84.4814H195.653C197.52 84.4814 199.032 85.9943 199.032 87.8606C199.032 89.7269 197.519 91.2399 195.653 91.2399H181.01C179.143 91.2399 177.63 89.7269 177.63 87.8606Z" fill="#A79AFB"/>
<path d="M115.677 54.0681H115.172C112.963 54.0681 111.172 55.8589 111.172 58.0681V80.4814C111.172 82.6905 112.963 84.4814 115.172 84.4814H115.677" stroke="#7C71FC" stroke-width="2" stroke-linecap="round"/>
<rect x="95.2755" y="22.4019" width="93.7456" height="93.7456" rx="3" stroke="#7C71FC" stroke-width="2"/>
<path d="M104 136.5H117V153C117 154.657 115.657 156 114 156H107C105.343 156 104 154.657 104 153V136.5Z" stroke="#7C71FC" stroke-width="2"/>
<path d="M168 136.5H181V153C181 154.657 179.657 156 178 156H171C169.343 156 168 154.657 168 153V136.5Z" stroke="#7C71FC" stroke-width="2"/>
<g clip-path="url(#clip0)">
<path d="M461 59C459.304 59 458 57.6957 458 56C458 54.3044 459.304 53 461 53C462.696 53 464 54.3044 464 56C464 57.6957 462.565 59 461 59ZM461 56.1304H462.435H461Z" fill="#7C71FC"/>
<path d="M412.095 57H404.45C403.659 57 403 56.5455 403 56C403 55.4545 403.659 55 404.45 55H412.095C412.886 55 413.545 55.4545 413.545 56C413.545 56.5455 412.886 57 412.095 57Z" fill="#7C71FC"/>
<path d="M517.286 57H509.641C508.85 57 508.191 56.5455 508.191 56C508.191 55.4545 508.85 55 509.641 55H517.286C518.077 55 518.736 55.4545 518.736 56C518.736 56.5455 518.077 57 517.286 57Z" fill="#7C71FC"/>
<path d="M461 10.6773C460.455 10.6773 460 10.0182 460 9.22727V1.45C460 0.659091 460.455 0 461 0C461.545 0 462 0.659091 462 1.45V9.09545C462 10.0182 461.545 10.6773 461 10.6773Z" fill="#7C71FC"/>
<path d="M461 115.868C460.455 115.868 460 115.209 460 114.418V106.773C460 105.982 460.455 105.323 461 105.323C461.545 105.323 462 105.982 462 106.773V114.418C462 115.209 461.545 115.868 461 115.868Z" fill="#7C71FC"/>
<circle cx="461" cy="58" r="57" stroke="#7C71FC" stroke-width="2"/>
<path d="M461 26.5V56L441.5 69.5" stroke="#7C71FC" stroke-width="2" stroke-linecap="round"/>
</g>
<path d="M150 156H310" stroke="#7C71FC" stroke-width="2" stroke-linecap="round"/>
<path d="M23 156L132.5 156" stroke="#7C71FC" stroke-width="2" stroke-linecap="round"/>
<path d="M914.556 153.681L963.556 153.681" stroke="#7C71FC" stroke-width="2" stroke-linecap="round"/>
<path d="M326 156L580 156" stroke="#7C71FC" stroke-width="2" stroke-linecap="round"/>
<path d="M596 156L747 156" stroke="#7C71FC" stroke-width="2" stroke-linecap="round"/>
<path d="M978 154L1110 154" stroke="#7C71FC" stroke-width="2" stroke-linecap="round"/>
<path d="M1120 154L1205 154" stroke="#7C71FC" stroke-width="2" stroke-linecap="round"/>
<path d="M1219 154H1249" stroke="#7C71FC" stroke-width="2" stroke-linecap="round"/>
<path d="M1120 154L1205 154" stroke="#7C71FC" stroke-width="2" stroke-linecap="round"/>
<path d="M1120 154L1205 154" stroke="#7C71FC" stroke-width="2" stroke-linecap="round"/>
<path d="M1120 154L1205 154" stroke="#7C71FC" stroke-width="2" stroke-linecap="round"/>
<path d="M1 156L8 156" stroke="#7C71FC" stroke-width="2" stroke-linecap="round"/>
<path d="M1182.69 31.372C1181.65 30.9649 1181.65 29.1138 1182.69 28.702C1186.3 27.2628 1191.66 24.742 1194.58 21.5305C1197.28 18.551 1199.55 12.3533 1200.83 8.28744C1201.19 7.15148 1202.78 7.13101 1203.15 8.25862C1204.52 12.324 1206.9 18.544 1209.58 21.5305C1212.25 24.5178 1217.83 27.18 1221.47 28.7012C1222.48 29.123 1222.46 30.8956 1221.45 31.2955C1217.79 32.7329 1212.19 35.292 1209.43 38.3793C1206.71 41.4045 1204.46 47.4652 1203.16 51.5477C1202.79 52.7013 1201.14 52.6941 1200.78 51.5377C1199.5 47.4569 1197.29 41.4063 1194.58 38.3793C1191.86 35.3427 1186.37 32.8215 1182.69 31.372Z" fill="#ECE6FE"/>
<path d="M1050 11C1050 9.89543 1050.9 9 1052 9H1069C1070.1 9 1071 9.89543 1071 11V98H1050V11Z" fill="#ECE6FE"/>
<rect x="1069" y="19" width="21" height="89" rx="2" fill="#ECE6FE"/>
<rect x="1037" y="115" width="17" height="177" rx="2" transform="rotate(-90 1037 115)" fill="#ECE6FE"/>
<path d="M1148.58 90H1031C1029.9 90 1029 90.8954 1029 92V105C1029 106.105 1029.9 107 1031 107H1206C1207.1 107 1208 106.105 1208 105V92C1208 90.8954 1207.1 90 1206 90H1195.59" stroke="#7C71FC" stroke-width="2"/>
<g clip-path="url(#clip1)">
<path d="M1179.74 68.8761C1182.54 69.3557 1185.2 70.7187 1187.42 72.9333C1188.86 74.372 1190 76.0862 1190.71 77.9642C1191.48 79.7605 1191.84 81.7033 1191.82 83.7285L1191.82 83.8657C1191.79 87.9068 1189.96 91.7414 1187.12 94.582C1184.36 97.3418 1180.53 99.1717 1176.48 99.2054L1176.41 99.2784C1171.94 99.3039 1168.34 97.6024 1165.69 94.9514C1164.26 93.5214 1163.12 91.7984 1162.34 89.8485C1161.56 87.9139 1161.14 85.8906 1161.15 83.8736C1161.25 80.0427 1162.65 76.2172 1165.7 73.1654C1166.43 72.435 1167.23 71.7854 1168.1 71.1923C1168.9 70.5345 1169.77 70.1043 1170.71 69.729C1173.67 68.638 1176.85 68.3238 1179.74 68.8761ZM1162.89 83.8543C1162.87 85.7415 1163.22 87.5302 1163.93 89.2623C1164.56 90.921 1165.65 92.4249 1166.93 93.7098C1169.23 96.0047 1172.45 97.4961 1176.43 97.5445C1178.24 97.5327 1179.99 97.1081 1181.6 96.3676C1183.21 95.6346 1184.67 94.6031 1185.91 93.3695C1188.46 90.8212 1190.06 87.489 1190.09 83.8848L1190.09 83.7392C1190.09 82.006 1189.75 80.2004 1189.11 78.5415C1188.4 76.9726 1187.48 75.4593 1186.18 74.1665C1184.25 72.2354 1181.89 71.0256 1179.36 70.5369C1176.76 70.121 1173.95 70.3617 1171.27 71.315C1170.55 71.6164 1169.83 72.0472 1169.02 72.5588C1168.3 73.1358 1167.57 73.72 1166.92 74.3776C1164.16 77.1377 1162.91 80.5336 1162.89 83.8543Z" fill="#7C71FC" stroke="#7C71FC" stroke-width="0.5"/>
<path d="M1136.97 85.27C1137.04 85.7801 1136.61 86.2097 1136.1 86.1379L1105.29 86.4304C1104.79 86.3667 1104.42 86.0036 1104.43 85.5733C1104.43 84.9984 1104.79 84.6339 1105.3 84.7055L1136.11 84.414C1136.61 84.4769 1136.98 84.8408 1136.97 85.27Z" fill="#7C71FC" stroke="#7C71FC" stroke-width="0.5"/>
<path d="M1157 89C1157.22 89.9308 1157.36 91.2602 1157.78 92.1177C1158.2 93.1294 1158.63 93.9944 1159.19 94.8516C1159.69 95.7907 1160.41 96.6393 1161.13 97.5039C1161.99 98.3611 1162.78 99.1527 1163.65 99.872C1164.57 100.663 1165.57 101.229 1166.58 101.801C1167.52 102.302 1168.52 102.721 1169.61 103.074L1169.68 103.147C1170.75 103.501 1171.76 103.783 1172.77 103.918C1173.86 104.127 1174.86 104.27 1175.95 104.187L1176.24 104.186C1177.61 104.24 1179.05 104.091 1180.35 103.797C1181.65 103.494 1182.87 103.128 1184.04 102.541L1184.19 102.541C1185.41 102.028 1186.64 101.362 1187.73 100.566L1187.8 100.638C1188.83 99.907 1189.84 99.0392 1190.71 98.1705C1194.78 94.0962 1196.7 89.0304 1196.72 83.9763C1196.75 81.2391 1196.18 78.503 1195.19 75.9053C1194.2 73.4527 1192.7 71.0917 1190.77 69.1605C1187.33 65.717 1182.51 63.5162 1176.59 63.5534C1175.37 63.4993 1174.22 63.6474 1172.99 63.8767C1171.83 64.1625 1170.67 64.4652 1169.59 64.8317C1167.34 65.6468 1165.25 66.8821 1163.36 68.4815C1161.62 69.9425 1160.01 71.8254 1158.91 73.9249L1158.84 73.9978C1158.4 74.8738 1157.9 75.8136 1157.52 76.7545C1157.08 77.7596 1156.79 78.7808 1156.56 79.867C1156.5 80.2229 1156.13 80.5884 1155.69 80.5896L1123.15 80.7558C1122.65 80.6761 1122.29 80.321 1122.29 79.8909L1122.22 70.0838C1120.63 70.0863 1119.04 70.1064 1117.46 70.1096L1117.41 76.1673C1117.41 76.6047 1117.04 76.9706 1116.53 77.0439L1113 77.0032C1112.57 76.9961 1112.22 76.64 1112.14 76.1391L1112.16 72.9634C1110.58 72.9754 1108.99 72.9868 1107.34 72.9255L1107.38 76.8934C1107.37 77.3315 1107.01 77.6961 1106.51 77.762L1103.04 77.7853C1102.61 77.7948 1102.18 77.3662 1102.19 76.9289L1102.23 70.2886L1102.08 70.2967C1100.42 70.2352 1098.91 70.1657 1097.32 70.3313L1097.32 89.3173C1101.58 89.3571 1105.94 89.6181 1110.27 89.5843C1112.65 89.4978 1115.84 89.3379 1118.15 89.3173C1118.15 90.3045 1118.22 90.2953 1118.15 89.3173C1131.06 89.0147 1142.66 89.0918 1155.5 89L1157 89ZM1176.6 61.8284C1182.95 61.7827 1188.28 64.201 1192 67.927C1194.08 70.0035 1195.73 72.5105 1196.78 75.3184C1197.93 78.0536 1198.49 80.9355 1198.46 83.9729C1198.42 89.4564 1196.36 94.9436 1191.92 99.3829C1190.91 100.398 1189.9 101.274 1188.73 102.005L1188.66 102.079C1187.43 102.875 1186.13 103.606 1184.75 104.128C1183.45 104.705 1182.07 105.227 1180.7 105.448C1179.25 105.751 1177.73 105.973 1176.22 105.919L1175.94 105.912C1174.78 105.922 1173.55 105.868 1172.48 105.652C1171.39 105.444 1170.23 105.163 1169.09 104.744C1167.94 104.31 1166.79 103.89 1165.78 103.318C1164.63 102.753 1163.55 101.97 1162.54 101.251C1161.61 100.468 1160.75 99.6029 1159.82 98.6731C1159.03 97.7434 1158.32 96.7329 1157.68 95.8029C1157.1 94.7912 1156.61 93.8609 1156.19 92.8499C1154.92 89.8496 1155.69 90.9884 1156 91L1143.5 90.5265H1122.16L1117.47 90.6424C1117.32 90.6426 1117.32 90.6426 1117.18 90.6431L1117.1 90.5705C1114.79 90.5834 1112.49 90.5961 1110.24 90.6894C1105.56 90.7975 1100.95 90.8231 1096.47 90.7107L1096.39 90.7844C1095.89 90.7205 1095.54 90.3653 1095.54 89.9272L1095.59 69.4759C1095.67 68.9735 1095.97 68.5355 1096.47 68.5992C1098.35 68.4497 1100.15 68.5022 1102.1 68.5626L1103.11 68.5526C1103.54 68.5431 1103.9 68.907 1103.97 69.4089L1103.92 76.0504L1105.65 76.0468L1105.53 72.1432C1105.61 71.6416 1105.98 71.2765 1106.41 71.2666L1107.27 71.2657C1109.15 71.2537 1111.17 71.2416 1113.11 71.3013C1113.55 71.3004 1113.91 71.6556 1113.97 72.1585L1113.88 75.2687L1115.69 75.321L1115.73 69.1171C1115.73 68.6797 1116.09 68.3231 1116.67 68.314C1118.48 68.3749 1120.35 68.3623 1122.23 68.3426L1123.1 68.3327C1123.6 68.4126 1123.95 68.7684 1123.96 69.1969L1124.02 79.0128L1154.98 78.858C1155.21 77.9267 1155.51 77.0588 1155.86 76.1191C1156.31 75.1051 1156.83 74.0113 1157.4 73.1429L1157.47 73.07C1158.58 70.8329 1160.33 68.7959 1162.29 67.1241C1164.25 65.4432 1166.56 64.1344 1169.02 63.2541C1170.25 62.7334 1171.4 62.4392 1172.71 62.1366C1174 61.9876 1175.31 61.8311 1176.6 61.8284Z" fill="#7C71FC"/>
<path d="M1118.15 89.3173C1115.84 89.3379 1112.65 89.4978 1110.27 89.5843C1105.94 89.6181 1101.58 89.3571 1097.32 89.3173L1097.32 70.3313C1098.91 70.1657 1100.42 70.2352 1102.08 70.2967L1102.23 70.2886L1102.19 76.9289C1102.18 77.3662 1102.61 77.7948 1103.04 77.7853L1106.51 77.762C1107.01 77.6961 1107.37 77.3315 1107.38 76.8934L1107.34 72.9255C1108.99 72.9868 1110.58 72.9754 1112.16 72.9634L1112.14 76.1391C1112.22 76.6401 1112.57 76.9961 1113 77.0032L1116.53 77.0439C1117.04 76.9706 1117.41 76.6047 1117.41 76.1673L1117.46 70.1096C1119.04 70.1064 1120.63 70.0863 1122.22 70.0838L1122.29 79.8909C1122.29 80.321 1122.65 80.6761 1123.15 80.7558L1155.69 80.5896C1156.13 80.5884 1156.5 80.2229 1156.56 79.867C1156.79 78.7808 1157.08 77.7596 1157.52 76.7545C1157.9 75.8136 1158.4 74.8738 1158.84 73.9978L1158.91 73.9249C1160.01 71.8254 1161.62 69.9425 1163.36 68.4815C1165.25 66.8821 1167.34 65.6468 1169.59 64.8317C1170.67 64.4652 1171.83 64.1625 1172.99 63.8767C1174.22 63.6474 1175.37 63.4993 1176.59 63.5534C1182.51 63.5162 1187.33 65.717 1190.77 69.1605C1192.7 71.0917 1194.2 73.4527 1195.19 75.9053C1196.18 78.503 1196.75 81.2391 1196.72 83.9763C1196.7 89.0304 1194.78 94.0962 1190.71 98.1705C1189.84 99.0392 1188.83 99.907 1187.8 100.638L1187.73 100.566C1186.64 101.362 1185.41 102.028 1184.19 102.541L1184.04 102.541C1182.87 103.128 1181.65 103.494 1180.35 103.797C1179.05 104.091 1177.61 104.24 1176.24 104.186L1175.95 104.187C1174.86 104.27 1173.86 104.127 1172.77 103.918C1171.76 103.783 1170.75 103.501 1169.68 103.147L1169.61 103.074C1168.52 102.721 1167.52 102.302 1166.58 101.801C1165.57 101.229 1164.57 100.663 1163.65 99.872C1162.78 99.1527 1161.99 98.3611 1161.13 97.5039C1160.41 96.6393 1159.69 95.7907 1159.19 94.8516C1158.63 93.9944 1158.2 93.1294 1157.78 92.1177C1157.36 91.2602 1157.22 89.9308 1157 89L1155.5 89C1142.66 89.0918 1131.06 89.0147 1118.15 89.3173ZM1118.15 89.3173C1118.22 90.2953 1118.15 90.3045 1118.15 89.3173ZM1176.6 61.8284C1182.95 61.7827 1188.28 64.201 1192 67.927C1194.08 70.0034 1195.73 72.5105 1196.78 75.3184C1197.93 78.0536 1198.49 80.9355 1198.46 83.9729C1198.42 89.4564 1196.36 94.9436 1191.92 99.3829C1190.91 100.398 1189.9 101.274 1188.73 102.005L1188.66 102.079C1187.43 102.875 1186.13 103.606 1184.75 104.128C1183.45 104.705 1182.07 105.227 1180.7 105.448C1179.25 105.751 1177.73 105.973 1176.22 105.919L1175.94 105.912C1174.78 105.922 1173.55 105.868 1172.48 105.652C1171.39 105.444 1170.23 105.163 1169.09 104.744C1167.94 104.31 1166.79 103.89 1165.78 103.318C1164.63 102.753 1163.55 101.97 1162.54 101.251C1161.61 100.468 1160.75 99.6029 1159.82 98.6731C1159.03 97.7434 1158.32 96.7329 1157.68 95.8029C1157.1 94.7912 1156.61 93.8609 1156.19 92.8499C1154.92 89.8496 1155.69 90.9884 1156 91L1143.5 90.5265H1122.16L1117.47 90.6424C1117.32 90.6426 1117.32 90.6426 1117.18 90.6431L1117.1 90.5705C1114.79 90.5834 1112.49 90.5961 1110.24 90.6894C1105.56 90.7975 1100.95 90.8231 1096.47 90.7107L1096.39 90.7844C1095.89 90.7205 1095.54 90.3653 1095.54 89.9272L1095.59 69.4759C1095.67 68.9735 1095.97 68.5355 1096.47 68.5992C1098.35 68.4497 1100.15 68.5022 1102.1 68.5626L1103.11 68.5526C1103.54 68.5431 1103.9 68.907 1103.97 69.4089L1103.92 76.0504L1105.65 76.0468L1105.53 72.1432C1105.61 71.6416 1105.98 71.2765 1106.41 71.2666L1107.27 71.2657C1109.15 71.2537 1111.17 71.2416 1113.11 71.3013C1113.55 71.3004 1113.91 71.6556 1113.97 72.1585L1113.88 75.2687L1115.69 75.321L1115.73 69.1171C1115.73 68.6797 1116.09 68.3231 1116.67 68.314C1118.48 68.3749 1120.35 68.3623 1122.23 68.3426L1123.1 68.3327C1123.6 68.4126 1123.95 68.7684 1123.96 69.1969L1124.02 79.0128L1154.98 78.858C1155.21 77.9267 1155.51 77.0588 1155.86 76.1191C1156.31 75.1051 1156.83 74.0113 1157.4 73.1429L1157.47 73.07C1158.58 70.8329 1160.33 68.7959 1162.29 67.1241C1164.25 65.4432 1166.56 64.1344 1169.02 63.2541C1170.25 62.7334 1171.4 62.4392 1172.71 62.1366C1174 61.9876 1175.31 61.8311 1176.6 61.8284Z" stroke="#7C71FC" stroke-width="0.5"/>
<path d="M1163.77 90.1475L1188.56 90.1475" stroke="#7C71FC" stroke-width="2" stroke-linecap="round"/>
<path d="M1141.03 48.0835C1140.99 48.0638 1140.86 47.9527 1140.86 47.6399C1140.86 47.327 1140.99 47.2109 1141.03 47.1895C1142.89 46.3416 1145.14 45.103 1146.56 43.54C1147.92 42.036 1149.04 39.3835 1149.79 37.2694C1149.81 37.2125 1149.9 37.0868 1150.14 37.0839C1150.39 37.081 1150.48 37.2038 1150.5 37.2577C1151.29 39.3762 1152.44 42.0332 1153.79 43.5348C1155.13 45.037 1157.51 46.3273 1159.41 47.209C1159.46 47.2314 1159.57 47.333 1159.57 47.6022C1159.57 47.8717 1159.45 47.9744 1159.4 47.997C1157.49 48.8442 1155.09 50.1062 1153.7 51.6575C1152.36 53.1529 1151.26 55.6935 1150.51 57.7749C1150.49 57.8257 1150.39 57.9652 1150.12 57.9641C1149.85 57.963 1149.75 57.8226 1149.73 57.7709C1148.99 55.6919 1147.9 53.1547 1146.56 51.6575C1145.22 50.1529 1142.91 48.9253 1141.03 48.0835Z" stroke="#7C71FC" stroke-width="2"/>
</g>
<rect x="1042" y="1" width="24" height="89" rx="1" stroke="#7C71FC" stroke-width="2"/>
<rect x="1066" y="11.0181" width="18" height="79" rx="1" stroke="#7C71FC" stroke-width="2"/>
<path d="M1049 72H1060" stroke="#7C71FC" stroke-width="2" stroke-linecap="round"/>
<path d="M1049 79H1060" stroke="#7C71FC" stroke-width="2" stroke-linecap="round"/>
<path d="M1175.02 25.9948C1174.98 25.9807 1174.95 25.9578 1174.93 25.9101C1174.9 25.8541 1174.87 25.7648 1174.87 25.6555C1174.87 25.4116 1174.97 25.3286 1175.02 25.3101C1176.85 24.5819 1179.13 23.5754 1181.33 22.3378C1183.52 21.1068 1185.69 19.6153 1187.26 17.8967C1188.72 16.2796 1190.02 13.8558 1191.1 11.3955C1192.19 8.91488 1193.09 6.3071 1193.74 4.25267C1193.75 4.20914 1193.77 4.17939 1193.81 4.15275C1193.86 4.12132 1193.93 4.09468 1194.01 4.0936C1194.1 4.09252 1194.17 4.11737 1194.21 4.14729C1194.25 4.17253 1194.27 4.20113 1194.29 4.24397C1194.98 6.29642 1195.93 8.90644 1197.05 11.3896C1198.16 13.8529 1199.48 16.2767 1200.93 17.8915C1202.37 19.5067 1204.55 20.9797 1206.75 22.2223C1208.98 23.4749 1211.32 24.5359 1213.16 25.3039C1213.2 25.3199 1213.22 25.3439 1213.24 25.3861C1213.27 25.4361 1213.29 25.5151 1213.29 25.6113C1213.29 25.7075 1213.27 25.7864 1213.24 25.8365C1213.22 25.879 1213.19 25.9029 1213.15 25.9182C1211.3 26.6446 1208.95 27.6592 1206.7 28.8892C1204.47 30.11 1202.27 31.5827 1200.77 33.2507C1199.31 34.8857 1198.01 37.28 1196.93 39.7161C1195.85 42.17 1194.94 44.7476 1194.28 46.8108C1194.27 46.8519 1194.25 46.8823 1194.21 46.9107C1194.16 46.9442 1194.08 46.9723 1193.98 46.9718C1193.89 46.9714 1193.81 46.9427 1193.76 46.9087C1193.72 46.8797 1193.7 46.8488 1193.69 46.8075C1193.04 44.7446 1192.16 42.1691 1191.08 39.7167C1190.01 37.2821 1188.73 34.8881 1187.26 33.2507C1185.79 31.6087 1183.63 30.1582 1181.43 28.9513C1179.21 27.7355 1176.88 26.7273 1175.02 25.9948Z" stroke="#7C71FC" stroke-width="2"/>
<path d="M891.239 119.873L889.099 119.084C889.324 118.634 889.324 118.07 889.324 117.62C889.324 115.142 886.959 112.664 882.904 110.861L883.805 108.834C888.761 111.087 891.464 114.241 891.464 117.62C891.69 118.408 891.464 119.084 891.239 119.873Z" fill="#7C71FC"/>
<path d="M868.26 129.447C856.996 129.447 847.534 125.618 845.281 120.211L847.309 119.31C849.223 123.815 858.122 127.194 868.147 127.194C868.147 127.194 868.147 127.194 868.26 127.194C871.189 127.194 874.005 126.857 876.821 126.293L877.271 128.546C874.343 129.109 871.301 129.447 868.26 129.447Z" fill="#7C71FC"/>
<path d="M868.373 138.684C855.194 138.684 844.831 133.502 844.831 126.857V118.634H847.084V126.857C847.084 132.038 856.771 136.431 868.26 136.431C871.189 136.431 874.118 136.206 876.934 135.53L877.384 137.783C874.343 138.346 871.302 138.684 868.373 138.684Z" fill="#7C71FC"/>
<path d="M868.486 147.132C868.373 147.132 868.26 147.132 868.26 147.132C855.194 147.132 844.831 141.951 844.831 135.305V127.082H847.084V135.305C847.084 140.486 856.771 144.879 868.26 144.879C871.977 144.879 875.807 144.429 879.412 143.415L879.975 145.555C876.258 146.569 872.428 147.132 868.486 147.132Z" fill="#7C71FC"/>
<path d="M868.936 155.693C868.711 155.693 868.485 155.693 868.148 155.693C855.081 155.693 844.718 150.511 844.718 143.865V135.643H846.971V143.865C846.971 149.047 856.658 153.44 868.148 153.44C873.329 153.553 878.398 152.539 883.129 150.624L884.03 152.652C879.186 154.679 874.118 155.693 868.936 155.693Z" fill="#7C71FC"/>
<path d="M868.26 164.141C855.081 164.141 844.831 158.959 844.831 152.314V144.091H847.084V152.314C847.084 157.495 856.771 161.888 868.26 161.888C876.371 161.888 883.918 159.635 887.409 156.256L888.986 157.833C885.044 161.776 877.046 164.141 868.26 164.141Z" fill="#7C71FC"/>
<path d="M861.727 114.015C848.886 114.015 838.748 108.947 838.748 102.413C838.748 99.034 841.451 95.9927 846.295 93.7399L847.196 95.7674C843.253 97.5697 841.001 99.9352 841.001 102.413C841.001 107.482 850.463 111.763 861.727 111.763C872.991 111.763 882.453 107.482 882.453 102.413C882.453 101.737 882.34 101.174 882.002 100.611L884.03 99.5972C884.48 100.498 884.706 101.512 884.706 102.413C884.706 108.947 874.681 114.015 861.727 114.015Z" fill="#7C71FC"/>
<path d="M861.727 124.139C848.886 124.139 838.748 119.07 838.748 112.537V103.413H841.001V112.537C841.001 117.606 850.463 121.887 861.727 121.887C872.991 121.887 882.453 117.606 882.453 112.537V103.413H884.706V112.537C884.706 119.07 874.681 124.139 861.727 124.139Z" fill="#7C71FC"/>
<path d="M868.711 95.2042C855.757 95.2042 845.732 90.1353 845.732 83.6021C845.732 77.0689 855.757 72 868.711 72C881.552 72 891.69 77.0689 891.69 83.6021C891.69 90.1353 881.552 95.2042 868.711 95.2042ZM868.711 74.2528C857.447 74.2528 847.985 78.5332 847.985 83.6021C847.985 88.671 857.447 92.9514 868.711 92.9514C879.975 92.9514 889.437 88.671 889.437 83.6021C889.437 78.5332 879.862 74.2528 868.711 74.2528Z" fill="#7C71FC"/>
<path d="M868.711 104.216C855.757 104.216 845.732 99.1467 845.732 92.7261V83.6021H847.985V92.7261C847.985 97.795 857.447 102.075 868.711 102.075C879.975 102.075 889.437 97.795 889.437 92.7261V83.6021H891.69V92.7261C891.69 99.1467 881.552 104.216 868.711 104.216Z" fill="#7C71FC"/>
<path d="M907.009 159.748C901.49 159.748 894.168 154.003 888.761 144.879C882.228 133.728 881.552 122.464 887.071 119.197C892.704 115.93 902.165 122.013 908.699 133.164C911.74 138.346 913.655 143.753 913.993 148.484C914.443 153.44 913.092 157.157 910.276 158.847C909.375 159.41 908.248 159.748 907.009 159.748ZM888.311 121.112C883.917 123.703 885.044 134.066 890.789 143.64C896.421 153.327 904.982 159.297 909.262 156.819C911.289 155.693 912.191 152.652 911.853 148.596C911.515 144.203 909.712 139.135 906.784 134.178C901.152 124.604 892.704 118.634 888.311 121.112Z" fill="#7C71FC"/>
<path d="M899.237 164.254C893.717 164.254 886.396 158.509 880.989 149.385C877.948 144.203 876.033 138.797 875.695 134.066C875.244 129.109 876.596 125.392 879.412 123.703L887.297 119.084L888.423 120.999L880.538 125.618C878.511 126.744 877.61 129.785 877.948 133.84C878.286 138.233 880.088 143.302 883.016 148.259C888.649 157.946 897.209 163.916 901.49 161.438L909.375 156.819L910.501 158.734L902.616 163.353C901.602 164.028 900.363 164.254 899.237 164.254Z" fill="#7C71FC"/>
<path d="M756.648 150.193C759.406 154.974 768.041 158.445 778.646 158.568C791.57 158.654 801.665 153.61 801.736 147.197C801.751 140.686 791.753 135.53 778.829 135.444C772.821 135.4 767.181 136.443 762.914 138.515C758.396 140.601 755.852 143.63 755.796 146.913C755.759 147.975 756.029 149.12 756.648 150.193ZM799.458 147.081C799.409 152.18 789.87 156.384 778.706 156.193C767.501 156.156 758.052 151.724 758.059 146.778C758.021 144.459 760.205 142.159 763.886 140.425C767.86 138.522 773.152 137.55 778.908 137.61C790.016 137.703 799.409 142.037 799.458 147.081Z" fill="#7C71FC"/>
<path d="M756.629 159.177C759.388 163.958 768.023 167.428 778.628 167.552C784.636 167.597 790.276 166.553 794.543 164.482C799.061 162.395 801.605 159.366 801.661 156.083L801.721 146.945L799.499 146.926L799.439 156.064C799.477 158.383 797.293 160.684 793.612 162.418C789.638 164.32 784.347 165.292 778.59 165.233C767.385 165.196 757.935 160.764 757.943 155.818L758.002 146.68L755.781 146.662L755.721 155.799C755.642 157.015 756.067 158.201 756.629 159.177Z" fill="#7C71FC"/>
<path d="M822.753 155.693C835.594 155.693 845.732 150.624 845.732 144.091C845.732 140.712 843.029 137.67 838.185 135.417L837.284 137.445C841.226 139.247 843.479 141.613 843.479 144.091C843.479 149.16 834.017 153.44 822.753 153.44C811.489 153.44 802.027 149.16 802.027 144.091C802.027 143.415 802.14 142.852 802.477 142.289L800.45 141.275C799.999 142.176 799.774 143.19 799.774 144.091C799.774 150.624 809.799 155.693 822.753 155.693Z" fill="#7C71FC"/>
<path d="M822.753 164.817C835.594 164.817 845.732 159.748 845.732 153.215V144.091H843.479V153.215C843.479 158.284 834.017 162.564 822.753 162.564C811.489 162.564 802.027 158.284 802.027 153.215V144.091H799.774V153.215C799.774 159.748 809.799 164.817 822.753 164.817Z" fill="#7C71FC"/>
<path d="M815.769 136.882C828.723 136.882 838.748 131.813 838.748 125.28C838.748 118.746 828.723 113.677 815.769 113.677C802.928 113.677 792.79 118.746 792.79 125.28C792.79 131.813 802.928 136.882 815.769 136.882ZM815.769 115.93C827.033 115.93 836.495 120.211 836.495 125.28C836.495 130.348 827.033 134.629 815.769 134.629C804.505 134.629 795.043 130.348 795.043 125.28C795.043 120.211 804.617 115.93 815.769 115.93Z" fill="#7C71FC"/>
<path d="M815.769 145.893C828.723 145.893 838.748 140.824 838.748 134.404V125.28H836.495V134.404C836.495 139.472 827.033 143.753 815.769 143.753C804.505 143.753 795.043 139.472 795.043 134.404V125.28H792.79V134.404C792.79 140.824 802.928 145.893 815.769 145.893Z" fill="#7C71FC"/>
<rect x="662" y="10" width="167" height="56" rx="4" fill="#ECE6FE"/>
<rect x="653" y="1" width="167" height="53" rx="3" stroke="#7C71FC" stroke-width="2"/>
<path d="M666.58 32.848C667.096 32.848 667.534 32.764 667.894 32.596C668.266 32.416 668.566 32.182 668.794 31.894C669.034 31.594 669.208 31.258 669.316 30.886C669.436 30.502 669.496 30.1 669.496 29.68V29.464H671.008V29.68C671.008 30.316 670.912 30.916 670.72 31.48C670.528 32.032 670.246 32.518 669.874 32.938C669.502 33.346 669.04 33.67 668.488 33.91C667.936 34.138 667.3 34.252 666.58 34.252C665.188 34.252 664.102 33.814 663.322 32.938C662.542 32.062 662.152 30.784 662.152 29.104V26.296C662.152 24.664 662.542 23.398 663.322 22.498C664.102 21.598 665.188 21.148 666.58 21.148C667.3 21.148 667.936 21.268 668.488 21.508C669.04 21.736 669.502 22.06 669.874 22.48C670.246 22.888 670.528 23.374 670.72 23.938C670.912 24.49 671.008 25.084 671.008 25.72V25.936H669.496V25.72C669.484 25.312 669.418 24.916 669.298 24.532C669.19 24.148 669.016 23.812 668.776 23.524C668.548 23.224 668.254 22.99 667.894 22.822C667.534 22.642 667.096 22.552 666.58 22.552C665.608 22.552 664.876 22.906 664.384 23.614C663.904 24.322 663.664 25.252 663.664 26.404V28.996C663.664 30.232 663.904 31.186 664.384 31.858C664.876 32.518 665.608 32.848 666.58 32.848ZM672.723 25.072H675.963V26.26H676.179C676.407 25.768 676.731 25.408 677.151 25.18C677.571 24.94 678.051 24.82 678.591 24.82C679.491 24.82 680.217 25.114 680.769 25.702C681.321 26.29 681.615 27.148 681.651 28.276L680.175 28.492C680.175 27.664 679.977 27.07 679.581 26.71C679.185 26.338 678.699 26.152 678.123 26.152C677.751 26.152 677.427 26.224 677.151 26.368C676.887 26.512 676.665 26.71 676.485 26.962C676.305 27.214 676.173 27.508 676.089 27.844C676.005 28.18 675.963 28.54 675.963 28.924V32.704H678.231V34H672.507V32.704H674.559V26.368H672.723V25.072ZM690.369 32.38H690.153C689.865 32.956 689.487 33.412 689.019 33.748C688.551 34.084 687.957 34.252 687.237 34.252C686.745 34.252 686.289 34.168 685.869 34C685.461 33.844 685.107 33.604 684.807 33.28C684.519 32.956 684.291 32.554 684.123 32.074C683.967 31.594 683.889 31.036 683.889 30.4V25.072H685.293V30.22C685.293 31.156 685.485 31.84 685.869 32.272C686.253 32.704 686.841 32.92 687.633 32.92C688.485 32.92 689.151 32.632 689.631 32.056C690.123 31.468 690.369 30.688 690.369 29.716V25.072H691.773V36.196C691.773 36.604 691.641 36.94 691.377 37.204C691.125 37.468 690.795 37.6 690.387 37.6H685.293V36.304H689.883C690.207 36.304 690.369 36.124 690.369 35.764V32.38ZM695.63 37.6H694.226V25.072H695.63V26.476H695.846C696.158 25.936 696.59 25.528 697.142 25.252C697.694 24.964 698.294 24.82 698.942 24.82C699.494 24.82 700.016 24.922 700.508 25.126C701 25.33 701.432 25.624 701.804 26.008C702.188 26.392 702.488 26.866 702.704 27.43C702.932 27.994 703.046 28.636 703.046 29.356V29.716C703.046 30.448 702.938 31.096 702.722 31.66C702.506 32.224 702.206 32.698 701.822 33.082C701.45 33.466 701.012 33.76 700.508 33.964C700.004 34.156 699.47 34.252 698.906 34.252C698.618 34.252 698.324 34.216 698.024 34.144C697.724 34.084 697.436 33.988 697.16 33.856C696.896 33.712 696.65 33.544 696.422 33.352C696.194 33.148 696.002 32.908 695.846 32.632H695.63V37.6ZM698.618 32.92C699.05 32.92 699.446 32.848 699.806 32.704C700.166 32.548 700.478 32.332 700.742 32.056C701.018 31.78 701.228 31.444 701.372 31.048C701.528 30.652 701.606 30.208 701.606 29.716V29.356C701.606 28.876 701.528 28.444 701.372 28.06C701.228 27.664 701.018 27.328 700.742 27.052C700.478 26.764 700.16 26.542 699.788 26.386C699.428 26.23 699.038 26.152 698.618 26.152C698.198 26.152 697.808 26.236 697.448 26.404C697.088 26.56 696.77 26.782 696.494 27.07C696.23 27.358 696.02 27.706 695.864 28.114C695.708 28.51 695.63 28.948 695.63 29.428V29.644C695.63 30.136 695.708 30.586 695.864 30.994C696.02 31.39 696.23 31.732 696.494 32.02C696.77 32.308 697.088 32.53 697.448 32.686C697.808 32.842 698.198 32.92 698.618 32.92ZM704.906 25.072H707.714V21.4H709.118V25.072H712.574V26.368H709.118V32.164C709.118 32.524 709.28 32.704 709.604 32.704H712.142V34H709.1C708.692 34 708.356 33.868 708.092 33.604C707.84 33.34 707.714 33.004 707.714 32.596V26.368H704.906V25.072ZM724.297 29.644C724.297 30.388 724.171 31.048 723.919 31.624C723.679 32.188 723.355 32.668 722.947 33.064C722.539 33.448 722.059 33.742 721.507 33.946C720.967 34.15 720.403 34.252 719.815 34.252C719.215 34.252 718.645 34.15 718.105 33.946C717.565 33.742 717.091 33.448 716.683 33.064C716.275 32.668 715.945 32.188 715.693 31.624C715.453 31.048 715.333 30.388 715.333 29.644V29.428C715.333 28.696 715.453 28.048 715.693 27.484C715.945 26.908 716.275 26.422 716.683 26.026C717.103 25.63 717.583 25.33 718.123 25.126C718.663 24.922 719.227 24.82 719.815 24.82C720.403 24.82 720.967 24.922 721.507 25.126C722.047 25.33 722.521 25.63 722.929 26.026C723.349 26.422 723.679 26.908 723.919 27.484C724.171 28.048 724.297 28.696 724.297 29.428V29.644ZM719.815 32.92C720.247 32.92 720.643 32.848 721.003 32.704C721.375 32.548 721.699 32.326 721.975 32.038C722.251 31.75 722.467 31.408 722.623 31.012C722.779 30.604 722.857 30.148 722.857 29.644V29.428C722.857 28.948 722.779 28.51 722.623 28.114C722.467 27.706 722.251 27.358 721.975 27.07C721.699 26.782 721.375 26.56 721.003 26.404C720.631 26.236 720.235 26.152 719.815 26.152C719.395 26.152 718.999 26.236 718.627 26.404C718.255 26.56 717.931 26.782 717.655 27.07C717.379 27.358 717.163 27.706 717.007 28.114C716.851 28.51 716.773 28.948 716.773 29.428V29.644C716.773 30.148 716.851 30.604 717.007 31.012C717.163 31.408 717.379 31.75 717.655 32.038C717.931 32.326 718.249 32.548 718.609 32.704C718.981 32.848 719.383 32.92 719.815 32.92ZM745.08 34H743.568V29.788C743.568 29.476 743.496 29.236 743.352 29.068C743.208 28.9 742.956 28.816 742.596 28.816H738.672V34H737.16V21.4H741.66C742.308 21.4 742.872 21.496 743.352 21.688C743.832 21.868 744.228 22.114 744.54 22.426C744.864 22.738 745.104 23.104 745.26 23.524C745.428 23.932 745.512 24.364 745.512 24.82V25.36C745.512 25.828 745.38 26.296 745.116 26.764C744.864 27.232 744.468 27.592 743.928 27.844V28.06C744.288 28.12 744.57 28.264 744.774 28.492C744.978 28.72 745.08 29.044 745.08 29.464V34ZM738.672 27.412H741.48C742.332 27.412 742.962 27.232 743.37 26.872C743.79 26.5 744 25.96 744 25.252V24.928C744 24.292 743.79 23.782 743.37 23.398C742.962 23.002 742.332 22.804 741.48 22.804H738.672V27.412ZM748.884 29.968C748.92 30.856 749.196 31.57 749.712 32.11C750.228 32.65 750.948 32.92 751.872 32.92C752.292 32.92 752.658 32.872 752.97 32.776C753.282 32.68 753.546 32.548 753.762 32.38C753.99 32.212 754.17 32.02 754.302 31.804C754.446 31.576 754.56 31.336 754.644 31.084L755.976 31.444C755.724 32.272 755.256 32.95 754.572 33.478C753.9 33.994 752.988 34.252 751.836 34.252C751.2 34.252 750.612 34.144 750.072 33.928C749.544 33.7 749.088 33.382 748.704 32.974C748.32 32.566 748.02 32.08 747.804 31.516C747.588 30.952 747.48 30.328 747.48 29.644V29.212C747.48 28.588 747.588 28.006 747.804 27.466C748.032 26.926 748.344 26.464 748.74 26.08C749.136 25.684 749.598 25.378 750.126 25.162C750.666 24.934 751.248 24.82 751.872 24.82C752.604 24.82 753.234 24.958 753.762 25.234C754.302 25.498 754.74 25.828 755.076 26.224C755.424 26.62 755.676 27.052 755.832 27.52C756 27.988 756.084 28.42 756.084 28.816V29.968H748.884ZM751.872 26.152C751.476 26.152 751.104 26.218 750.756 26.35C750.42 26.47 750.12 26.644 749.856 26.872C749.604 27.1 749.394 27.37 749.226 27.682C749.07 27.982 748.968 28.312 748.92 28.672H754.68C754.656 28.288 754.56 27.94 754.392 27.628C754.236 27.316 754.026 27.052 753.762 26.836C753.51 26.62 753.216 26.452 752.88 26.332C752.556 26.212 752.22 26.152 751.872 26.152ZM766.241 34H763.649L762.569 25.72H762.353L761.273 34H758.681L757.277 25.072H758.717L759.905 33.352H760.121L761.165 25.072H763.757L764.801 33.352H765.017L766.205 25.072H767.645L766.241 34ZM775.661 32.488H775.445C775.157 33.088 774.755 33.532 774.239 33.82C773.735 34.108 773.201 34.252 772.637 34.252C772.049 34.252 771.503 34.156 770.999 33.964C770.495 33.76 770.051 33.466 769.667 33.082C769.295 32.686 769.001 32.206 768.785 31.642C768.569 31.078 768.461 30.424 768.461 29.68V29.392C768.461 28.66 768.569 28.012 768.785 27.448C769.001 26.884 769.295 26.41 769.667 26.026C770.051 25.63 770.495 25.33 770.999 25.126C771.503 24.922 772.037 24.82 772.601 24.82C773.213 24.82 773.765 24.958 774.257 25.234C774.761 25.498 775.157 25.912 775.445 26.476H775.661V25.072H777.065V32.164C777.065 32.524 777.227 32.704 777.551 32.704H778.001V34H777.047C776.639 34 776.303 33.868 776.039 33.604C775.787 33.34 775.661 33.004 775.661 32.596V32.488ZM772.781 32.92C773.201 32.92 773.585 32.842 773.933 32.686C774.293 32.53 774.599 32.308 774.851 32.02C775.103 31.732 775.301 31.39 775.445 30.994C775.589 30.586 775.661 30.136 775.661 29.644V29.428C775.661 28.948 775.589 28.51 775.445 28.114C775.301 27.706 775.097 27.358 774.833 27.07C774.581 26.782 774.275 26.56 773.915 26.404C773.567 26.236 773.189 26.152 772.781 26.152C772.361 26.152 771.977 26.23 771.629 26.386C771.281 26.542 770.975 26.764 770.711 27.052C770.459 27.328 770.261 27.67 770.117 28.078C769.973 28.474 769.901 28.912 769.901 29.392V29.68C769.901 30.7 770.165 31.498 770.693 32.074C771.233 32.638 771.929 32.92 772.781 32.92ZM779.338 25.072H782.578V26.26H782.794C783.022 25.768 783.346 25.408 783.766 25.18C784.186 24.94 784.666 24.82 785.206 24.82C786.106 24.82 786.832 25.114 787.384 25.702C787.936 26.29 788.23 27.148 788.266 28.276L786.79 28.492C786.79 27.664 786.592 27.07 786.196 26.71C785.8 26.338 785.314 26.152 784.738 26.152C784.366 26.152 784.042 26.224 783.766 26.368C783.502 26.512 783.28 26.71 783.1 26.962C782.92 27.214 782.788 27.508 782.704 27.844C782.62 28.18 782.578 28.54 782.578 28.924V32.704H784.846V34H779.122V32.704H781.174V26.368H779.338V25.072ZM797.416 32.632H797.2C797.056 32.908 796.87 33.148 796.642 33.352C796.426 33.556 796.186 33.724 795.922 33.856C795.67 33.988 795.4 34.084 795.112 34.144C794.824 34.216 794.548 34.252 794.284 34.252C793.684 34.252 793.126 34.15 792.61 33.946C792.094 33.742 791.638 33.448 791.242 33.064C790.858 32.68 790.552 32.206 790.324 31.642C790.108 31.066 790 30.412 790 29.68V29.392C790 28.672 790.114 28.03 790.342 27.466C790.57 26.89 790.876 26.41 791.26 26.026C791.644 25.63 792.094 25.33 792.61 25.126C793.126 24.922 793.672 24.82 794.248 24.82C794.86 24.82 795.43 24.958 795.958 25.234C796.498 25.498 796.912 25.912 797.2 26.476H797.416V21.4H798.82V34H797.416V32.632ZM794.428 32.92C794.848 32.92 795.238 32.842 795.598 32.686C795.958 32.53 796.27 32.308 796.534 32.02C796.81 31.732 797.026 31.39 797.182 30.994C797.338 30.586 797.416 30.136 797.416 29.644V29.428C797.416 28.948 797.338 28.51 797.182 28.114C797.026 27.706 796.81 27.358 796.534 27.07C796.27 26.782 795.952 26.56 795.58 26.404C795.22 26.236 794.836 26.152 794.428 26.152C794.008 26.152 793.612 26.23 793.24 26.386C792.88 26.542 792.562 26.764 792.286 27.052C792.022 27.34 791.812 27.682 791.656 28.078C791.512 28.474 791.44 28.912 791.44 29.392V29.68C791.44 30.184 791.512 30.634 791.656 31.03C791.812 31.426 792.022 31.768 792.286 32.056C792.562 32.332 792.88 32.548 793.24 32.704C793.6 32.848 793.996 32.92 794.428 32.92ZM803.019 27.376C803.019 27.808 803.199 28.138 803.559 28.366C803.931 28.594 804.603 28.744 805.575 28.816C806.619 28.9 807.411 29.152 807.951 29.572C808.503 29.98 808.779 30.58 808.779 31.372V31.48C808.779 31.912 808.689 32.302 808.509 32.65C808.341 32.986 808.101 33.274 807.789 33.514C807.489 33.754 807.117 33.934 806.673 34.054C806.241 34.186 805.767 34.252 805.251 34.252C804.555 34.252 803.955 34.162 803.451 33.982C802.959 33.79 802.545 33.544 802.209 33.244C801.885 32.932 801.639 32.584 801.471 32.2C801.303 31.804 801.207 31.408 801.183 31.012L802.515 30.688C802.575 31.372 802.839 31.924 803.307 32.344C803.775 32.752 804.399 32.956 805.179 32.956C805.839 32.956 806.367 32.83 806.763 32.578C807.171 32.314 807.375 31.948 807.375 31.48C807.375 30.976 807.177 30.616 806.781 30.4C806.385 30.184 805.743 30.046 804.855 29.986C803.823 29.914 803.031 29.674 802.479 29.266C801.927 28.858 801.651 28.264 801.651 27.484V27.376C801.651 26.956 801.741 26.59 801.921 26.278C802.101 25.954 802.341 25.684 802.641 25.468C802.953 25.252 803.301 25.09 803.685 24.982C804.069 24.874 804.471 24.82 804.891 24.82C805.479 24.82 805.995 24.904 806.439 25.072C806.883 25.228 807.255 25.438 807.555 25.702C807.855 25.954 808.083 26.248 808.239 26.584C808.407 26.92 808.515 27.256 808.563 27.592L807.231 27.916C807.171 27.34 806.937 26.89 806.529 26.566C806.133 26.242 805.611 26.08 804.963 26.08C804.711 26.08 804.465 26.11 804.225 26.17C803.997 26.218 803.793 26.296 803.613 26.404C803.433 26.512 803.289 26.65 803.181 26.818C803.073 26.974 803.019 27.16 803.019 27.376Z" fill="#7C71FC"/>
<path d="M667.894 32.596L668 32.8226L668.003 32.821L667.894 32.596ZM668.794 31.894L668.599 31.7378L668.598 31.7388L668.794 31.894ZM669.316 30.886L669.077 30.8114L669.076 30.8163L669.316 30.886ZM669.496 29.464V29.214H669.246V29.464H669.496ZM671.008 29.464H671.258V29.214H671.008V29.464ZM670.72 31.48L670.956 31.5621L670.957 31.5606L670.72 31.48ZM669.874 32.938L670.059 33.1065L670.061 33.1038L669.874 32.938ZM668.488 33.91L668.583 34.1411L668.588 34.1393L668.488 33.91ZM663.322 32.938L663.509 32.7717L663.322 32.938ZM663.322 22.498L663.133 22.3343L663.322 22.498ZM668.488 21.508L668.388 21.7373L668.393 21.7391L668.488 21.508ZM669.874 22.48L669.687 22.6458L669.689 22.6484L669.874 22.48ZM670.72 23.938L670.483 24.0186L670.484 24.0201L670.72 23.938ZM671.008 25.936V26.186H671.258V25.936H671.008ZM669.496 25.936H669.246V26.186H669.496V25.936ZM669.496 25.72H669.746L669.746 25.7127L669.496 25.72ZM669.298 24.532L669.057 24.5997L669.059 24.6066L669.298 24.532ZM668.776 23.524L668.577 23.6754L668.584 23.684L668.776 23.524ZM667.894 22.822L667.782 23.0457L667.788 23.0485L667.894 22.822ZM664.384 23.614L664.179 23.4713L664.177 23.4737L664.384 23.614ZM664.384 31.858L664.181 32.0033L664.184 32.0074L664.384 31.858ZM666.58 33.098C667.122 33.098 667.598 33.0099 668 32.8225L667.788 32.3695C667.47 32.5181 667.07 32.598 666.58 32.598V33.098ZM668.003 32.821C668.405 32.6267 668.736 32.3702 668.99 32.0492L668.598 31.7388C668.396 31.9938 668.127 32.2053 667.785 32.371L668.003 32.821ZM668.989 32.0502C669.25 31.7244 669.439 31.3589 669.556 30.9557L669.076 30.8163C668.977 31.1571 668.818 31.4636 668.599 31.7378L668.989 32.0502ZM669.555 30.9606C669.682 30.5514 669.746 30.1242 669.746 29.68H669.246C669.246 30.0758 669.19 30.4526 669.077 30.8114L669.555 30.9606ZM669.746 29.68V29.464H669.246V29.68H669.746ZM669.496 29.714H671.008V29.214H669.496V29.714ZM670.758 29.464V29.68H671.258V29.464H670.758ZM670.758 29.68C670.758 30.2905 670.666 30.8631 670.483 31.3994L670.957 31.5606C671.158 30.9689 671.258 30.3415 671.258 29.68H670.758ZM670.484 31.3979C670.302 31.9204 670.036 32.3777 669.687 32.7722L670.061 33.1038C670.456 32.6583 670.754 32.1436 670.956 31.5621L670.484 31.3979ZM669.689 32.7696C669.343 33.1492 668.911 33.4535 668.388 33.6807L668.588 34.1393C669.169 33.8865 669.661 33.5428 670.059 33.1064L669.689 32.7696ZM668.393 33.6789C667.876 33.8921 667.274 34.002 666.58 34.002V34.502C667.326 34.502 667.996 34.3839 668.583 34.1411L668.393 33.6789ZM666.58 34.002C665.245 34.002 664.232 33.5845 663.509 32.7717L663.135 33.1042C663.972 34.0435 665.131 34.502 666.58 34.502V34.002ZM663.509 32.7717C662.784 31.9579 662.402 30.7489 662.402 29.104H661.902C661.902 30.8191 662.3 32.1661 663.135 33.1042L663.509 32.7717ZM662.402 29.104V26.296H661.902V29.104H662.402ZM662.402 26.296C662.402 24.7018 662.783 23.5019 663.511 22.6617L663.133 22.3343C662.301 23.2941 661.902 24.6262 661.902 26.296H662.402ZM663.511 22.6617C664.235 21.826 665.247 21.398 666.58 21.398V20.898C665.129 20.898 663.969 21.37 663.133 22.3343L663.511 22.6617ZM666.58 21.398C667.272 21.398 667.873 21.5134 668.388 21.7373L668.588 21.2787C667.999 21.0226 667.328 20.898 666.58 20.898V21.398ZM668.393 21.7391C668.912 21.9535 669.342 22.256 669.687 22.6458L670.061 22.3142C669.662 21.864 669.168 21.5185 668.583 21.2769L668.393 21.7391ZM669.689 22.6484C670.036 23.0291 670.302 23.4845 670.483 24.0186L670.957 23.8574C670.754 23.2635 670.456 22.7469 670.059 22.3116L669.689 22.6484ZM670.484 24.0201C670.666 24.5435 670.758 25.1095 670.758 25.72H671.258C671.258 25.0585 671.158 24.4365 670.956 23.8559L670.484 24.0201ZM670.758 25.72V25.936H671.258V25.72H670.758ZM671.008 25.686H669.496V26.186H671.008V25.686ZM669.746 25.936V25.72H669.246V25.936H669.746ZM669.746 25.7127C669.733 25.2822 669.664 24.8635 669.537 24.4574L669.059 24.6066C669.172 24.9685 669.235 25.3418 669.246 25.7273L669.746 25.7127ZM669.539 24.4643C669.422 24.0487 669.232 23.6807 668.968 23.364L668.584 23.684C668.8 23.9433 668.958 24.2473 669.057 24.5997L669.539 24.4643ZM668.975 23.3727C668.721 23.0387 668.394 22.7796 668 22.5955L667.788 23.0485C668.114 23.2004 668.375 23.4093 668.577 23.6753L668.975 23.3727ZM668.006 22.5984C667.603 22.3968 667.124 22.302 666.58 22.302V22.802C667.068 22.802 667.465 22.8872 667.782 23.0456L668.006 22.5984ZM666.58 22.302C665.538 22.302 664.724 22.6867 664.179 23.4713L664.589 23.7567C665.028 23.1253 665.678 22.802 666.58 22.802V22.302ZM664.177 23.4737C663.661 24.2352 663.414 25.219 663.414 26.404H663.914C663.914 25.285 664.147 24.4088 664.591 23.7543L664.177 23.4737ZM663.414 26.404V28.996H663.914V26.404H663.414ZM663.414 28.996C663.414 30.2596 663.659 31.2726 664.181 32.0033L664.587 31.7127C664.149 31.0994 663.914 30.2044 663.914 28.996H663.414ZM664.184 32.0074C664.732 32.7426 665.545 33.098 666.58 33.098V32.598C665.671 32.598 665.02 32.2934 664.584 31.7086L664.184 32.0074ZM672.723 25.072V24.822H672.473V25.072H672.723ZM675.963 25.072H676.213V24.822H675.963V25.072ZM675.963 26.26H675.713V26.51H675.963V26.26ZM676.179 26.26V26.51H676.339L676.406 26.3651L676.179 26.26ZM677.151 25.18L677.271 25.3998L677.276 25.3971L677.151 25.18ZM680.769 25.702L680.952 25.5309L680.769 25.702ZM681.651 28.276L681.688 28.5234L681.908 28.4911L681.901 28.268L681.651 28.276ZM680.175 28.492H679.925V28.7812L680.212 28.7394L680.175 28.492ZM679.581 26.71L679.41 26.8922L679.413 26.895L679.581 26.71ZM677.151 26.368L677.036 26.1463L677.032 26.1485L677.151 26.368ZM676.485 26.962L676.282 26.8167V26.8167L676.485 26.962ZM676.089 27.844L675.847 27.7834L676.089 27.844ZM675.963 32.704H675.713V32.954H675.963V32.704ZM678.231 32.704H678.481V32.454H678.231V32.704ZM678.231 34V34.25H678.481V34H678.231ZM672.507 34H672.257V34.25H672.507V34ZM672.507 32.704V32.454H672.257V32.704H672.507ZM674.559 32.704V32.954H674.809V32.704H674.559ZM674.559 26.368H674.809V26.118H674.559V26.368ZM672.723 26.368H672.473V26.618H672.723V26.368ZM672.723 25.322H675.963V24.822H672.723V25.322ZM675.713 25.072V26.26H676.213V25.072H675.713ZM675.963 26.51H676.179V26.01H675.963V26.51ZM676.406 26.3651C676.615 25.915 676.904 25.5987 677.271 25.3997L677.032 24.9603C676.559 25.2173 676.2 25.621 675.953 26.1549L676.406 26.3651ZM677.276 25.3971C677.653 25.1811 678.09 25.07 678.591 25.07V24.57C678.013 24.57 677.489 24.6989 677.027 24.9629L677.276 25.3971ZM678.591 25.07C679.431 25.07 680.088 25.3416 680.587 25.8731L680.952 25.5309C680.347 24.8864 679.552 24.57 678.591 24.57V25.07ZM680.587 25.8731C681.084 26.4018 681.367 27.1926 681.402 28.284L681.901 28.268C681.864 27.1034 681.559 26.1782 680.952 25.5309L680.587 25.8731ZM681.615 28.0286L680.139 28.2446L680.212 28.7394L681.688 28.5234L681.615 28.0286ZM680.425 28.492C680.425 27.6317 680.221 26.9531 679.75 26.525L679.413 26.895C679.734 27.1869 679.925 27.6963 679.925 28.492H680.425ZM679.753 26.5278C679.307 26.1094 678.759 25.902 678.123 25.902V26.402C678.64 26.402 679.064 26.5666 679.41 26.8922L679.753 26.5278ZM678.123 25.902C677.719 25.902 677.354 25.9804 677.036 26.1464L677.267 26.5896C677.501 26.4676 677.784 26.402 678.123 26.402V25.902ZM677.032 26.1485C676.734 26.3112 676.483 26.5349 676.282 26.8167L676.689 27.1073C676.848 26.8851 677.041 26.7128 677.271 26.5875L677.032 26.1485ZM676.282 26.8167C676.082 27.0971 675.938 27.4205 675.847 27.7834L676.332 27.9046C676.409 27.5955 676.529 27.3309 676.689 27.1073L676.282 26.8167ZM675.847 27.7834C675.757 28.1412 675.713 28.5217 675.713 28.924H676.213C676.213 28.5583 676.253 28.2188 676.332 27.9046L675.847 27.7834ZM675.713 28.924V32.704H676.213V28.924H675.713ZM675.963 32.954H678.231V32.454H675.963V32.954ZM677.981 32.704V34H678.481V32.704H677.981ZM678.231 33.75H672.507V34.25H678.231V33.75ZM672.757 34V32.704H672.257V34H672.757ZM672.507 32.954H674.559V32.454H672.507V32.954ZM674.809 32.704V26.368H674.309V32.704H674.809ZM674.559 26.118H672.723V26.618H674.559V26.118ZM672.973 26.368V25.072H672.473V26.368H672.973ZM690.369 32.38H690.619V32.13H690.369V32.38ZM690.153 32.38V32.13H689.998L689.929 32.2682L690.153 32.38ZM689.019 33.748L689.165 33.9511L689.019 33.748ZM685.869 34L685.962 33.7679L685.958 33.7665L685.869 34ZM684.807 33.28L684.62 33.4461L684.624 33.4499L684.807 33.28ZM684.123 32.074L683.885 32.1513L683.887 32.1566L684.123 32.074ZM683.889 25.072V24.822H683.639V25.072H683.889ZM685.293 25.072H685.543V24.822H685.293V25.072ZM689.631 32.056L689.439 31.8956L689.439 31.896L689.631 32.056ZM690.369 25.072V24.822H690.119V25.072H690.369ZM691.773 25.072H692.023V24.822H691.773V25.072ZM691.377 37.204L691.2 37.0272L691.196 37.0314L691.377 37.204ZM685.293 37.6H685.043V37.85H685.293V37.6ZM685.293 36.304V36.054H685.043V36.304H685.293ZM690.369 32.13H690.153V32.63H690.369V32.13ZM689.929 32.2682C689.657 32.8122 689.304 33.2353 688.873 33.5449L689.165 33.9511C689.669 33.5887 690.073 33.0998 690.377 32.4918L689.929 32.2682ZM688.873 33.5449C688.457 33.8435 687.918 34.002 687.237 34.002V34.502C687.996 34.502 688.645 34.3245 689.165 33.9511L688.873 33.5449ZM687.237 34.002C686.774 34.002 686.35 33.9231 685.962 33.7679L685.776 34.2321C686.228 34.4129 686.716 34.502 687.237 34.502V34.002ZM685.958 33.7665C685.587 33.6244 685.265 33.4063 684.99 33.1101L684.624 33.4499C684.949 33.8017 685.335 34.0636 685.78 34.2335L685.958 33.7665ZM684.994 33.1139C684.731 32.8181 684.518 32.4459 684.359 31.9914L683.887 32.1566C684.064 32.6621 684.307 33.0939 684.62 33.4461L684.994 33.1139ZM684.361 31.9967C684.215 31.5472 684.139 31.0163 684.139 30.4H683.639C683.639 31.0557 683.719 31.6408 683.885 32.1513L684.361 31.9967ZM684.139 30.4V25.072H683.639V30.4H684.139ZM683.889 25.322H685.293V24.822H683.889V25.322ZM685.043 25.072V30.22H685.543V25.072H685.043ZM685.043 30.22C685.043 31.1815 685.239 31.9393 685.682 32.4381L686.056 32.1059C685.731 31.7407 685.543 31.1305 685.543 30.22H685.043ZM685.682 32.4381C686.129 32.9411 686.797 33.17 687.633 33.17V32.67C686.885 32.67 686.377 32.4669 686.056 32.1059L685.682 32.4381ZM687.633 33.17C688.548 33.17 689.289 32.8572 689.823 32.216L689.439 31.896C689.013 32.4068 688.422 32.67 687.633 32.67V33.17ZM689.823 32.2164C690.362 31.5725 690.619 30.7306 690.619 29.716H690.119C690.119 30.6454 689.884 31.3635 689.439 31.8956L689.823 32.2164ZM690.619 29.716V25.072H690.119V29.716H690.619ZM690.369 25.322H691.773V24.822H690.369V25.322ZM691.523 25.072V36.196H692.023V25.072H691.523ZM691.523 36.196C691.523 36.5445 691.413 36.8147 691.2 37.0272L691.554 37.3808C691.869 37.0653 692.023 36.6635 692.023 36.196H691.523ZM691.196 37.0314C690.997 37.2399 690.736 37.35 690.387 37.35V37.85C690.854 37.85 691.253 37.6961 691.558 37.3766L691.196 37.0314ZM690.387 37.35H685.293V37.85H690.387V37.35ZM685.543 37.6V36.304H685.043V37.6H685.543ZM685.293 36.554H689.883V36.054H685.293V36.554ZM689.883 36.554C690.091 36.554 690.29 36.4951 690.433 36.3362C690.572 36.1824 690.619 35.9764 690.619 35.764H690.119C690.119 35.9116 690.085 35.9756 690.062 36.0018C690.043 36.0229 689.999 36.054 689.883 36.054V36.554ZM690.619 35.764V32.38H690.119V35.764H690.619ZM695.63 37.6V37.85H695.88V37.6H695.63ZM694.226 37.6H693.976V37.85H694.226V37.6ZM694.226 25.072V24.822H693.976V25.072H694.226ZM695.63 25.072H695.88V24.822H695.63V25.072ZM695.63 26.476H695.38V26.726H695.63V26.476ZM695.846 26.476V26.726H695.991L696.063 26.6011L695.846 26.476ZM697.142 25.252L697.254 25.4756L697.258 25.4736L697.142 25.252ZM701.804 26.008L701.625 26.182L701.628 26.1848L701.804 26.008ZM702.704 27.43L702.471 27.5194L702.473 27.5237L702.704 27.43ZM702.722 31.66L702.489 31.5706L702.722 31.66ZM701.822 33.082L701.646 32.9052L701.643 32.9081L701.822 33.082ZM700.508 33.964L700.597 34.1977L700.602 34.1957L700.508 33.964ZM698.024 34.144L698.083 33.9007L698.073 33.8989L698.024 34.144ZM697.16 33.856L697.041 34.0758L697.053 34.0815L697.16 33.856ZM696.422 33.352L696.256 33.5384L696.261 33.5432L696.422 33.352ZM695.846 32.632L696.064 32.509L695.992 32.382H695.846V32.632ZM695.63 32.632V32.382H695.38V32.632H695.63ZM699.806 32.704L699.899 32.9362L699.906 32.9334L699.806 32.704ZM700.742 32.056L700.566 31.8792L700.562 31.8832L700.742 32.056ZM701.372 31.048L701.14 30.9563L701.138 30.9626L701.372 31.048ZM701.372 28.06L701.137 28.1455L701.141 28.1541L701.372 28.06ZM700.742 27.052L700.558 27.2211L700.566 27.2288L700.742 27.052ZM699.788 26.386L699.689 26.6154L699.692 26.6165L699.788 26.386ZM697.448 26.404L697.548 26.6335L697.554 26.6305L697.448 26.404ZM696.494 27.07L696.314 26.897L696.31 26.9011L696.494 27.07ZM695.864 28.114L696.097 28.2056L696.098 28.2033L695.864 28.114ZM695.864 30.994L695.631 31.0833L695.632 31.0856L695.864 30.994ZM696.494 32.02L696.31 32.189L696.314 32.193L696.494 32.02ZM697.448 32.686L697.548 32.4566L697.448 32.686ZM695.63 37.35H694.226V37.85H695.63V37.35ZM694.476 37.6V25.072H693.976V37.6H694.476ZM694.226 25.322H695.63V24.822H694.226V25.322ZM695.38 25.072V26.476H695.88V25.072H695.38ZM695.63 26.726H695.846V26.226H695.63V26.726ZM696.063 26.6011C696.351 26.103 696.747 25.7295 697.254 25.4756L697.031 25.0284C696.434 25.3265 695.966 25.769 695.63 26.3509L696.063 26.6011ZM697.258 25.4736C697.773 25.205 698.333 25.07 698.942 25.07V24.57C698.256 24.57 697.616 24.723 697.027 25.0304L697.258 25.4736ZM698.942 25.07C699.463 25.07 699.952 25.166 700.413 25.3569L700.604 24.8951C700.081 24.678 699.526 24.57 698.942 24.57V25.07ZM700.413 25.3569C700.873 25.5478 701.277 25.8224 701.625 26.1819L701.984 25.8341C701.588 25.4256 701.128 25.1122 700.604 24.8951L700.413 25.3569ZM701.628 26.1848C701.984 26.5413 702.266 26.9845 702.471 27.5194L702.938 27.3406C702.711 26.7475 702.393 26.2427 701.981 25.8312L701.628 26.1848ZM702.473 27.5237C702.687 28.053 702.796 28.6623 702.796 29.356H703.296C703.296 28.6097 703.178 27.935 702.936 27.3363L702.473 27.5237ZM702.796 29.356V29.716H703.296V29.356H702.796ZM702.796 29.716C702.796 30.4237 702.692 31.0405 702.489 31.5706L702.956 31.7494C703.185 31.1515 703.296 30.4723 703.296 29.716H702.796ZM702.489 31.5706C702.284 32.1055 702.002 32.5487 701.646 32.9052L701.999 33.2588C702.411 32.8473 702.729 32.3425 702.956 31.7494L702.489 31.5706ZM701.643 32.9081C701.296 33.2666 700.887 33.5411 700.415 33.7323L700.602 34.1957C701.138 33.9789 701.605 33.6654 702.002 33.2559L701.643 32.9081ZM700.419 33.7304C699.945 33.9111 699.441 34.002 698.906 34.002V34.502C699.499 34.502 700.064 34.4009 700.597 34.1976L700.419 33.7304ZM698.906 34.002C698.639 34.002 698.365 33.9686 698.083 33.9009L697.966 34.3871C698.284 34.4634 698.597 34.502 698.906 34.502V34.002ZM698.073 33.8989C697.794 33.8429 697.526 33.7535 697.268 33.6305L697.053 34.0815C697.347 34.2225 697.655 34.3251 697.975 34.3891L698.073 33.8989ZM697.28 33.6365C697.031 33.5005 696.799 33.3419 696.583 33.1608L696.261 33.5432C696.502 33.7461 696.762 33.9235 697.041 34.0755L697.28 33.6365ZM696.589 33.1657C696.382 32.9805 696.207 32.7621 696.064 32.509L695.629 32.755C695.798 33.0539 696.007 33.3155 696.256 33.5383L696.589 33.1657ZM695.846 32.382H695.63V32.882H695.846V32.382ZM695.38 32.632V37.6H695.88V32.632H695.38ZM698.618 33.17C699.079 33.17 699.507 33.0932 699.899 32.9361L699.714 32.4719C699.386 32.6028 699.022 32.67 698.618 32.67V33.17ZM699.906 32.9334C700.296 32.7645 700.635 32.5296 700.923 32.2288L700.562 31.8832C700.321 32.1344 700.037 32.3315 699.707 32.4746L699.906 32.9334ZM700.919 32.2328C701.223 31.9289 701.452 31.561 701.607 31.1334L701.138 30.9626C701.005 31.327 700.814 31.6311 700.566 31.8792L700.919 32.2328ZM701.605 31.1396C701.774 30.7103 701.856 30.2345 701.856 29.716H701.356C701.356 30.1815 701.283 30.5937 701.14 30.9564L701.605 31.1396ZM701.856 29.716V29.356H701.356V29.716H701.856ZM701.856 29.356C701.856 28.8488 701.774 28.3841 701.604 27.9659L701.141 28.1541C701.283 28.5039 701.356 28.9032 701.356 29.356H701.856ZM701.607 27.9746C701.452 27.547 701.223 27.1791 700.919 26.8752L700.566 27.2288C700.814 27.4769 701.005 27.781 701.138 28.1454L701.607 27.9746ZM700.927 26.8831C700.638 26.5676 700.289 26.325 699.885 26.1555L699.692 26.6165C700.032 26.759 700.319 26.9604 700.558 27.2209L700.927 26.8831ZM699.888 26.1566C699.494 25.9861 699.07 25.902 698.618 25.902V26.402C699.007 26.402 699.363 26.4739 699.689 26.6154L699.888 26.1566ZM698.618 25.902C698.164 25.902 697.738 25.9931 697.343 26.1775L697.554 26.6305C697.879 26.4789 698.233 26.402 698.618 26.402V25.902ZM697.349 26.1746C696.958 26.3441 696.613 26.5854 696.314 26.897L696.675 27.243C696.928 26.9786 697.219 26.7759 697.548 26.6334L697.349 26.1746ZM696.31 26.9011C696.023 27.2149 695.797 27.5908 695.631 28.0247L696.098 28.2033C696.244 27.8212 696.438 27.5011 696.679 27.2389L696.31 26.9011ZM695.632 28.0224C695.463 28.451 695.38 28.9206 695.38 29.428H695.88C695.88 28.9754 695.954 28.569 696.097 28.2056L695.632 28.0224ZM695.38 29.428V29.644H695.88V29.428H695.38ZM695.38 29.644C695.38 30.1627 695.463 30.6434 695.631 31.0833L696.098 30.9047C695.954 30.5286 695.88 30.1093 695.88 29.644H695.38ZM695.632 31.0856C695.798 31.5076 696.024 31.8764 696.31 32.1889L696.679 31.8511C696.437 31.5876 696.243 31.2724 696.097 30.9024L695.632 31.0856ZM696.314 32.193C696.613 32.5046 696.958 32.7459 697.349 32.9154L697.548 32.4566C697.219 32.3141 696.928 32.1114 696.675 31.847L696.314 32.193ZM697.349 32.9154C697.743 33.0859 698.167 33.17 698.618 33.17V32.67C698.23 32.67 697.874 32.5981 697.548 32.4566L697.349 32.9154ZM704.906 25.072V24.822H704.656V25.072H704.906ZM707.714 25.072V25.322H707.964V25.072H707.714ZM707.714 21.4V21.15H707.464V21.4H707.714ZM709.118 21.4H709.368V21.15H709.118V21.4ZM709.118 25.072H708.868V25.322H709.118V25.072ZM712.574 25.072H712.824V24.822H712.574V25.072ZM712.574 26.368V26.618H712.824V26.368H712.574ZM709.118 26.368V26.118H708.868V26.368H709.118ZM712.142 32.704H712.392V32.454H712.142V32.704ZM712.142 34V34.25H712.392V34H712.142ZM708.092 33.604L707.911 33.7767L707.915 33.7808L708.092 33.604ZM707.714 26.368H707.964V26.118H707.714V26.368ZM704.906 26.368H704.656V26.618H704.906V26.368ZM704.906 25.322H707.714V24.822H704.906V25.322ZM707.964 25.072V21.4H707.464V25.072H707.964ZM707.714 21.65H709.118V21.15H707.714V21.65ZM708.868 21.4V25.072H709.368V21.4H708.868ZM709.118 25.322H712.574V24.822H709.118V25.322ZM712.324 25.072V26.368H712.824V25.072H712.324ZM712.574 26.118H709.118V26.618H712.574V26.118ZM708.868 26.368V32.164H709.368V26.368H708.868ZM708.868 32.164C708.868 32.3764 708.915 32.5824 709.054 32.7362C709.197 32.8951 709.396 32.954 709.604 32.954V32.454C709.488 32.454 709.444 32.4229 709.425 32.4018C709.402 32.3756 709.368 32.3116 709.368 32.164H708.868ZM709.604 32.954H712.142V32.454H709.604V32.954ZM711.892 32.704V34H712.392V32.704H711.892ZM712.142 33.75H709.1V34.25H712.142V33.75ZM709.1 33.75C708.751 33.75 708.481 33.6398 708.269 33.4272L707.915 33.7808C708.231 34.0962 708.632 34.25 709.1 34.25V33.75ZM708.273 33.4314C708.071 33.2195 707.964 32.9479 707.964 32.596H707.464C707.464 33.0601 707.609 33.4605 707.911 33.7766L708.273 33.4314ZM707.964 32.596V26.368H707.464V32.596H707.964ZM707.714 26.118H704.906V26.618H707.714V26.118ZM705.156 26.368V25.072H704.656V26.368H705.156ZM723.919 31.624L723.69 31.5238L723.689 31.5261L723.919 31.624ZM722.947 33.064L723.119 33.2461L723.122 33.2434L722.947 33.064ZM721.507 33.946L721.421 33.7115L721.419 33.7121L721.507 33.946ZM718.105 33.946L718.017 34.1799L718.105 33.946ZM716.683 33.064L716.509 33.2434L716.512 33.246L716.683 33.064ZM715.693 31.624L715.463 31.7202L715.465 31.726L715.693 31.624ZM715.693 27.484L715.464 27.3838L715.463 27.3861L715.693 27.484ZM716.683 26.026L716.512 25.8441L716.509 25.8466L716.683 26.026ZM718.123 25.126L718.212 25.3599L718.123 25.126ZM721.507 25.126L721.419 25.3599L721.507 25.126ZM722.929 26.026L722.755 26.2054L722.758 26.2079L722.929 26.026ZM723.919 27.484L723.689 27.5802L723.691 27.586L723.919 27.484ZM721.003 32.704L721.096 32.9362L721.1 32.9345L721.003 32.704ZM721.975 32.038L721.795 31.865L721.975 32.038ZM722.623 31.012L722.856 31.1036L722.857 31.1013L722.623 31.012ZM722.623 28.114L722.39 28.2033L722.391 28.2056L722.623 28.114ZM721.003 26.404L720.9 26.6319L720.907 26.6345L721.003 26.404ZM718.627 26.404L718.724 26.6346L718.73 26.6318L718.627 26.404ZM717.007 28.114L717.24 28.2056L717.241 28.2033L717.007 28.114ZM717.007 31.012L716.774 31.1013L716.775 31.1036L717.007 31.012ZM717.655 32.038L717.836 31.865L717.655 32.038ZM718.609 32.704L718.51 32.9336L718.519 32.9371L718.609 32.704ZM724.047 29.644C724.047 30.3597 723.926 30.9846 723.69 31.5238L724.148 31.7242C724.417 31.1114 724.547 30.4163 724.547 29.644H724.047ZM723.689 31.5261C723.461 32.0619 723.156 32.5135 722.773 32.8846L723.122 33.2434C723.555 32.8225 723.897 32.3141 724.149 31.7219L723.689 31.5261ZM722.776 32.882C722.394 33.2418 721.943 33.5185 721.421 33.7115L721.594 34.1805C722.176 33.9655 722.685 33.6542 723.119 33.246L722.776 32.882ZM721.419 33.7121C720.908 33.9053 720.374 34.002 719.815 34.002V34.502C720.433 34.502 721.027 34.3947 721.596 34.1799L721.419 33.7121ZM719.815 34.002C719.244 34.002 718.704 33.905 718.194 33.7121L718.017 34.1799C718.586 34.395 719.186 34.502 719.815 34.502V34.002ZM718.194 33.7121C717.684 33.5194 717.238 33.2427 716.855 32.882L716.512 33.246C716.945 33.6533 717.447 33.9646 718.017 34.1799L718.194 33.7121ZM716.858 32.8846C716.474 32.5126 716.162 32.0595 715.922 31.522L715.465 31.726C715.729 32.3165 716.077 32.8234 716.509 33.2434L716.858 32.8846ZM715.924 31.5278C715.699 30.9876 715.583 30.3612 715.583 29.644H715.083C715.083 30.4148 715.208 31.1084 715.463 31.7202L715.924 31.5278ZM715.583 29.644V29.428H715.083V29.644H715.583ZM715.583 29.428C715.583 28.7232 715.699 28.1095 715.923 27.5819L715.463 27.3861C715.208 27.9865 715.083 28.6688 715.083 29.428H715.583ZM715.922 27.5842C716.163 27.0348 716.475 26.5765 716.858 26.2054L716.509 25.8466C716.076 26.2675 715.728 26.7812 715.464 27.3838L715.922 27.5842ZM716.855 26.2079C717.251 25.8345 717.703 25.5522 718.212 25.3599L718.035 24.8921C717.464 25.1078 716.956 25.4255 716.512 25.8441L716.855 26.2079ZM718.212 25.3599C718.723 25.1667 719.257 25.07 719.815 25.07V24.57C719.198 24.57 718.604 24.6773 718.035 24.8921L718.212 25.3599ZM719.815 25.07C720.374 25.07 720.908 25.1667 721.419 25.3599L721.596 24.8921C721.027 24.6773 720.433 24.57 719.815 24.57V25.07ZM721.419 25.3599C721.928 25.552 722.372 25.8336 722.755 26.2054L723.104 25.8466C722.671 25.4264 722.167 25.108 721.596 24.8921L721.419 25.3599ZM722.758 26.2079C723.15 26.5779 723.461 27.0339 723.689 27.5802L724.15 27.3878C723.898 26.7821 723.549 26.2661 723.101 25.8441L722.758 26.2079ZM723.691 27.586C723.926 28.1125 724.047 28.7247 724.047 29.428H724.547C724.547 28.6673 724.416 27.9835 724.148 27.382L723.691 27.586ZM724.047 29.428V29.644H724.547V29.428H724.047ZM719.815 33.17C720.276 33.17 720.704 33.0932 721.096 32.9361L720.911 32.4719C720.583 32.6028 720.219 32.67 719.815 32.67V33.17ZM721.1 32.9345C721.503 32.7655 721.856 32.524 722.156 32.211L721.795 31.865C721.543 32.128 721.248 32.3305 720.907 32.4735L721.1 32.9345ZM722.156 32.211C722.456 31.898 722.689 31.5278 722.856 31.1036L722.391 30.9204C722.246 31.2882 722.047 31.602 721.795 31.865L722.156 32.211ZM722.857 31.1013C723.025 30.6608 723.107 30.1739 723.107 29.644H722.607C722.607 30.1221 722.533 30.5472 722.39 30.9227L722.857 31.1013ZM723.107 29.644V29.428H722.607V29.644H723.107ZM723.107 29.428C723.107 28.9206 723.025 28.451 722.856 28.0224L722.391 28.2056C722.534 28.569 722.607 28.9754 722.607 29.428H723.107ZM722.857 28.0247C722.69 27.5885 722.457 27.2113 722.156 26.897L721.795 27.243C722.046 27.5047 722.245 27.8235 722.39 28.2033L722.857 28.0247ZM722.156 26.897C721.856 26.584 721.503 26.3425 721.1 26.1735L720.907 26.6345C721.248 26.7775 721.543 26.98 721.795 27.243L722.156 26.897ZM721.106 26.1762C720.701 25.9931 720.27 25.902 719.815 25.902V26.402C720.201 26.402 720.562 26.4789 720.901 26.6318L721.106 26.1762ZM719.815 25.902C719.361 25.902 718.93 25.9931 718.525 26.1762L718.73 26.6318C719.069 26.4789 719.43 26.402 719.815 26.402V25.902ZM718.531 26.1735C718.128 26.3425 717.775 26.584 717.475 26.897L717.836 27.243C718.088 26.98 718.383 26.7775 718.724 26.6345L718.531 26.1735ZM717.475 26.897C717.174 27.2113 716.941 27.5885 716.774 28.0247L717.241 28.2033C717.386 27.8235 717.585 27.5047 717.836 27.243L717.475 26.897ZM716.775 28.0224C716.606 28.451 716.523 28.9206 716.523 29.428H717.023C717.023 28.9754 717.097 28.569 717.24 28.2056L716.775 28.0224ZM716.523 29.428V29.644H717.023V29.428H716.523ZM716.523 29.644C716.523 30.1739 716.605 30.6608 716.774 31.1013L717.241 30.9227C717.097 30.5472 717.023 30.1221 717.023 29.644H716.523ZM716.775 31.1036C716.942 31.5278 717.175 31.898 717.475 32.211L717.836 31.865C717.584 31.602 717.385 31.2882 717.24 30.9204L716.775 31.1036ZM717.475 32.211C717.774 32.5226 718.119 32.7639 718.51 32.9334L718.709 32.4746C718.38 32.3321 718.089 32.1294 717.836 31.865L717.475 32.211ZM718.519 32.9371C718.922 33.0932 719.355 33.17 719.815 33.17V32.67C719.412 32.67 719.041 32.6028 718.7 32.4709L718.519 32.9371ZM745.08 34V34.25H745.33V34H745.08ZM743.568 34H743.318V34.25H743.568V34ZM738.672 28.816V28.566H738.422V28.816H738.672ZM738.672 34V34.25H738.922V34H738.672ZM737.16 34H736.91V34.25H737.16V34ZM737.16 21.4V21.15H736.91V21.4H737.16ZM743.352 21.688L743.26 21.9202L743.265 21.9221L743.352 21.688ZM744.54 22.426L744.364 22.6028L744.367 22.6061L744.54 22.426ZM745.26 23.524L745.026 23.6111L745.029 23.6192L745.26 23.524ZM745.116 26.764L744.899 26.6411L744.896 26.6455L745.116 26.764ZM743.928 27.844L743.823 27.6175L743.678 27.6848V27.844H743.928ZM743.928 28.06H743.678V28.2718L743.887 28.3066L743.928 28.06ZM744.774 28.492L744.588 28.6587L744.774 28.492ZM738.672 27.412H738.422V27.662H738.672V27.412ZM743.37 26.872L743.536 27.0595L743.536 27.0591L743.37 26.872ZM743.37 23.398L743.196 23.5775L743.202 23.5825L743.37 23.398ZM738.672 22.804V22.554H738.422V22.804H738.672ZM745.08 33.75H743.568V34.25H745.08V33.75ZM743.818 34V29.788H743.318V34H743.818ZM743.818 29.788C743.818 29.4405 743.738 29.1341 743.542 28.9053L743.163 29.2307C743.254 29.3379 743.318 29.5115 743.318 29.788H743.818ZM743.542 28.9053C743.328 28.6551 742.985 28.566 742.596 28.566V29.066C742.928 29.066 743.089 29.1449 743.163 29.2307L743.542 28.9053ZM742.596 28.566H738.672V29.066H742.596V28.566ZM738.422 28.816V34H738.922V28.816H738.422ZM738.672 33.75H737.16V34.25H738.672V33.75ZM737.41 34V21.4H736.91V34H737.41ZM737.16 21.65H741.66V21.15H737.16V21.65ZM741.66 21.65C742.284 21.65 742.816 21.7425 743.26 21.9201L743.445 21.4559C742.929 21.2495 742.332 21.15 741.66 21.15V21.65ZM743.265 21.9221C743.717 22.0916 744.081 22.3198 744.364 22.6028L744.717 22.2492C744.376 21.9082 743.948 21.6444 743.44 21.4539L743.265 21.9221ZM744.367 22.6061C744.664 22.8921 744.883 23.2264 745.026 23.611L745.495 23.437C745.326 22.9816 745.065 22.5839 744.714 22.2459L744.367 22.6061ZM745.029 23.6192C745.184 23.996 745.262 24.3955 745.262 24.82H745.762C745.762 24.3325 745.672 23.868 745.492 23.4288L745.029 23.6192ZM745.262 24.82V25.36H745.762V24.82H745.262ZM745.262 25.36C745.262 25.7789 745.145 26.205 744.899 26.6412L745.334 26.8868C745.616 26.387 745.762 25.8771 745.762 25.36H745.262ZM744.896 26.6455C744.673 27.0604 744.32 27.3853 743.823 27.6175L744.034 28.0705C744.617 27.7987 745.056 27.4036 745.337 26.8825L744.896 26.6455ZM743.678 27.844V28.06H744.178V27.844H743.678ZM743.887 28.3066C744.202 28.3591 744.429 28.4808 744.588 28.6587L744.961 28.3253C744.712 28.0472 744.374 27.8809 743.969 27.8134L743.887 28.3066ZM744.588 28.6587C744.738 28.8262 744.83 29.0824 744.83 29.464H745.33C745.33 29.0056 745.219 28.6138 744.961 28.3253L744.588 28.6587ZM744.83 29.464V34H745.33V29.464H744.83ZM738.672 27.662H741.48V27.162H738.672V27.662ZM741.48 27.662C742.36 27.662 743.062 27.4772 743.536 27.0595L743.205 26.6845C742.862 26.9868 742.304 27.162 741.48 27.162V27.662ZM743.536 27.0591C744.023 26.6278 744.25 26.0114 744.25 25.252H743.75C743.75 25.9086 743.558 26.3722 743.205 26.6849L743.536 27.0591ZM744.25 25.252V24.928H743.75V25.252H744.25ZM744.25 24.928C744.25 24.231 744.017 23.6507 743.539 23.2135L743.202 23.5825C743.564 23.9133 743.75 24.353 743.75 24.928H744.25ZM743.545 23.2186C743.071 22.7591 742.366 22.554 741.48 22.554V23.054C742.299 23.054 742.854 23.2449 743.196 23.5774L743.545 23.2186ZM741.48 22.554H738.672V23.054H741.48V22.554ZM738.422 22.804V27.412H738.922V22.804H738.422ZM748.884 29.968V29.718H748.624L748.634 29.9781L748.884 29.968ZM749.712 32.11L749.893 31.9373L749.712 32.11ZM753.762 32.38L753.614 32.1787L753.608 32.1827L753.762 32.38ZM754.302 31.804L754.09 31.6705L754.089 31.6736L754.302 31.804ZM754.644 31.084L754.709 30.8427L754.481 30.7811L754.407 31.0049L754.644 31.084ZM755.976 31.444L756.215 31.5168L756.29 31.27L756.041 31.2027L755.976 31.444ZM754.572 33.478L754.724 33.6763L754.725 33.6759L754.572 33.478ZM750.072 33.928L749.973 34.1576L749.979 34.1601L750.072 33.928ZM748.704 32.974L748.522 33.1453L748.704 32.974ZM747.804 31.516L748.037 31.4266L747.804 31.516ZM747.804 27.466L747.574 27.3687L747.572 27.3732L747.804 27.466ZM748.74 26.08L748.914 26.2595L748.917 26.2568L748.74 26.08ZM750.126 25.162L750.221 25.3934L750.223 25.3923L750.126 25.162ZM753.762 25.234L753.646 25.4556L753.652 25.4586L753.762 25.234ZM755.076 26.224L754.885 26.3858L754.888 26.389L755.076 26.224ZM755.832 27.52L755.595 27.5991L755.597 27.6045L755.832 27.52ZM756.084 29.968V30.218H756.334V29.968H756.084ZM750.756 26.35L750.84 26.5855L750.845 26.5837L750.756 26.35ZM749.856 26.872L749.692 26.6827L749.688 26.6866L749.856 26.872ZM749.226 27.682L749.006 27.5635L749.004 27.5667L749.226 27.682ZM748.92 28.672L748.672 28.639L748.634 28.922H748.92V28.672ZM754.68 28.672V28.922H754.946L754.929 28.6564L754.68 28.672ZM754.392 27.628L754.168 27.7399L754.172 27.7465L754.392 27.628ZM753.762 26.836L753.599 27.0259L753.604 27.0295L753.762 26.836ZM752.88 26.332L752.793 26.5665L752.796 26.5674L752.88 26.332ZM748.634 29.9781C748.672 30.9148 748.965 31.6907 749.531 32.2827L749.893 31.9373C749.426 31.4493 749.168 30.7972 749.134 29.9579L748.634 29.9781ZM749.531 32.2827C750.105 32.8833 750.897 33.17 751.872 33.17V32.67C750.999 32.67 750.351 32.4167 749.893 31.9373L749.531 32.2827ZM751.872 33.17C752.31 33.17 752.702 33.12 753.043 33.0149L752.896 32.5371C752.614 32.624 752.274 32.67 751.872 32.67V33.17ZM753.043 33.0149C753.379 32.9117 753.671 32.7671 753.915 32.5773L753.608 32.1827C753.42 32.3289 753.185 32.4483 752.896 32.5371L753.043 33.0149ZM753.91 32.5813C754.161 32.3963 754.364 32.1811 754.515 31.9344L754.089 31.6736C753.975 31.8589 753.819 32.0277 753.614 32.1787L753.91 32.5813ZM754.513 31.9375C754.668 31.6927 754.791 31.4345 754.881 31.1631L754.407 31.0049C754.329 31.2375 754.224 31.4593 754.091 31.6705L754.513 31.9375ZM754.579 31.3253L755.911 31.6853L756.041 31.2027L754.709 30.8427L754.579 31.3253ZM755.737 31.3712C755.5 32.1496 755.062 32.7839 754.419 33.2801L754.725 33.6759C755.45 33.1161 755.948 32.3944 756.215 31.5168L755.737 31.3712ZM754.42 33.2797C753.805 33.7519 752.952 34.002 751.836 34.002V34.502C753.023 34.502 753.995 34.2361 754.724 33.6763L754.42 33.2797ZM751.836 34.002C751.229 34.002 750.673 33.899 750.165 33.6959L749.979 34.1601C750.551 34.389 751.171 34.502 751.836 34.502V34.002ZM750.171 33.6985C749.673 33.4836 749.246 33.1851 748.886 32.8027L748.522 33.1453C748.93 33.5789 749.414 33.9164 749.973 34.1575L750.171 33.6985ZM748.886 32.8027C748.526 32.4202 748.243 31.9626 748.037 31.4266L747.57 31.6054C747.797 32.1974 748.114 32.7118 748.522 33.1453L748.886 32.8027ZM748.037 31.4266C747.834 30.8947 747.73 30.3015 747.73 29.644H747.23C747.23 30.3545 747.342 31.0093 747.57 31.6054L748.037 31.4266ZM747.73 29.644V29.212H747.23V29.644H747.73ZM747.73 29.212C747.73 28.6175 747.833 28.0672 748.036 27.5588L747.572 27.3732C747.343 27.9448 747.23 28.5585 747.23 29.212H747.73ZM748.034 27.5632C748.25 27.0522 748.543 26.6187 748.914 26.2595L748.566 25.9005C748.144 26.3093 747.814 26.7998 747.574 27.3688L748.034 27.5632ZM748.917 26.2568C749.289 25.8847 749.723 25.5971 750.221 25.3934L750.031 24.9306C749.473 25.1589 748.983 25.4833 748.563 25.9032L748.917 26.2568ZM750.223 25.3923C750.73 25.1781 751.279 25.07 751.872 25.07V24.57C751.217 24.57 750.601 24.6899 750.029 24.9317L750.223 25.3923ZM751.872 25.07C752.573 25.07 753.161 25.202 753.646 25.4556L753.878 25.0124C753.307 24.714 752.635 24.57 751.872 24.57V25.07ZM753.652 25.4586C754.166 25.7098 754.575 26.0199 754.885 26.3857L755.267 26.0623C754.905 25.6361 754.438 25.2862 753.872 25.0094L753.652 25.4586ZM754.888 26.389C755.216 26.7617 755.45 27.1649 755.595 27.5991L756.069 27.4409C755.902 26.9391 755.632 26.4783 755.264 26.059L754.888 26.389ZM755.597 27.6045C755.757 28.052 755.834 28.4551 755.834 28.816H756.334C756.334 28.3849 756.243 27.924 756.067 27.4355L755.597 27.6045ZM755.834 28.816V29.968H756.334V28.816H755.834ZM756.084 29.718H748.884V30.218H756.084V29.718ZM751.872 25.902C751.448 25.902 751.045 25.9728 750.667 26.1163L750.845 26.5837C751.162 26.4632 751.504 26.402 751.872 26.402V25.902ZM750.672 26.1146C750.307 26.2447 749.98 26.4342 749.692 26.6828L750.019 27.0612C750.259 26.8538 750.532 26.6953 750.84 26.5854L750.672 26.1146ZM749.688 26.6866C749.414 26.9346 749.187 27.2274 749.006 27.5635L749.446 27.8005C749.601 27.5126 749.794 27.2654 750.024 27.0574L749.688 26.6866ZM749.004 27.5667C748.834 27.8942 748.724 28.2524 748.672 28.639L749.168 28.705C749.212 28.3716 749.306 28.0698 749.448 27.7973L749.004 27.5667ZM748.92 28.922H754.68V28.422H748.92V28.922ZM754.929 28.6564C754.903 28.2395 754.799 27.8559 754.612 27.5095L754.172 27.7465C754.321 28.0241 754.408 28.3365 754.43 28.6876L754.929 28.6564ZM754.615 27.5162C754.444 27.1734 754.212 26.8813 753.92 26.6425L753.604 27.0295C753.84 27.2227 754.028 27.4586 754.168 27.7398L754.615 27.5162ZM753.925 26.6462C753.648 26.4089 753.327 26.2261 752.964 26.0966L752.796 26.5674C753.105 26.6779 753.372 26.8311 753.599 27.0258L753.925 26.6462ZM752.967 26.0976C752.615 25.9672 752.249 25.902 751.872 25.902V26.402C752.19 26.402 752.497 26.4568 752.793 26.5664L752.967 26.0976ZM766.241 34V34.25H766.455L766.488 34.0388L766.241 34ZM763.649 34L763.401 34.0323L763.43 34.25H763.649V34ZM762.569 25.72L762.817 25.6877L762.789 25.47H762.569V25.72ZM762.353 25.72V25.47H762.134L762.105 25.6877L762.353 25.72ZM761.273 34V34.25H761.493L761.521 34.0323L761.273 34ZM758.681 34L758.434 34.0388L758.468 34.25H758.681V34ZM757.277 25.072V24.822H756.985L757.03 25.1108L757.277 25.072ZM758.717 25.072L758.965 25.0365L758.934 24.822H758.717V25.072ZM759.905 33.352L759.658 33.3875L759.689 33.602H759.905V33.352ZM760.121 33.352V33.602H760.342L760.369 33.3833L760.121 33.352ZM761.165 25.072V24.822H760.945L760.917 25.0407L761.165 25.072ZM763.757 25.072L764.005 25.0407L763.978 24.822H763.757V25.072ZM764.801 33.352L764.553 33.3833L764.581 33.602H764.801V33.352ZM765.017 33.352V33.602H765.234L765.265 33.3875L765.017 33.352ZM766.205 25.072V24.822H765.989L765.958 25.0365L766.205 25.072ZM767.645 25.072L767.892 25.1108L767.938 24.822H767.645V25.072ZM766.241 33.75H763.649V34.25H766.241V33.75ZM763.897 33.9677L762.817 25.6877L762.321 25.7523L763.401 34.0323L763.897 33.9677ZM762.569 25.47H762.353V25.97H762.569V25.47ZM762.105 25.6877L761.025 33.9677L761.521 34.0323L762.601 25.7523L762.105 25.6877ZM761.273 33.75H758.681V34.25H761.273V33.75ZM758.928 33.9612L757.524 25.0332L757.03 25.1108L758.434 34.0388L758.928 33.9612ZM757.277 25.322H758.717V24.822H757.277V25.322ZM758.47 25.1075L759.658 33.3875L760.153 33.3165L758.965 25.0365L758.47 25.1075ZM759.905 33.602H760.121V33.102H759.905V33.602ZM760.369 33.3833L761.413 25.1033L760.917 25.0407L759.873 33.3207L760.369 33.3833ZM761.165 25.322H763.757V24.822H761.165V25.322ZM763.509 25.1033L764.553 33.3833L765.049 33.3207L764.005 25.0407L763.509 25.1033ZM764.801 33.602H765.017V33.102H764.801V33.602ZM765.265 33.3875L766.453 25.1075L765.958 25.0365L764.77 33.3165L765.265 33.3875ZM766.205 25.322H767.645V24.822H766.205V25.322ZM767.398 25.0332L765.994 33.9612L766.488 34.0388L767.892 25.1108L767.398 25.0332ZM775.661 32.488H775.911V32.238H775.661V32.488ZM775.445 32.488V32.238H775.288L775.219 32.3798L775.445 32.488ZM774.239 33.82L774.117 33.6017L774.115 33.6029L774.239 33.82ZM770.999 33.964L770.905 34.1958L770.91 34.1976L770.999 33.964ZM769.667 33.082L769.485 33.2533L769.49 33.2588L769.667 33.082ZM768.785 31.642L769.018 31.5526L768.785 31.642ZM768.785 27.448L768.551 27.3586L768.785 27.448ZM769.667 26.026L769.487 25.852L769.487 25.8521L769.667 26.026ZM774.257 25.234L774.134 25.4521L774.141 25.4555L774.257 25.234ZM775.445 26.476L775.222 26.5897L775.292 26.726H775.445V26.476ZM775.661 26.476V26.726H775.911V26.476H775.661ZM775.661 25.072V24.822H775.411V25.072H775.661ZM777.065 25.072H777.315V24.822H777.065V25.072ZM778.001 32.704H778.251V32.454H778.001V32.704ZM778.001 34V34.25H778.251V34H778.001ZM776.039 33.604L775.858 33.7767L775.862 33.7808L776.039 33.604ZM773.933 32.686L773.833 32.4566L773.831 32.4579L773.933 32.686ZM774.851 32.02L774.663 31.8554L774.851 32.02ZM775.445 30.994L775.68 31.0794L775.681 31.0772L775.445 30.994ZM775.445 28.114L775.209 28.1972L775.21 28.1994L775.445 28.114ZM774.833 27.07L774.645 27.2347L774.649 27.2389L774.833 27.07ZM773.915 26.404L773.806 26.6293L773.815 26.6334L773.915 26.404ZM771.629 26.386L771.731 26.6141L771.629 26.386ZM770.711 27.052L770.527 26.8831L770.526 26.8834L770.711 27.052ZM770.117 28.078L770.352 28.1634L770.353 28.1612L770.117 28.078ZM770.693 32.074L770.509 32.243L770.512 32.2469L770.693 32.074ZM775.661 32.238H775.445V32.738H775.661V32.238ZM775.219 32.3798C774.951 32.9394 774.582 33.342 774.117 33.6017L774.361 34.0383C774.927 33.722 775.363 33.2366 775.67 32.5962L775.219 32.3798ZM774.115 33.6029C773.647 33.87 773.156 34.002 772.637 34.002V34.502C773.246 34.502 773.822 34.346 774.363 34.0371L774.115 33.6029ZM772.637 34.002C772.077 34.002 771.561 33.9106 771.088 33.7304L770.91 34.1976C771.445 34.4014 772.021 34.502 772.637 34.502V34.002ZM771.093 33.7323C770.62 33.5408 770.204 33.2655 769.844 32.9052L769.49 33.2588C769.898 33.6665 770.37 33.9792 770.905 34.1957L771.093 33.7323ZM769.849 32.9108C769.502 32.541 769.224 32.0896 769.018 31.5526L768.551 31.7314C768.778 32.3223 769.088 32.831 769.485 33.2532L769.849 32.9108ZM769.018 31.5526C768.815 31.0229 768.711 30.4003 768.711 29.68H768.211C768.211 30.4477 768.322 31.1331 768.551 31.7314L769.018 31.5526ZM768.711 29.68V29.392H768.211V29.68H768.711ZM768.711 29.392C768.711 28.6843 768.815 28.0675 769.018 27.5374L768.551 27.3586C768.322 27.9565 768.211 28.6357 768.211 29.392H768.711ZM769.018 27.5374C769.224 27.0009 769.501 26.5567 769.846 26.1999L769.487 25.8521C769.089 26.2633 768.778 26.7671 768.551 27.3586L769.018 27.5374ZM769.846 26.2C770.206 25.8287 770.621 25.5485 771.093 25.3577L770.905 24.8943C770.368 25.1115 769.895 25.4313 769.487 25.852L769.846 26.2ZM771.093 25.3577C771.566 25.1662 772.068 25.07 772.601 25.07V24.57C772.006 24.57 771.44 24.6778 770.905 24.8943L771.093 25.3577ZM772.601 25.07C773.174 25.07 773.683 25.1987 774.135 25.452L774.379 25.016C773.847 24.7172 773.252 24.57 772.601 24.57V25.07ZM774.141 25.4555C774.594 25.6928 774.955 26.0663 775.222 26.5897L775.667 26.3623C775.359 25.7577 774.928 25.3032 774.373 25.0125L774.141 25.4555ZM775.445 26.726H775.661V26.226H775.445V26.726ZM775.911 26.476V25.072H775.411V26.476H775.911ZM775.661 25.322H777.065V24.822H775.661V25.322ZM776.815 25.072V32.164H777.315V25.072H776.815ZM776.815 32.164C776.815 32.3764 776.862 32.5824 777.001 32.7362C777.143 32.8951 777.343 32.954 777.551 32.954V32.454C777.435 32.454 777.391 32.4229 777.372 32.4018C777.349 32.3756 777.315 32.3116 777.315 32.164H776.815ZM777.551 32.954H778.001V32.454H777.551V32.954ZM777.751 32.704V34H778.251V32.704H777.751ZM778.001 33.75H777.047V34.25H778.001V33.75ZM777.047 33.75C776.698 33.75 776.428 33.6398 776.216 33.4272L775.862 33.7808C776.178 34.0962 776.579 34.25 777.047 34.25V33.75ZM776.22 33.4314C776.017 33.2195 775.911 32.9479 775.911 32.596H775.411C775.411 33.0601 775.556 33.4605 775.858 33.7766L776.22 33.4314ZM775.911 32.596V32.488H775.411V32.596H775.911ZM772.781 33.17C773.232 33.17 773.652 33.0859 774.035 32.9141L773.831 32.4579C773.518 32.5981 773.169 32.67 772.781 32.67V33.17ZM774.032 32.9154C774.425 32.745 774.762 32.5012 775.039 32.1846L774.663 31.8554C774.436 32.1148 774.16 32.315 773.833 32.4566L774.032 32.9154ZM775.039 32.1846C775.313 31.8711 775.526 31.5016 775.68 31.0794L775.21 30.9086C775.075 31.2784 774.892 31.5929 774.663 31.8554L775.039 32.1846ZM775.681 31.0772C775.835 30.6391 775.911 30.1605 775.911 29.644H775.411C775.411 30.1115 775.342 30.5329 775.209 30.9108L775.681 31.0772ZM775.911 29.644V29.428H775.411V29.644H775.911ZM775.911 29.428C775.911 28.9229 775.835 28.4555 775.68 28.0286L775.21 28.1994C775.343 28.5645 775.411 28.9731 775.411 29.428H775.911ZM775.681 28.0308C775.527 27.5945 775.306 27.2164 775.017 26.9011L774.649 27.2389C774.887 27.4996 775.075 27.8175 775.209 28.1972L775.681 28.0308ZM775.021 26.9054C774.744 26.5888 774.407 26.345 774.014 26.1746L773.815 26.6334C774.142 26.775 774.418 26.9752 774.645 27.2346L775.021 26.9054ZM774.024 26.1789C773.64 25.9936 773.224 25.902 772.781 25.902V26.402C773.153 26.402 773.494 26.4784 773.806 26.6291L774.024 26.1789ZM772.781 25.902C772.329 25.902 771.91 25.9861 771.527 26.1579L771.731 26.6141C772.044 26.4739 772.392 26.402 772.781 26.402V25.902ZM771.527 26.1579C771.147 26.3282 770.813 26.5706 770.527 26.8831L770.895 27.2209C771.137 26.9574 771.415 26.7558 771.731 26.6141L771.527 26.1579ZM770.526 26.8834C770.248 27.1878 770.035 27.5601 769.881 27.9948L770.353 28.1612C770.487 27.7799 770.669 27.4682 770.895 27.2206L770.526 26.8834ZM769.882 27.9926C769.727 28.4195 769.651 28.8869 769.651 29.392H770.151C770.151 28.9371 770.219 28.5285 770.352 28.1634L769.882 27.9926ZM769.651 29.392V29.68H770.151V29.392H769.651ZM769.651 29.68C769.651 30.7429 769.927 31.6082 770.509 32.2429L770.877 31.9051C770.403 31.3878 770.151 30.6571 770.151 29.68H769.651ZM770.512 32.2469C771.104 32.8649 771.868 33.17 772.781 33.17V32.67C771.99 32.67 771.362 32.4111 770.873 31.9011L770.512 32.2469ZM779.338 25.072V24.822H779.088V25.072H779.338ZM782.578 25.072H782.828V24.822H782.578V25.072ZM782.578 26.26H782.328V26.51H782.578V26.26ZM782.794 26.26V26.51H782.954L783.021 26.3651L782.794 26.26ZM783.766 25.18L783.886 25.3998L783.89 25.3971L783.766 25.18ZM787.384 25.702L787.567 25.5309L787.384 25.702ZM788.266 28.276L788.303 28.5234L788.523 28.4911L788.516 28.268L788.266 28.276ZM786.79 28.492H786.54V28.7812L786.827 28.7394L786.79 28.492ZM786.196 26.71L786.025 26.8922L786.028 26.895L786.196 26.71ZM783.766 26.368L783.651 26.1463L783.647 26.1485L783.766 26.368ZM783.1 26.962L782.897 26.8167V26.8167L783.1 26.962ZM782.704 27.844L782.462 27.7834L782.704 27.844ZM782.578 32.704H782.328V32.954H782.578V32.704ZM784.846 32.704H785.096V32.454H784.846V32.704ZM784.846 34V34.25H785.096V34H784.846ZM779.122 34H778.872V34.25H779.122V34ZM779.122 32.704V32.454H778.872V32.704H779.122ZM781.174 32.704V32.954H781.424V32.704H781.174ZM781.174 26.368H781.424V26.118H781.174V26.368ZM779.338 26.368H779.088V26.618H779.338V26.368ZM779.338 25.322H782.578V24.822H779.338V25.322ZM782.328 25.072V26.26H782.828V25.072H782.328ZM782.578 26.51H782.794V26.01H782.578V26.51ZM783.021 26.3651C783.23 25.915 783.519 25.5987 783.886 25.3997L783.647 24.9603C783.174 25.2173 782.815 25.621 782.568 26.1549L783.021 26.3651ZM783.89 25.3971C784.268 25.1811 784.705 25.07 785.206 25.07V24.57C784.628 24.57 784.104 24.6989 783.642 24.9629L783.89 25.3971ZM785.206 25.07C786.046 25.07 786.703 25.3416 787.202 25.8731L787.567 25.5309C786.962 24.8864 786.167 24.57 785.206 24.57V25.07ZM787.202 25.8731C787.698 26.4018 787.982 27.1926 788.016 28.284L788.516 28.268C788.479 27.1034 788.174 26.1782 787.567 25.5309L787.202 25.8731ZM788.23 28.0286L786.754 28.2446L786.827 28.7394L788.303 28.5234L788.23 28.0286ZM787.04 28.492C787.04 27.6317 786.835 26.9531 786.364 26.525L786.028 26.895C786.349 27.1869 786.54 27.6963 786.54 28.492H787.04ZM786.368 26.5278C785.922 26.1094 785.374 25.902 784.738 25.902V26.402C785.255 26.402 785.678 26.5666 786.025 26.8922L786.368 26.5278ZM784.738 25.902C784.334 25.902 783.969 25.9804 783.651 26.1464L783.882 26.5896C784.116 26.4676 784.399 26.402 784.738 26.402V25.902ZM783.647 26.1485C783.348 26.3112 783.098 26.5349 782.897 26.8167L783.304 27.1073C783.462 26.8851 783.656 26.7128 783.886 26.5875L783.647 26.1485ZM782.897 26.8167C782.697 27.0971 782.553 27.4205 782.462 27.7834L782.947 27.9046C783.024 27.5955 783.144 27.3309 783.304 27.1073L782.897 26.8167ZM782.462 27.7834C782.372 28.1412 782.328 28.5217 782.328 28.924H782.828C782.828 28.5583 782.868 28.2188 782.947 27.9046L782.462 27.7834ZM782.328 28.924V32.704H782.828V28.924H782.328ZM782.578 32.954H784.846V32.454H782.578V32.954ZM784.596 32.704V34H785.096V32.704H784.596ZM784.846 33.75H779.122V34.25H784.846V33.75ZM779.372 34V32.704H778.872V34H779.372ZM779.122 32.954H781.174V32.454H779.122V32.954ZM781.424 32.704V26.368H780.924V32.704H781.424ZM781.174 26.118H779.338V26.618H781.174V26.118ZM779.588 26.368V25.072H779.088V26.368H779.588ZM797.416 32.632H797.666V32.382H797.416V32.632ZM797.2 32.632V32.382H797.048L796.978 32.5164L797.2 32.632ZM796.642 33.352L796.475 33.1656L796.47 33.1702L796.642 33.352ZM795.922 33.856L795.81 33.6324L795.806 33.6345L795.922 33.856ZM795.112 34.144L795.061 33.8991L795.051 33.9015L795.112 34.144ZM792.61 33.946L792.518 34.1785L792.61 33.946ZM791.242 33.064L791.065 33.2408L791.068 33.2435L791.242 33.064ZM790.324 31.642L790.09 31.7298L790.092 31.7357L790.324 31.642ZM790.342 27.466L790.574 27.5597L790.574 27.558L790.342 27.466ZM791.26 26.026L791.437 26.2028L791.439 26.2L791.26 26.026ZM795.958 25.234L795.842 25.4556L795.848 25.4586L795.958 25.234ZM797.2 26.476L796.977 26.5897L797.047 26.726H797.2V26.476ZM797.416 26.476V26.726H797.666V26.476H797.416ZM797.416 21.4V21.15H797.166V21.4H797.416ZM798.82 21.4H799.07V21.15H798.82V21.4ZM798.82 34V34.25H799.07V34H798.82ZM797.416 34H797.166V34.25H797.416V34ZM795.598 32.686L795.498 32.4566L795.598 32.686ZM796.534 32.02L796.353 31.847L796.35 31.8511L796.534 32.02ZM797.182 30.994L797.414 31.0856L797.415 31.0833L797.182 30.994ZM797.182 28.114L796.948 28.2033L796.949 28.2056L797.182 28.114ZM796.534 27.07L796.349 27.239L796.353 27.243L796.534 27.07ZM795.58 26.404L795.474 26.6307L795.483 26.6345L795.58 26.404ZM793.24 26.386L793.143 26.1554L793.14 26.1566L793.24 26.386ZM792.286 27.052L792.105 26.879L792.102 26.8831L792.286 27.052ZM791.656 28.078L791.423 27.9863L791.421 27.9926L791.656 28.078ZM791.656 31.03L791.421 31.1155L791.423 31.1216L791.656 31.03ZM792.286 32.056L792.101 32.2251L792.109 32.2328L792.286 32.056ZM793.24 32.704L793.14 32.9335L793.147 32.9361L793.24 32.704ZM797.416 32.382H797.2V32.882H797.416V32.382ZM796.978 32.5164C796.848 32.7662 796.68 32.9821 796.475 33.1657L796.809 33.5383C797.059 33.3139 797.264 33.0498 797.421 32.7476L796.978 32.5164ZM796.47 33.1702C796.272 33.3576 796.052 33.5114 795.81 33.6324L796.034 34.0796C796.32 33.9366 796.58 33.7544 796.813 33.5338L796.47 33.1702ZM795.806 33.6345C795.575 33.7554 795.327 33.8438 795.061 33.8993L795.163 34.3887C795.473 34.3242 795.765 34.2206 796.038 34.0775L795.806 33.6345ZM795.051 33.9015C794.781 33.9691 794.525 34.002 794.284 34.002V34.502C794.571 34.502 794.867 34.4629 795.172 34.3865L795.051 33.9015ZM794.284 34.002C793.713 34.002 793.186 33.905 792.702 33.7135L792.518 34.1785C793.065 34.395 793.655 34.502 794.284 34.502V34.002ZM792.702 33.7135C792.216 33.5215 791.788 33.2455 791.416 32.8845L791.068 33.2435C791.488 33.6505 791.971 33.9625 792.518 34.1785L792.702 33.7135ZM791.419 32.8872C791.061 32.5296 790.773 32.0849 790.556 31.5483L790.092 31.7357C790.331 32.3271 790.655 32.8304 791.065 33.2408L791.419 32.8872ZM790.558 31.5542C790.354 31.0111 790.25 30.3876 790.25 29.68H789.75C789.75 30.4364 789.861 31.1209 790.09 31.7298L790.558 31.5542ZM790.25 29.68V29.392H789.75V29.68H790.25ZM790.25 29.392C790.25 28.6983 790.36 28.089 790.574 27.5597L790.11 27.3723C789.868 27.971 789.75 28.6457 789.75 29.392H790.25ZM790.574 27.558C790.791 27.0093 791.08 26.5595 791.437 26.2028L791.083 25.8492C790.672 26.2605 790.348 26.7707 790.109 27.374L790.574 27.558ZM791.439 26.2C791.798 25.8297 792.219 25.5495 792.702 25.3585L792.518 24.8935C791.969 25.1105 791.489 25.4303 791.08 25.852L791.439 26.2ZM792.702 25.3585C793.187 25.1665 793.702 25.07 794.248 25.07V24.57C793.642 24.57 793.064 24.6775 792.518 24.8935L792.702 25.3585ZM794.248 25.07C794.821 25.07 795.351 25.1988 795.842 25.4556L796.074 25.0124C795.509 24.7172 794.899 24.57 794.248 24.57V25.07ZM795.848 25.4586C796.337 25.6975 796.712 26.0711 796.977 26.5897L797.422 26.3623C797.111 25.7529 796.659 25.2985 796.068 25.0094L795.848 25.4586ZM797.2 26.726H797.416V26.226H797.2V26.726ZM797.666 26.476V21.4H797.166V26.476H797.666ZM797.416 21.65H798.82V21.15H797.416V21.65ZM798.57 21.4V34H799.07V21.4H798.57ZM798.82 33.75H797.416V34.25H798.82V33.75ZM797.666 34V32.632H797.166V34H797.666ZM794.428 33.17C794.88 33.17 795.304 33.0859 795.697 32.9154L795.498 32.4566C795.172 32.5981 794.816 32.67 794.428 32.67V33.17ZM795.697 32.9154C796.089 32.7455 796.43 32.5029 796.718 32.1889L796.35 31.8511C796.109 32.1131 795.826 32.3145 795.498 32.4566L795.697 32.9154ZM796.714 32.193C797.014 31.88 797.247 31.5098 797.414 31.0856L796.949 30.9024C796.804 31.2702 796.605 31.584 796.353 31.847L796.714 32.193ZM797.415 31.0833C797.584 30.6434 797.666 30.1627 797.666 29.644H797.166C797.166 30.1093 797.092 30.5286 796.948 30.9047L797.415 31.0833ZM797.666 29.644V29.428H797.166V29.644H797.666ZM797.666 29.428C797.666 28.9206 797.583 28.451 797.414 28.0224L796.949 28.2056C797.092 28.569 797.166 28.9754 797.166 29.428H797.666ZM797.415 28.0247C797.249 27.5885 797.016 27.2113 796.714 26.897L796.353 27.243C796.604 27.5047 796.803 27.8235 796.948 28.2033L797.415 28.0247ZM796.718 26.9011C796.429 26.5856 796.081 26.343 795.676 26.1735L795.483 26.6345C795.823 26.777 796.111 26.9784 796.35 27.2389L796.718 26.9011ZM795.686 26.1775C795.292 25.9936 794.871 25.902 794.428 25.902V26.402C794.8 26.402 795.148 26.4784 795.474 26.6305L795.686 26.1775ZM794.428 25.902C793.976 25.902 793.547 25.9861 793.143 26.1555L793.337 26.6165C793.677 26.4739 794.04 26.402 794.428 26.402V25.902ZM793.14 26.1566C792.749 26.3261 792.404 26.5674 792.105 26.879L792.466 27.225C792.72 26.9606 793.01 26.7579 793.339 26.6154L793.14 26.1566ZM792.102 26.8831C791.815 27.1956 791.589 27.5644 791.423 27.9864L791.888 28.1696C792.034 27.7996 792.229 27.4844 792.47 27.2209L792.102 26.8831ZM791.421 27.9926C791.266 28.4195 791.19 28.8869 791.19 29.392H791.69C791.69 28.9371 791.758 28.5285 791.891 28.1634L791.421 27.9926ZM791.19 29.392V29.68H791.69V29.392H791.19ZM791.19 29.68C791.19 30.2076 791.265 30.6873 791.421 31.1154L791.891 30.9446C791.758 30.5807 791.69 30.1604 791.69 29.68H791.19ZM791.423 31.1216C791.589 31.5436 791.815 31.9124 792.102 32.2249L792.47 31.8871C792.229 31.6236 792.034 31.3084 791.888 30.9384L791.423 31.1216ZM792.109 32.2328C792.407 32.5311 792.752 32.7649 793.14 32.9334L793.339 32.4746C793.008 32.3311 792.716 32.1329 792.463 31.8792L792.109 32.2328ZM793.147 32.9361C793.54 33.0932 793.968 33.17 794.428 33.17V32.67C794.024 32.67 793.66 32.6028 793.333 32.4719L793.147 32.9361ZM803.559 28.366L803.426 28.5772L803.429 28.5792L803.559 28.366ZM805.575 28.816L805.595 28.5668L805.594 28.5667L805.575 28.816ZM807.951 29.572L807.798 29.7694L807.803 29.773L807.951 29.572ZM808.509 32.65L808.287 32.5351L808.286 32.5382L808.509 32.65ZM807.789 33.514L807.637 33.3158L807.633 33.3188L807.789 33.514ZM806.673 34.054L806.608 33.8125L806.6 33.8149L806.673 34.054ZM803.451 33.982L803.36 34.215L803.367 34.2174L803.451 33.982ZM802.209 33.244L802.036 33.4242L802.043 33.4305L802.209 33.244ZM801.471 32.2L801.241 32.2976L801.242 32.3002L801.471 32.2ZM801.183 31.012L801.124 30.7691L800.921 30.8185L800.934 31.0271L801.183 31.012ZM802.515 30.688L802.764 30.6662L802.739 30.3763L802.456 30.4451L802.515 30.688ZM803.307 32.344L803.14 32.5301L803.143 32.5324L803.307 32.344ZM806.763 32.578L806.898 32.7889L806.899 32.7879L806.763 32.578ZM806.781 30.4L806.662 30.6195L806.781 30.4ZM804.855 29.986L804.838 30.2354L804.838 30.2354L804.855 29.986ZM802.479 29.266L802.331 29.467L802.479 29.266ZM801.921 26.278L802.138 26.4029L802.14 26.3994L801.921 26.278ZM802.641 25.468L802.499 25.2624L802.495 25.2651L802.641 25.468ZM803.685 24.982L803.618 24.7413L803.685 24.982ZM806.439 25.072L806.351 25.3059L806.356 25.3079L806.439 25.072ZM807.555 25.702L807.39 25.8897L807.395 25.8934L807.555 25.702ZM808.239 26.584L808.012 26.6893L808.016 26.6958L808.239 26.584ZM808.563 27.592L808.622 27.8349L808.843 27.7813L808.811 27.5566L808.563 27.592ZM807.231 27.916L806.983 27.9419L807.012 28.2266L807.29 28.1589L807.231 27.916ZM806.529 26.566L806.371 26.7595L806.374 26.7618L806.529 26.566ZM804.225 26.17L804.277 26.4148L804.286 26.4125L804.225 26.17ZM803.181 26.818L803.387 26.9604L803.392 26.9532L803.181 26.818ZM802.769 27.376C802.769 27.8922 802.992 28.3026 803.426 28.5772L803.693 28.1548C803.407 27.9734 803.269 27.7238 803.269 27.376H802.769ZM803.429 28.5792C803.856 28.8413 804.583 28.9932 805.557 29.0653L805.594 28.5667C804.624 28.4948 804.006 28.3467 803.69 28.1528L803.429 28.5792ZM805.555 29.0652C806.575 29.1472 807.312 29.3912 807.798 29.7693L808.105 29.3747C807.511 28.9128 806.664 28.6528 805.595 28.5668L805.555 29.0652ZM807.803 29.773C808.281 30.1262 808.529 30.6454 808.529 31.372H809.029C809.029 30.5146 808.726 29.8338 808.1 29.371L807.803 29.773ZM808.529 31.372V31.48H809.029V31.372H808.529ZM808.529 31.48C808.529 31.8762 808.447 32.2262 808.287 32.5351L808.731 32.7649C808.932 32.3778 809.029 31.9478 809.029 31.48H808.529ZM808.286 32.5382C808.135 32.8388 807.92 33.0977 807.637 33.3158L807.942 33.7122C808.282 33.4503 808.547 33.1332 808.733 32.7618L808.286 32.5382ZM807.633 33.3188C807.365 33.5335 807.025 33.6999 806.608 33.8127L806.739 34.2953C807.209 34.1681 807.614 33.9745 807.945 33.7092L807.633 33.3188ZM806.6 33.8149C806.195 33.9387 805.746 34.002 805.251 34.002V34.502C805.789 34.502 806.288 34.4333 806.746 34.2931L806.6 33.8149ZM805.251 34.002C804.576 34.002 804.006 33.9145 803.535 33.7466L803.367 34.2174C803.905 34.4095 804.535 34.502 805.251 34.502V34.002ZM803.542 33.7491C803.073 33.5661 802.686 33.3346 802.376 33.0575L802.043 33.4305C802.405 33.7534 802.845 34.0139 803.36 34.2149L803.542 33.7491ZM802.383 33.0639C802.081 32.773 801.854 32.4516 801.7 32.0998L801.242 32.3002C801.424 32.7164 801.69 33.091 802.036 33.4241L802.383 33.0639ZM801.701 32.1024C801.544 31.7304 801.455 31.3622 801.433 30.9969L800.934 31.0271C800.96 31.4538 801.063 31.8776 801.241 32.2976L801.701 32.1024ZM801.242 31.2549L802.574 30.9309L802.456 30.4451L801.124 30.7691L801.242 31.2549ZM802.266 30.7098C802.331 31.4507 802.621 32.0637 803.14 32.5301L803.474 32.1579C803.058 31.7843 802.819 31.2933 802.764 30.6662L802.266 30.7098ZM803.143 32.5324C803.667 32.9895 804.355 33.206 805.179 33.206V32.706C804.444 32.706 803.883 32.5145 803.472 32.1556L803.143 32.5324ZM805.179 33.206C805.868 33.206 806.448 33.0748 806.898 32.7889L806.629 32.3671C806.286 32.5852 805.81 32.706 805.179 32.706V33.206ZM806.899 32.7879C807.375 32.48 807.625 32.0367 807.625 31.48H807.125C807.125 31.8593 806.968 32.148 806.627 32.3681L806.899 32.7879ZM807.625 31.48C807.625 30.8976 807.388 30.4463 806.901 30.1805L806.662 30.6195C806.966 30.7857 807.125 31.0544 807.125 31.48H807.625ZM806.901 30.1805C806.455 29.9374 805.768 29.7971 804.872 29.7366L804.838 30.2354C805.719 30.2949 806.315 30.4306 806.662 30.6195L806.901 30.1805ZM804.873 29.7366C803.866 29.6664 803.127 29.4338 802.628 29.065L802.331 29.467C802.936 29.9142 803.781 30.1616 804.838 30.2354L804.873 29.7366ZM802.628 29.065C802.149 28.711 801.901 28.1971 801.901 27.484H801.401C801.401 28.3309 801.706 29.005 802.331 29.467L802.628 29.065ZM801.901 27.484V27.376H801.401V27.484H801.901ZM801.901 27.376C801.901 26.9925 801.983 26.671 802.138 26.4029L801.705 26.1531C801.499 26.509 801.401 26.9195 801.401 27.376H801.901ZM802.14 26.3994C802.302 26.1075 802.517 25.8653 802.787 25.6709L802.495 25.2651C802.165 25.5027 801.901 25.8005 801.703 26.1566L802.14 26.3994ZM802.784 25.6735C803.072 25.4741 803.394 25.3236 803.753 25.2227L803.618 24.7413C803.208 24.8564 802.835 25.0299 802.499 25.2625L802.784 25.6735ZM803.753 25.2227C804.114 25.1212 804.493 25.07 804.891 25.07V24.57C804.45 24.57 804.025 24.6268 803.618 24.7413L803.753 25.2227ZM804.891 25.07C805.456 25.07 805.941 25.1507 806.351 25.3058L806.528 24.8382C806.05 24.6573 805.503 24.57 804.891 24.57V25.07ZM806.356 25.3079C806.775 25.4551 807.118 25.6503 807.39 25.8897L807.72 25.5143C807.393 25.2257 806.991 25.0009 806.522 24.8361L806.356 25.3079ZM807.395 25.8934C807.668 26.1233 807.873 26.3884 808.013 26.6893L808.466 26.4787C808.294 26.1076 808.042 25.7847 807.716 25.5106L807.395 25.8934ZM808.016 26.6958C808.173 27.0103 808.272 27.3206 808.316 27.6274L808.811 27.5566C808.759 27.1914 808.642 26.8297 808.463 26.4722L808.016 26.6958ZM808.504 27.3491L807.172 27.6731L807.29 28.1589L808.622 27.8349L808.504 27.3491ZM807.48 27.8901C807.414 27.2554 807.152 26.7409 806.685 26.3702L806.374 26.7618C806.723 27.0391 806.929 27.4246 806.983 27.9419L807.48 27.8901ZM806.688 26.3725C806.236 26.0031 805.653 25.83 804.963 25.83V26.33C805.569 26.33 806.03 26.4809 806.371 26.7595L806.688 26.3725ZM804.963 25.83C804.691 25.83 804.425 25.8624 804.165 25.9275L804.286 26.4125C804.506 26.3576 804.731 26.33 804.963 26.33V25.83ZM804.174 25.9254C803.922 25.9785 803.691 26.0658 803.485 26.1896L803.742 26.6184C803.896 26.5262 804.073 26.4575 804.277 26.4146L804.174 25.9254ZM803.485 26.1896C803.273 26.3164 803.101 26.4808 802.971 26.6828L803.392 26.9532C803.478 26.8192 803.593 26.7076 803.742 26.6184L803.485 26.1896ZM802.976 26.6757C802.835 26.8791 802.769 27.1164 802.769 27.376H803.269C803.269 27.2036 803.312 27.0689 803.387 26.9603L802.976 26.6757Z" fill="#7C71FC"/>
<defs>
<clipPath id="clip0">
<rect width="116" height="116" fill="white" transform="translate(403)"/>
</clipPath>
<clipPath id="clip1">
<rect width="105.883" height="96.3275" fill="white" transform="translate(1146.28 11.2982) rotate(45)"/>
</clipPath>
</defs>
</svg>
