<svg width="313" height="177" viewBox="0 0 313 177" fill="none" xmlns="http://www.w3.org/2000/svg">
<circle cx="161.5" cy="72.5" r="63.5" fill="#ECE6FE"/>
<g clip-path="url(#clip0)">
<path d="M150.5 64.5948C148.644 64.5948 147.216 63.1668 147.216 61.3103C147.216 59.4539 148.644 58.0259 150.5 58.0259C152.357 58.0259 153.785 59.4539 153.785 61.3103C153.785 63.1668 152.214 64.5948 150.5 64.5948ZM150.5 61.4531H152.071H150.5Z" fill="#7C71FC"/>
<path d="M96.958 62.4052H88.5875C87.7216 62.4052 87 61.9075 87 61.3103C87 60.7132 87.7216 60.2155 88.5875 60.2155H96.958C97.8239 60.2155 98.5455 60.7132 98.5455 61.3103C98.5455 61.9075 97.8239 62.4052 96.958 62.4052Z" fill="#7C71FC"/>
<path d="M212.124 62.4052H203.754C202.888 62.4052 202.166 61.9075 202.166 61.3103C202.166 60.7132 202.888 60.2155 203.754 60.2155H212.124C212.99 60.2155 213.711 60.7132 213.711 61.3103C213.711 61.9075 212.99 62.4052 212.124 62.4052Z" fill="#7C71FC"/>
<path d="M150.5 11.6898C149.903 11.6898 149.405 10.9682 149.405 10.1023V1.5875C149.405 0.721591 149.903 0 150.5 0C151.097 0 151.595 0.721591 151.595 1.5875V9.95795C151.595 10.9682 151.097 11.6898 150.5 11.6898Z" fill="#7C71FC"/>
<path d="M150.5 126.856C149.903 126.856 149.405 126.134 149.405 125.268V116.898C149.405 116.032 149.903 115.31 150.5 115.31C151.097 115.31 151.595 116.032 151.595 116.898V125.268C151.595 126.134 151.097 126.856 150.5 126.856Z" fill="#7C71FC"/>
<circle cx="150.5" cy="63.5" r="62.5" stroke="#7C71FC" stroke-width="2"/>
<path d="M150.5 29.0129V61.3103L129.15 76.0905" stroke="#7C71FC" stroke-width="2" stroke-linecap="round"/>
</g>
<path d="M1.99316 175.5H311.008" stroke="#7C71FC" stroke-width="2" stroke-linecap="round"/>
<defs>
<clipPath id="clip0">
<rect width="127" height="127" fill="white" transform="translate(87)"/>
</clipPath>
</defs>
</svg>
