<svg width="311" height="155" viewBox="0 0 311 155" fill="none" xmlns="http://www.w3.org/2000/svg">
<path d="M1 154L133 154" stroke="#7C71FC" stroke-width="2" stroke-linecap="round"/>
<path d="M143 154L228 154" stroke="#7C71FC" stroke-width="2" stroke-linecap="round"/>
<path d="M238 154L310 154" stroke="#7C71FC" stroke-width="2" stroke-linecap="round"/>
<path d="M143 154L228 154" stroke="#7C71FC" stroke-width="2" stroke-linecap="round"/>
<path d="M143 154L228 154" stroke="#7C71FC" stroke-width="2" stroke-linecap="round"/>
<path d="M143 154L228 154" stroke="#7C71FC" stroke-width="2" stroke-linecap="round"/>
<path d="M211.687 31.372C210.652 30.9649 210.654 29.1138 211.687 28.702C215.298 27.2628 220.658 24.742 223.576 21.5305C226.283 18.551 228.551 12.3533 229.831 8.28744C230.188 7.15148 231.776 7.13101 232.154 8.25863C233.517 12.324 235.902 18.544 238.578 21.5305C241.254 24.5178 246.829 27.18 250.471 28.7012C251.481 29.123 251.464 30.8956 250.446 31.2955C246.79 32.7329 241.191 35.292 238.425 38.3793C235.715 41.4045 233.459 47.4652 232.157 51.5477C231.79 52.7013 230.138 52.6941 229.777 51.5377C228.504 47.4569 226.288 41.4063 223.576 38.3793C220.856 35.3427 215.371 32.8215 211.687 31.372Z" fill="#ECE6FE"/>
<path d="M79 11C79 9.89543 79.8954 9 81 9H98C99.1046 9 100 9.89543 100 11V98H79V11Z" fill="#ECE6FE"/>
<rect x="98" y="19" width="21" height="89" rx="2" fill="#ECE6FE"/>
<rect x="66" y="115" width="17" height="177" rx="2" transform="rotate(-90 66 115)" fill="#ECE6FE"/>
<path d="M177.578 90H60C58.8954 90 58 90.8954 58 92V105C58 106.105 58.8954 107 60 107H235C236.105 107 237 106.105 237 105V92C237 90.8954 236.105 90 235 90H224.588" stroke="#7C71FC" stroke-width="2"/>
<g clip-path="url(#clip0)">
<path d="M208.741 68.8761C211.541 69.3557 214.203 70.7187 216.418 72.9333C217.856 74.372 219.002 76.0862 219.711 77.9642C220.485 79.7605 220.837 81.7033 220.817 83.7285L220.825 83.8657C220.791 87.9068 218.961 91.7414 216.12 94.582C213.361 97.3418 209.526 99.1717 205.485 99.2054L205.412 99.2784C200.941 99.3039 197.341 97.6024 194.69 94.9514C193.26 93.5214 192.121 91.7984 191.34 89.8485C190.558 87.9139 190.141 85.8906 190.153 83.8736C190.251 80.0427 191.652 76.2172 194.704 73.1654C195.434 72.435 196.229 71.7854 197.097 71.1923C197.9 70.5345 198.768 70.1043 199.708 69.729C202.675 68.638 205.85 68.3238 208.741 68.8761ZM191.887 83.8543C191.875 85.7415 192.219 87.5302 192.928 89.2623C193.565 90.921 194.646 92.4249 195.931 93.7098C198.226 96.0047 201.455 97.4961 205.431 97.5445C207.238 97.5327 208.988 97.1081 210.602 96.3676C212.206 95.6346 213.674 94.6031 214.908 93.3695C217.456 90.8212 219.058 87.489 219.091 83.8848L219.091 83.7392C219.094 82.006 218.75 80.2004 218.114 78.5415C217.405 76.9726 216.476 75.4593 215.184 74.1665C213.252 72.2354 210.89 71.0256 208.356 70.5369C205.765 70.121 202.955 70.3617 200.271 71.315C199.55 71.6164 198.829 72.0472 198.025 72.5588C197.303 73.1358 196.573 73.72 195.916 74.3776C193.156 77.1377 191.91 80.5336 191.887 83.8543Z" fill="#7C71FC" stroke="#7C71FC" stroke-width="0.5"/>
<path d="M165.967 85.27C166.04 85.7801 165.61 86.2097 165.099 86.1379L134.291 86.4304C133.788 86.3667 133.425 86.0036 133.434 85.5733C133.428 84.9984 133.792 84.6339 134.301 84.7055L165.111 84.414C165.613 84.4769 165.977 84.8408 165.967 85.27Z" fill="#7C71FC" stroke="#7C71FC" stroke-width="0.5"/>
<path d="M186.001 89C186.218 89.9308 186.356 91.2602 186.776 92.1177C187.202 93.1294 187.63 93.9944 188.195 94.8516C188.696 95.7907 189.414 96.6393 190.133 97.5039C190.99 98.3611 191.782 99.1527 192.647 99.872C193.568 100.663 194.572 101.229 195.583 101.801C196.522 102.302 197.525 102.721 198.609 103.074L198.682 103.147C199.75 103.501 200.762 103.783 201.774 103.918C202.859 104.127 203.863 104.27 204.948 104.187L205.24 104.186C206.608 104.24 208.05 104.091 209.346 103.797C210.651 103.494 211.875 103.128 213.042 102.541L213.189 102.541C214.412 102.028 215.645 101.362 216.732 100.566L216.804 100.638C217.826 99.907 218.841 99.0392 219.709 98.1705C223.784 94.0962 225.697 89.0304 225.724 83.9763C225.747 81.2391 225.185 78.503 224.195 75.9053C223.203 73.4527 221.702 71.0917 219.771 69.1605C216.327 65.717 211.513 63.5162 205.593 63.5534C204.37 63.4994 203.22 63.6474 201.988 63.8767C200.829 64.1625 199.672 64.4652 198.593 64.8317C196.34 65.6468 194.248 66.8821 192.358 68.4815C190.621 69.9425 189.014 71.8254 187.915 73.9249L187.842 73.9978C187.404 74.8738 186.899 75.8136 186.525 76.7545C186.085 77.7596 185.792 78.7808 185.563 79.867C185.497 80.2229 185.131 80.5884 184.695 80.5896L152.153 80.7558C151.65 80.6761 151.295 80.321 151.288 79.8909L151.22 70.0839C149.633 70.0863 148.045 70.1064 146.457 70.1096L146.412 76.1673C146.412 76.6047 146.046 76.9706 145.535 77.0439L142.004 77.0032C141.576 76.9961 141.22 76.6401 141.14 76.1391L141.163 72.9634C139.584 72.9754 137.988 72.9868 136.337 72.9255L136.376 76.8934C136.376 77.3315 136.011 77.6961 135.508 77.762L132.042 77.7853C131.613 77.7948 131.184 77.3662 131.186 76.9289L131.231 70.2886L131.078 70.2967C129.425 70.2353 127.912 70.1658 126.324 70.3313L126.324 89.3173C130.583 89.3571 134.937 89.6181 139.27 89.5843C141.652 89.4978 144.84 89.3379 147.155 89.3173C147.155 90.3045 147.222 90.2954 147.155 89.3173C160.065 89.0147 171.657 89.0918 184.501 89L186.001 89ZM205.604 61.8284C211.954 61.7828 217.278 64.201 221.004 67.927C223.081 70.0035 224.728 72.5105 225.782 75.3185C226.927 78.0536 227.487 80.9356 227.457 83.9729C227.421 89.4564 225.361 94.9436 220.921 99.3829C219.907 100.398 218.9 101.274 217.732 102.005L217.659 102.079C216.427 102.875 215.129 103.606 213.752 104.128C212.447 104.705 211.068 105.227 209.699 105.448C208.249 105.751 206.734 105.973 205.219 105.919L204.936 105.912C203.778 105.922 202.555 105.868 201.478 105.652C200.393 105.444 199.235 105.163 198.087 104.744C196.938 104.31 195.788 103.89 194.777 103.318C193.628 102.753 192.553 101.97 191.542 101.251C190.613 100.468 189.748 99.6029 188.818 98.6732C188.035 97.7434 187.316 96.7329 186.678 95.8029C186.105 94.7912 185.613 93.8609 185.186 92.8499C183.919 89.8496 184.695 90.9884 185.001 91L172.501 90.5265H151.157L146.469 90.6424C146.322 90.6426 146.322 90.6426 146.176 90.6431L146.104 90.5705C143.796 90.5834 141.488 90.5961 139.245 90.6894C134.562 90.7975 129.946 90.8231 125.468 90.7107L125.395 90.7844C124.892 90.7205 124.537 90.3653 124.538 89.9273L124.592 69.4759C124.674 68.9735 124.967 68.5355 125.468 68.5993C127.348 68.4497 129.153 68.5022 131.097 68.5627L132.11 68.5526C132.539 68.5431 132.903 68.907 132.966 69.4089L132.92 76.0504L134.653 76.0468L134.532 72.1432C134.614 71.6416 134.979 71.2765 135.408 71.2666L136.266 71.2657C138.154 71.2537 140.17 71.2416 142.114 71.3014C142.551 71.3004 142.907 71.6556 142.971 72.1585L142.883 75.2687L144.689 75.321L144.735 69.1171C144.735 68.6797 145.092 68.3231 145.668 68.314C147.482 68.3749 149.352 68.3623 151.232 68.3426L152.099 68.3327C152.6 68.4126 152.956 68.7684 152.963 69.1969L153.023 79.0128L183.985 78.858C184.206 77.9267 184.507 77.0588 184.866 76.1191C185.313 75.1051 185.826 74.0114 186.402 73.1429L186.475 73.07C187.582 70.8329 189.327 68.7959 191.291 67.1241C193.247 65.4433 195.558 64.1344 198.021 63.2541C199.254 62.7334 200.404 62.4392 201.708 62.1366C203.005 61.9876 204.309 61.8311 205.604 61.8284Z" fill="#7C71FC"/>
<path d="M147.155 89.3173C144.84 89.3379 141.652 89.4978 139.27 89.5843C134.937 89.6181 130.583 89.3571 126.324 89.3173L126.324 70.3313C127.912 70.1658 129.425 70.2353 131.078 70.2967L131.231 70.2886L131.186 76.9289C131.184 77.3662 131.613 77.7948 132.042 77.7853L135.508 77.762C136.011 77.6961 136.376 77.3315 136.376 76.8934L136.337 72.9255C137.988 72.9868 139.584 72.9754 141.163 72.9634L141.14 76.1391C141.22 76.6401 141.576 76.9961 142.004 77.0032L145.535 77.0439C146.046 76.9706 146.412 76.6047 146.412 76.1673L146.457 70.1096C148.045 70.1064 149.633 70.0863 151.22 70.0839L151.288 79.8909C151.295 80.321 151.65 80.6761 152.153 80.7558L184.695 80.5896C185.131 80.5884 185.497 80.2229 185.563 79.867C185.792 78.7808 186.085 77.7596 186.525 76.7545C186.899 75.8136 187.404 74.8738 187.842 73.9978L187.915 73.9249C189.014 71.8254 190.621 69.9425 192.358 68.4815C194.248 66.8821 196.34 65.6468 198.593 64.8317C199.672 64.4652 200.829 64.1625 201.988 63.8767C203.22 63.6474 204.37 63.4994 205.593 63.5534C211.513 63.5162 216.327 65.717 219.771 69.1605C221.702 71.0917 223.203 73.4527 224.195 75.9053C225.185 78.503 225.747 81.2391 225.724 83.9763C225.697 89.0304 223.784 94.0962 219.709 98.1705C218.841 99.0392 217.826 99.907 216.804 100.638L216.732 100.566C215.645 101.362 214.412 102.028 213.189 102.541L213.042 102.541C211.875 103.128 210.651 103.494 209.346 103.797C208.05 104.091 206.608 104.24 205.24 104.186L204.948 104.187C203.863 104.27 202.859 104.127 201.774 103.918C200.762 103.783 199.75 103.501 198.682 103.147L198.609 103.074C197.525 102.721 196.522 102.302 195.583 101.801C194.572 101.229 193.568 100.663 192.647 99.872C191.782 99.1527 190.99 98.3611 190.133 97.5039C189.414 96.6393 188.696 95.7907 188.195 94.8516C187.63 93.9944 187.202 93.1294 186.776 92.1177C186.356 91.2602 186.218 89.9308 186.001 89L184.501 89C171.657 89.0918 160.065 89.0147 147.155 89.3173ZM147.155 89.3173C147.222 90.2954 147.155 90.3045 147.155 89.3173ZM205.604 61.8284C211.954 61.7828 217.278 64.201 221.004 67.927C223.081 70.0035 224.728 72.5105 225.782 75.3185C226.927 78.0536 227.487 80.9356 227.457 83.9729C227.421 89.4564 225.361 94.9436 220.921 99.3829C219.907 100.398 218.9 101.274 217.732 102.005L217.659 102.079C216.427 102.875 215.129 103.606 213.752 104.128C212.447 104.705 211.068 105.227 209.699 105.448C208.249 105.751 206.734 105.973 205.219 105.919L204.936 105.912C203.778 105.922 202.555 105.868 201.478 105.652C200.393 105.444 199.235 105.163 198.087 104.744C196.938 104.31 195.788 103.89 194.777 103.318C193.628 102.753 192.553 101.97 191.542 101.251C190.613 100.468 189.748 99.6029 188.818 98.6732C188.035 97.7434 187.316 96.7329 186.678 95.8029C186.105 94.7912 185.613 93.8609 185.186 92.8499C183.919 89.8496 184.695 90.9884 185.001 91L172.501 90.5265H151.157L146.469 90.6424C146.322 90.6426 146.322 90.6426 146.176 90.6431L146.104 90.5705C143.796 90.5834 141.488 90.5961 139.245 90.6894C134.562 90.7975 129.946 90.8231 125.468 90.7107L125.395 90.7844C124.892 90.7205 124.537 90.3653 124.538 89.9273L124.592 69.4759C124.674 68.9735 124.967 68.5355 125.468 68.5993C127.348 68.4497 129.153 68.5022 131.097 68.5627L132.11 68.5526C132.539 68.5431 132.903 68.907 132.966 69.4089L132.92 76.0504L134.653 76.0468L134.532 72.1432C134.614 71.6416 134.979 71.2765 135.408 71.2666L136.266 71.2657C138.154 71.2537 140.17 71.2416 142.114 71.3014C142.551 71.3004 142.907 71.6556 142.971 72.1585L142.883 75.2687L144.689 75.321L144.735 69.1171C144.735 68.6797 145.092 68.3231 145.668 68.314C147.482 68.3749 149.352 68.3623 151.232 68.3426L152.099 68.3327C152.6 68.4126 152.956 68.7684 152.963 69.1969L153.023 79.0128L183.985 78.858C184.206 77.9267 184.507 77.0588 184.866 76.1191C185.313 75.1051 185.826 74.0114 186.402 73.1429L186.475 73.07C187.582 70.8329 189.327 68.7959 191.291 67.1241C193.247 65.4433 195.558 64.1344 198.021 63.2541C199.254 62.7334 200.404 62.4392 201.708 62.1366C203.005 61.9876 204.309 61.8311 205.604 61.8284Z" stroke="#7C71FC" stroke-width="0.5"/>
<path d="M192.775 90.1475L217.557 90.1475" stroke="#7C71FC" stroke-width="2" stroke-linecap="round"/>
<path d="M188.404 47.997C186.492 48.8442 184.091 50.1062 182.701 51.6575C181.361 53.1529 180.265 55.6935 179.51 57.7749C179.492 57.8257 179.393 57.9652 179.119 57.9641C178.846 57.963 178.747 57.8226 178.728 57.7709C177.987 55.6919 176.905 53.1547 175.564 51.6575C174.216 50.1529 171.913 48.9253 170.031 48.0835C169.987 48.0638 169.859 47.9527 169.858 47.6399C169.858 47.327 169.986 47.2109 170.033 47.1895C171.887 46.3416 174.139 45.103 175.559 43.54C176.926 42.036 178.042 39.3835 178.792 37.2694C178.812 37.2125 178.904 37.0868 179.145 37.0839C179.386 37.081 179.477 37.2038 179.497 37.2576C180.287 39.3762 181.442 42.0332 182.788 43.5348C184.134 45.037 186.516 46.3273 188.414 47.209C188.463 47.2314 188.573 47.333 188.57 47.6022C188.568 47.8717 188.455 47.9744 188.404 47.997Z" stroke="#7C71FC" stroke-width="2"/>
</g>
<rect x="71" y="1" width="24" height="89" rx="1" stroke="#7C71FC" stroke-width="2"/>
<rect x="95" y="11.0181" width="18" height="79" rx="1" stroke="#7C71FC" stroke-width="2"/>
<path d="M78 72H89" stroke="#7C71FC" stroke-width="2" stroke-linecap="round"/>
<path d="M78 79H89" stroke="#7C71FC" stroke-width="2" stroke-linecap="round"/>
<path d="M242.149 25.9182C240.302 26.6446 237.95 27.6592 235.703 28.8892C233.472 30.11 231.269 31.5827 229.775 33.2507C228.31 34.8857 227.014 37.28 225.934 39.7161C224.846 42.17 223.943 44.7476 223.285 46.8108C223.272 46.8519 223.251 46.8823 223.209 46.9107C223.159 46.9442 223.081 46.9723 222.985 46.9718C222.889 46.9714 222.811 46.9427 222.761 46.9087C222.719 46.8797 222.698 46.8488 222.685 46.8075C222.042 44.7446 221.155 42.1691 220.081 39.7167C219.014 37.2821 217.727 34.8881 216.26 33.2507C214.789 31.6087 212.626 30.1582 210.426 28.9513C208.209 27.7355 205.879 26.7273 204.017 25.9948C203.982 25.9807 203.954 25.9578 203.928 25.9101C203.898 25.8541 203.872 25.7648 203.872 25.6555C203.872 25.4116 203.975 25.3286 204.021 25.3101C205.848 24.5819 208.13 23.5754 210.333 22.3378C212.523 21.1068 214.694 19.6153 216.255 17.8967C217.725 16.2796 219.024 13.8558 220.103 11.3955C221.19 8.91488 222.091 6.3071 222.738 4.25267C222.751 4.20914 222.773 4.17939 222.811 4.15275C222.855 4.12132 222.926 4.09469 223.012 4.0936C223.098 4.09252 223.169 4.11737 223.213 4.14729C223.251 4.17253 223.273 4.20112 223.287 4.24397C223.975 6.29642 224.926 8.90644 226.048 11.3896C227.161 13.8529 228.48 16.2767 229.927 17.8915C231.374 19.5067 233.546 20.9797 235.754 22.2223C237.979 23.4749 240.318 24.5359 242.157 25.3039C242.195 25.3199 242.221 25.3439 242.244 25.3861C242.271 25.4361 242.293 25.5151 242.292 25.6113C242.291 25.7075 242.267 25.7864 242.239 25.8365C242.215 25.879 242.188 25.9029 242.149 25.9182Z" stroke="#7C71FC" stroke-width="2"/>
<defs>
<clipPath id="clip0">
<rect width="105.883" height="96.3275" fill="white" transform="translate(175.281 11.2982) rotate(45)"/>
</clipPath>
</defs>
</svg>
