<svg width="311" height="157" viewBox="0 0 311 157" fill="none" xmlns="http://www.w3.org/2000/svg">
<path d="M86.2637 13.0114C86.2637 10.8022 88.0545 9.01135 90.2637 9.01135H219.687C221.896 9.01135 223.687 10.8022 223.687 13.0114V142.434C223.687 144.644 221.896 146.434 219.687 146.434H90.2637C88.0545 146.434 86.2637 144.644 86.2637 142.434V13.0114Z" fill="#ECE6FE"/>
<rect x="75" y="1" width="135.423" height="135.423" rx="3" stroke="#7C71FC" stroke-width="2"/>
<path d="M177.631 50.6888C177.631 48.8225 179.144 47.3096 181.01 47.3096H195.654C197.52 47.3096 199.033 48.8225 199.033 50.6888V50.6888C199.033 52.5551 197.52 54.0681 195.654 54.0681H181.01C179.144 54.0681 177.631 52.5551 177.631 50.6888V50.6888Z" fill="#A79AFB"/>
<path d="M177.631 87.8606C177.631 85.9943 179.144 84.4814 181.01 84.4814H195.654C197.52 84.4814 199.033 85.9943 199.033 87.8606V87.8606C199.033 89.7269 197.52 91.2399 195.654 91.2399H181.01C179.144 91.2399 177.631 89.7269 177.631 87.8606V87.8606Z" fill="#A79AFB"/>
<path d="M115.678 54.0681H115.172C112.963 54.0681 111.172 55.8589 111.172 58.0681V80.4814C111.172 82.6905 112.963 84.4814 115.172 84.4814H115.678" stroke="#7C71FC" stroke-width="2" stroke-linecap="round"/>
<rect x="95.2754" y="22.4019" width="93.7456" height="93.7456" rx="3" stroke="#7C71FC" stroke-width="2"/>
<path d="M104 136.5H117V153C117 154.657 115.657 156 114 156H107C105.343 156 104 154.657 104 153V136.5Z" stroke="#7C71FC" stroke-width="2"/>
<path d="M168 136.5H181V153C181 154.657 179.657 156 178 156H171C169.343 156 168 154.657 168 153V136.5Z" stroke="#7C71FC" stroke-width="2"/>
<path d="M150 156H310" stroke="#7C71FC" stroke-width="2" stroke-linecap="round"/>
<path d="M24.5 156L132.495 156" stroke="#7C71FC" stroke-width="2" stroke-linecap="round"/>
<path d="M1 156L8 156" stroke="#7C71FC" stroke-width="2" stroke-linecap="round"/>
</svg>
