<svg width="276" height="233" viewBox="0 0 276 233" fill="none" xmlns="http://www.w3.org/2000/svg">
<path fill-rule="evenodd" clip-rule="evenodd" d="M139.016 27.7586C128.601 27.7586 120.157 20.9652 120.157 12.5862V5H157.876V12.5862C157.876 20.9652 149.432 27.7586 139.016 27.7586Z" stroke="#7C71FC" stroke-width="2" stroke-linecap="round" stroke-linejoin="round"/>
<path d="M58.7392 47.5511C50.5663 83.6577 35.5969 118.368 8.41064 134.118" stroke="#7C71FC" stroke-width="2" stroke-linecap="round" stroke-linejoin="round"/>
<path fill-rule="evenodd" clip-rule="evenodd" d="M101.298 27.7586C90.8824 27.7586 82.438 20.9652 82.438 12.5862V5H120.157V12.5862C120.157 20.9652 111.713 27.7586 101.298 27.7586Z" stroke="#7C71FC" stroke-width="2" stroke-linecap="round" stroke-linejoin="round"/>
<path fill-rule="evenodd" clip-rule="evenodd" d="M63.5783 27.7586C53.1631 27.7586 44.7188 20.9652 44.7188 12.5862V5H82.4379V12.5862C82.4379 20.9652 73.9935 27.7586 63.5783 27.7586Z" stroke="#7C71FC" stroke-width="2" stroke-linecap="round" stroke-linejoin="round"/>
<path fill-rule="evenodd" clip-rule="evenodd" d="M25.8596 27.7586C15.4444 27.7586 7 20.9652 7 12.5862V5H44.7191V12.5862C44.7191 20.9652 36.2748 27.7586 25.8596 27.7586Z" stroke="#7C71FC" stroke-width="2" stroke-linecap="round" stroke-linejoin="round"/>
<path fill-rule="evenodd" clip-rule="evenodd" d="M252.175 27.7586C241.759 27.7586 233.315 20.9652 233.315 12.5862V5H271.034V12.5862C271.034 20.9652 262.59 27.7586 252.175 27.7586Z" stroke="#7C71FC" stroke-width="2" stroke-linecap="round" stroke-linejoin="round"/>
<path fill-rule="evenodd" clip-rule="evenodd" d="M214.456 27.7586C204.041 27.7586 195.596 20.9652 195.596 12.5862V5H233.315V12.5862C233.315 20.9652 224.871 27.7586 214.456 27.7586Z" stroke="#7C71FC" stroke-width="2" stroke-linecap="round" stroke-linejoin="round"/>
<path fill-rule="evenodd" clip-rule="evenodd" d="M176.736 27.7586C166.321 27.7586 157.876 20.9652 157.876 12.5862V5H195.596V12.5862C195.596 20.9652 187.151 27.7586 176.736 27.7586Z" stroke="#7C71FC" stroke-width="2" stroke-linecap="round" stroke-linejoin="round"/>
<path opacity="0.8" fill-rule="evenodd" clip-rule="evenodd" d="M7 225H271.034V5H7V225Z" stroke="#7C71FC" stroke-width="2" stroke-linecap="round" stroke-linejoin="round"/>
<path fill-rule="evenodd" clip-rule="evenodd" d="M82.4383 8.7931C82.4383 82.5196 55.6247 133.966 7 133.966V5H82.4383V8.7931Z" stroke="#7C71FC" stroke-width="2" stroke-linecap="round" stroke-linejoin="round"/>
<path fill-rule="evenodd" clip-rule="evenodd" d="M200.311 225H77.7236V209.828C77.7236 205.636 81.9435 202.241 87.1534 202.241H190.881C196.091 202.241 200.311 205.636 200.311 209.828V225Z" stroke="#7C71FC" stroke-width="2" stroke-linecap="round" stroke-linejoin="round"/>
<path fill-rule="evenodd" clip-rule="evenodd" d="M58.8638 225C58.8638 225 65.3468 133.965 7 133.965V225H58.8638Z" stroke="#7C71FC" stroke-width="2" stroke-linecap="round" stroke-linejoin="round"/>
<path fill-rule="evenodd" clip-rule="evenodd" d="M195.596 8.7931C195.596 82.5196 222.41 133.966 271.034 133.966V5H195.596V8.7931Z" stroke="#7C71FC" stroke-width="2" stroke-linecap="round" stroke-linejoin="round"/>
<path fill-rule="evenodd" clip-rule="evenodd" d="M219.17 225C219.17 225 212.687 133.965 271.034 133.965V225H219.17Z" stroke="#7C71FC" stroke-width="2" stroke-linecap="round" stroke-linejoin="round"/>
<path d="M40.0044 225C40.0044 225 41.1265 209.255 38.2363 190.862" stroke="#7C71FC" stroke-width="2" stroke-linecap="round" stroke-linejoin="round"/>
<path d="M252.485 224.292C252.485 224.292 251.363 208.547 254.253 190.154" stroke="#7C71FC" stroke-width="2" stroke-linecap="round" stroke-linejoin="round"/>
<path d="M29.6017 72.0348C26.0172 97.5647 19.4516 122.107 7.52783 133.244" stroke="#7C71FC" stroke-width="2" stroke-linecap="round" stroke-linejoin="round"/>
<path d="M248.575 71.1603C252.16 96.6903 258.725 121.233 270.649 132.37" stroke="#7C71FC" stroke-width="2" stroke-linecap="round" stroke-linejoin="round"/>
<path d="M219.437 46.6766C227.61 82.7832 242.579 117.493 269.766 133.244" stroke="#7C71FC" stroke-width="2" stroke-linecap="round" stroke-linejoin="round"/>
<path d="M124.254 109.738C131.141 107.668 138.321 106.64 145.538 106.688C152.755 106.64 159.935 107.668 166.822 109.738" fill="#CCC3FC"/>
<path d="M166.822 146.336C159.935 148.406 152.755 149.434 145.538 149.386C138.322 149.434 131.141 148.406 124.254 146.336" fill="#CCC3FC"/>
<path d="M156.278 148.657L161.053 157.826C161.371 158.442 161.898 158.936 162.546 159.227C163.195 159.519 163.927 159.59 164.624 159.43C174.368 157.143 182.769 153.156 188.887 148.05C189.355 147.665 189.696 147.158 189.87 146.59C190.044 146.023 190.044 145.419 189.869 144.852L176.377 101.679C176.241 101.244 176.006 100.843 175.688 100.506C175.37 100.169 174.978 99.9044 174.54 99.7313C170.729 98.2332 166.787 97.0617 162.76 96.2305C161.993 96.0691 161.191 96.1856 160.508 96.5576C159.824 96.9296 159.309 97.5309 159.059 98.2458L155.893 107.365" fill="#CCC3FC"/>
<path d="M134.799 148.657L130.023 157.826C129.705 158.442 129.179 158.936 128.53 159.227C127.882 159.519 127.149 159.59 126.453 159.43C116.708 157.143 108.308 153.156 102.189 148.05C101.722 147.665 101.381 147.158 101.207 146.59C101.032 146.023 101.033 145.419 101.208 144.852L114.699 101.679C114.835 101.244 115.071 100.843 115.389 100.506C115.706 100.169 116.098 99.9044 116.536 99.7313C120.348 98.2331 124.29 97.0617 128.316 96.2305C129.083 96.0691 129.886 96.1856 130.569 96.5576C131.252 96.9296 131.768 97.5309 132.017 98.2458L135.183 107.365" fill="#CCC3FC"/>
<path d="M124.254 109.738C131.141 107.668 138.321 106.64 145.538 106.688C152.755 106.64 159.935 107.668 166.822 109.738M166.822 146.336C159.935 148.406 152.755 149.434 145.538 149.386C138.322 149.434 131.141 148.406 124.254 146.336M156.278 148.657L161.053 157.826C161.371 158.442 161.898 158.936 162.546 159.227C163.195 159.519 163.927 159.59 164.624 159.43C174.368 157.143 182.769 153.156 188.887 148.05C189.355 147.665 189.696 147.158 189.87 146.59C190.044 146.023 190.044 145.419 189.869 144.852L176.377 101.679C176.241 101.244 176.006 100.843 175.688 100.506C175.37 100.169 174.978 99.9044 174.54 99.7313C170.729 98.2332 166.787 97.0617 162.76 96.2305C161.993 96.0691 161.191 96.1856 160.508 96.5576C159.824 96.9296 159.309 97.5309 159.059 98.2458L155.893 107.365M134.799 148.657L130.023 157.826C129.705 158.442 129.179 158.936 128.53 159.227C127.882 159.519 127.149 159.59 126.453 159.43C116.708 157.143 108.308 153.156 102.189 148.05C101.722 147.665 101.381 147.158 101.207 146.59C101.032 146.023 101.033 145.419 101.208 144.852L114.699 101.679C114.835 101.244 115.071 100.843 115.389 100.506C115.706 100.169 116.098 99.9044 116.536 99.7313C120.348 98.2331 124.29 97.0617 128.316 96.2305C129.083 96.0691 129.886 96.1856 130.569 96.5576C131.252 96.9296 131.768 97.5309 132.017 98.2458L135.183 107.365" stroke="#CCC3FC" stroke-width="2" stroke-linecap="round" stroke-linejoin="round"/>
<rect x="134.308" y="109.769" width="22.4601" height="36.5366" fill="#CCC3FC" stroke="#CCC3FC"/>
<path d="M125.176 130.028C126.933 130.028 128.357 128.661 128.357 126.974C128.357 125.287 126.933 123.92 125.176 123.92C123.419 123.92 121.995 125.287 121.995 126.974C121.995 128.661 123.419 130.028 125.176 130.028Z" fill="#7C71FC"/>
<path d="M150.627 130.028C152.384 130.028 153.808 128.661 153.808 126.974C153.808 125.287 152.384 123.92 150.627 123.92C148.87 123.92 147.445 125.287 147.445 126.974C147.445 128.661 148.87 130.028 150.627 130.028Z" fill="#7C71FC"/>
<path d="M116.587 102.541C123.484 100.469 130.675 99.4383 137.902 99.4869C145.128 99.4383 152.319 100.469 159.216 102.541" stroke="#7C71FC" stroke-width="2" stroke-linecap="round" stroke-linejoin="round"/>
<path d="M159.215 139.19C152.318 141.263 145.128 142.293 137.901 142.244C130.675 142.293 123.484 141.263 116.587 139.19" stroke="#7C71FC" stroke-width="2" stroke-linecap="round" stroke-linejoin="round"/>
<path d="M148.656 141.514L153.438 150.696C153.756 151.313 154.284 151.807 154.933 152.099C155.582 152.391 156.316 152.463 157.013 152.303C166.772 150.013 175.184 146.019 181.311 140.907C181.779 140.521 182.12 140.013 182.295 139.445C182.469 138.877 182.469 138.272 182.294 137.704L168.784 94.4708C168.647 94.0349 168.411 93.6336 168.093 93.2962C167.775 92.9588 167.382 92.6938 166.944 92.5204C163.127 91.0202 159.179 89.847 155.147 89.0147C154.379 88.8531 153.576 88.9698 152.891 89.3423C152.207 89.7148 151.691 90.3169 151.441 91.0329L148.271 100.164" stroke="#7C71FC" stroke-width="2" stroke-linecap="round" stroke-linejoin="round"/>
<path d="M127.147 141.514L122.365 150.696C122.046 151.313 121.519 151.807 120.87 152.099C120.22 152.391 119.487 152.463 118.789 152.303C109.031 150.013 100.619 146.019 94.492 140.907C94.0241 140.521 93.6824 140.013 93.508 139.445C93.3336 138.877 93.3339 138.272 93.509 137.704L107.019 94.4708C107.156 94.0349 107.392 93.6336 107.71 93.2962C108.028 92.9588 108.421 92.6938 108.859 92.5204C112.676 91.0201 116.623 89.847 120.656 89.0147C121.424 88.8531 122.227 88.9698 122.911 89.3423C123.595 89.7148 124.112 90.3169 124.362 91.0329L127.532 100.164" stroke="#7C71FC" stroke-width="2" stroke-linecap="round" stroke-linejoin="round"/>
</svg>
