<svg width="311" height="180" viewBox="0 0 311 180" fill="none" xmlns="http://www.w3.org/2000/svg">
<ellipse cx="134" cy="151.5" rx="24" ry="11.5" fill="#ECE6FE"/>
<ellipse cx="134" cy="160.5" rx="24" ry="11.5" fill="#ECE6FE"/>
<rect x="110" y="151" width="12" height="11" fill="#ECE6FE"/>
<rect x="146" y="151" width="12" height="11" fill="#ECE6FE"/>
<ellipse cx="175" cy="148.5" rx="24" ry="11.5" fill="#ECE6FE"/>
<ellipse cx="175" cy="157.5" rx="24" ry="11.5" fill="#ECE6FE"/>
<rect x="151" y="148" width="12" height="11" fill="#ECE6FE"/>
<rect x="187" y="148" width="12" height="11" fill="#ECE6FE"/>
<ellipse cx="250.778" cy="140.844" rx="22.0484" ry="11.5" transform="rotate(60 250.778 140.844)" fill="#ECE6FE"/>
<ellipse cx="242.984" cy="145.344" rx="22.0484" ry="11.5" transform="rotate(60 242.984 145.344)" fill="#ECE6FE"/>
<rect x="240.187" y="121.5" width="11.0242" height="11" transform="rotate(60 240.187 121.5)" fill="#ECE6FE"/>
<rect x="256.723" y="150.142" width="11.0242" height="11" transform="rotate(60 256.723 150.142)" fill="#ECE6FE"/>
<ellipse cx="168.5" cy="130.5" rx="22.5" ry="11.5" fill="#ECE6FE"/>
<ellipse cx="168.5" cy="139.5" rx="22.5" ry="11.5" fill="#ECE6FE"/>
<rect x="146" y="130" width="11.25" height="11" fill="#ECE6FE"/>
<rect x="179.75" y="130" width="11.25" height="11" fill="#ECE6FE"/>
<ellipse cx="220" cy="145.5" rx="22" ry="11.5" fill="#ECE6FE"/>
<ellipse cx="220" cy="154.5" rx="22" ry="11.5" fill="#ECE6FE"/>
<rect x="198" y="145" width="11" height="11" fill="#ECE6FE"/>
<rect x="231" y="145" width="11" height="11" fill="#ECE6FE"/>
<ellipse cx="222" cy="135.5" rx="24" ry="11.5" fill="#ECE6FE"/>
<ellipse cx="222" cy="144.5" rx="24" ry="11.5" fill="#ECE6FE"/>
<rect x="198" y="135" width="12" height="11" fill="#ECE6FE"/>
<rect x="234" y="135" width="12" height="11" fill="#ECE6FE"/>
<ellipse cx="222" cy="128.5" rx="24" ry="11.5" fill="#ECE6FE"/>
<ellipse cx="222" cy="137.5" rx="24" ry="11.5" fill="#ECE6FE"/>
<rect x="198" y="128" width="12" height="11" fill="#ECE6FE"/>
<rect x="234" y="128" width="12" height="11" fill="#ECE6FE"/>
<ellipse cx="221.5" cy="117.5" rx="21.5" ry="11.5" fill="#ECE6FE"/>
<ellipse cx="221.5" cy="126.5" rx="21.5" ry="11.5" fill="#ECE6FE"/>
<rect x="200" y="117" width="10.75" height="11" fill="#ECE6FE"/>
<rect x="232.25" y="117" width="10.75" height="11" fill="#ECE6FE"/>
<ellipse cx="215" cy="106.5" rx="22" ry="11.5" fill="#ECE6FE"/>
<ellipse cx="215" cy="115.5" rx="22" ry="11.5" fill="#ECE6FE"/>
<rect x="193" y="106" width="11" height="11" fill="#ECE6FE"/>
<rect x="226" y="106" width="11" height="11" fill="#ECE6FE"/>
<ellipse cx="221.5" cy="87.5" rx="21.5" ry="11.5" fill="#ECE6FE"/>
<ellipse cx="221.5" cy="96.5" rx="21.5" ry="11.5" fill="#ECE6FE"/>
<rect x="200" y="87" width="10.75" height="11" fill="#ECE6FE"/>
<rect x="232.25" y="87" width="10.75" height="11" fill="#ECE6FE"/>
<path d="M260.556 153.681L309.556 153.681" stroke="#7C71FC" stroke-width="2" stroke-linecap="round"/>
<path d="M1 156H86" stroke="#7C71FC" stroke-width="2" stroke-linecap="round"/>
<path d="M237.239 119.873L235.099 119.084C235.324 118.634 235.324 118.07 235.324 117.62C235.324 115.142 232.958 112.664 228.903 110.861L229.804 108.834C234.761 111.087 237.464 114.241 237.464 117.62C237.689 118.408 237.464 119.084 237.239 119.873Z" fill="#7C71FC"/>
<path d="M214.26 129.447C202.996 129.447 193.534 125.618 191.281 120.211L193.309 119.31C195.224 123.815 204.122 127.194 214.148 127.194C214.148 127.194 214.148 127.194 214.26 127.194C217.189 127.194 220.005 126.857 222.821 126.293L223.272 128.546C220.343 129.109 217.302 129.447 214.26 129.447Z" fill="#7C71FC"/>
<path d="M214.373 138.684C201.194 138.684 190.831 133.502 190.831 126.857V118.634H193.084V126.857C193.084 132.038 202.771 136.431 214.261 136.431C217.189 136.431 220.118 136.206 222.934 135.53L223.385 137.783C220.343 138.346 217.302 138.684 214.373 138.684Z" fill="#7C71FC"/>
<path d="M214.486 147.132C214.373 147.132 214.261 147.132 214.261 147.132C201.194 147.132 190.831 141.951 190.831 135.305V127.082H193.084V135.305C193.084 140.486 202.771 144.879 214.261 144.879C217.978 144.879 221.808 144.429 225.412 143.415L225.975 145.555C222.258 146.569 218.428 147.132 214.486 147.132Z" fill="#7C71FC"/>
<path d="M214.936 155.693C214.71 155.693 214.485 155.693 214.147 155.693C201.081 155.693 190.718 150.511 190.718 143.865V135.643H192.971V143.865C192.971 149.047 202.658 153.44 214.147 153.44C219.329 153.553 224.398 152.539 229.129 150.624L230.03 152.652C225.186 154.679 220.117 155.693 214.936 155.693Z" fill="#7C71FC"/>
<path d="M214.261 164.141C201.081 164.141 190.831 158.959 190.831 152.314V144.091H193.084V152.314C193.084 157.495 202.771 161.888 214.261 161.888C222.371 161.888 229.918 159.635 233.41 156.256L234.987 157.833C231.044 161.776 223.047 164.141 214.261 164.141Z" fill="#7C71FC"/>
<path d="M207.727 114.015C194.886 114.015 184.748 108.947 184.748 102.413C184.748 99.034 187.451 95.9927 192.295 93.7399L193.196 95.7674C189.254 97.5697 187.001 99.9352 187.001 102.413C187.001 107.482 196.463 111.763 207.727 111.763C218.991 111.763 228.453 107.482 228.453 102.413C228.453 101.737 228.34 101.174 228.003 100.611L230.03 99.5972C230.481 100.498 230.706 101.512 230.706 102.413C230.706 108.947 220.681 114.015 207.727 114.015Z" fill="#7C71FC"/>
<path d="M207.727 124.139C194.886 124.139 184.748 119.07 184.748 112.537V103.413H187.001V112.537C187.001 117.606 196.463 121.887 207.727 121.887C218.991 121.887 228.453 117.606 228.453 112.537V103.413H230.706V112.537C230.706 119.07 220.681 124.139 207.727 124.139Z" fill="#7C71FC"/>
<path d="M214.711 95.2042C201.758 95.2042 191.732 90.1353 191.732 83.6021C191.732 77.0689 201.758 72 214.711 72C227.553 72 237.69 77.0689 237.69 83.6021C237.69 90.1353 227.553 95.2042 214.711 95.2042ZM214.711 74.2528C203.447 74.2528 193.985 78.5332 193.985 83.6021C193.985 88.671 203.447 92.9514 214.711 92.9514C225.976 92.9514 235.437 88.671 235.437 83.6021C235.437 78.5332 225.863 74.2528 214.711 74.2528Z" fill="#7C71FC"/>
<path d="M214.711 104.216C201.758 104.216 191.732 99.1467 191.732 92.7261V83.6021H193.985V92.7261C193.985 97.795 203.447 102.075 214.711 102.075C225.976 102.075 235.437 97.795 235.437 92.7261V83.6021H237.69V92.7261C237.69 99.1467 227.553 104.216 214.711 104.216Z" fill="#7C71FC"/>
<path d="M253.01 159.748C247.49 159.748 240.168 154.003 234.762 144.879C228.228 133.728 227.552 122.464 233.072 119.197C238.704 115.93 248.166 122.013 254.699 133.164C257.74 138.346 259.655 143.753 259.993 148.484C260.444 153.44 259.092 157.157 256.276 158.847C255.375 159.41 254.249 159.748 253.01 159.748ZM234.311 121.112C229.918 123.703 231.044 134.066 236.789 143.64C242.421 153.327 250.982 159.297 255.262 156.819C257.29 155.693 258.191 152.652 257.853 148.596C257.515 144.203 255.713 139.135 252.784 134.178C247.152 124.604 238.704 118.634 234.311 121.112Z" fill="#7C71FC"/>
<path d="M245.237 164.254C239.717 164.254 232.396 158.509 226.989 149.385C223.947 144.203 222.032 138.797 221.695 134.066C221.244 129.109 222.596 125.392 225.412 123.703L233.297 119.084L234.423 120.999L226.538 125.618C224.511 126.744 223.609 129.785 223.947 133.84C224.285 138.233 226.088 143.302 229.016 148.259C234.648 157.946 243.209 163.916 247.49 161.438L255.374 156.819L256.501 158.734L248.616 163.353C247.602 164.028 246.363 164.254 245.237 164.254Z" fill="#7C71FC"/>
<path d="M102.648 150.193C105.406 154.974 114.041 158.445 124.646 158.568C137.57 158.654 147.665 153.61 147.736 147.197C147.75 140.686 137.753 135.53 124.829 135.444C118.821 135.4 113.181 136.443 108.914 138.515C104.396 140.601 101.852 143.63 101.796 146.913C101.758 147.975 102.029 149.12 102.648 150.193ZM145.458 147.081C145.409 152.18 135.87 156.384 124.706 156.193C113.501 156.156 104.051 151.724 104.059 146.778C104.021 144.459 106.205 142.159 109.886 140.425C113.86 138.522 119.151 137.55 124.908 137.61C136.016 137.703 145.409 142.037 145.458 147.081Z" fill="#7C71FC"/>
<path d="M102.629 159.177C105.388 163.958 114.023 167.428 124.628 167.552C130.636 167.597 136.276 166.553 140.543 164.482C145.061 162.395 147.605 159.366 147.661 156.083L147.721 146.945L145.499 146.926L145.439 156.064C145.477 158.383 143.293 160.684 139.612 162.418C135.638 164.32 130.347 165.292 124.59 165.233C113.385 165.196 103.935 160.764 103.943 155.818L104.002 146.68L101.781 146.662L101.721 155.799C101.642 157.015 102.067 158.201 102.629 159.177Z" fill="#7C71FC"/>
<path d="M168.753 155.693C181.595 155.693 191.732 150.624 191.732 144.091C191.732 140.712 189.029 137.67 184.185 135.417L183.284 137.445C187.227 139.247 189.48 141.613 189.48 144.091C189.48 149.16 180.018 153.44 168.753 153.44C157.489 153.44 148.027 149.16 148.027 144.091C148.027 143.415 148.14 142.852 148.478 142.289L146.45 141.275C146 142.176 145.775 143.19 145.775 144.091C145.775 150.624 155.8 155.693 168.753 155.693Z" fill="#7C71FC"/>
<path d="M168.753 164.817C181.595 164.817 191.732 159.748 191.732 153.215V144.091H189.48V153.215C189.48 158.284 180.018 162.564 168.753 162.564C157.489 162.564 148.027 158.284 148.027 153.215V144.091H145.775V153.215C145.775 159.748 155.8 164.817 168.753 164.817Z" fill="#7C71FC"/>
<path d="M161.769 136.882C174.723 136.882 184.748 131.813 184.748 125.28C184.748 118.746 174.723 113.677 161.769 113.677C148.928 113.677 138.79 118.746 138.79 125.28C138.79 131.813 148.928 136.882 161.769 136.882ZM161.769 115.93C173.033 115.93 182.495 120.211 182.495 125.28C182.495 130.348 173.033 134.629 161.769 134.629C150.505 134.629 141.043 130.348 141.043 125.28C141.043 120.211 150.618 115.93 161.769 115.93Z" fill="#7C71FC"/>
<path d="M161.769 145.893C174.723 145.893 184.748 140.824 184.748 134.404V125.28H182.495V134.404C182.495 139.472 173.033 143.753 161.769 143.753C150.505 143.753 141.043 139.472 141.043 134.404V125.28H138.79V134.404C138.79 140.824 148.928 145.893 161.769 145.893Z" fill="#7C71FC"/>
<rect x="67" y="10" width="167" height="56" rx="4" fill="#ECE6FE"/>
<rect x="58" y="1" width="167" height="53" rx="3" stroke="#7C71FC" stroke-width="2"/>
<path d="M71.58 32.848C72.096 32.848 72.534 32.764 72.894 32.596C73.266 32.416 73.566 32.182 73.794 31.894C74.034 31.594 74.208 31.258 74.316 30.886C74.436 30.502 74.496 30.1 74.496 29.68V29.464H76.008V29.68C76.008 30.316 75.912 30.916 75.72 31.48C75.528 32.032 75.246 32.518 74.874 32.938C74.502 33.346 74.04 33.67 73.488 33.91C72.936 34.138 72.3 34.252 71.58 34.252C70.188 34.252 69.102 33.814 68.322 32.938C67.542 32.062 67.152 30.784 67.152 29.104V26.296C67.152 24.664 67.542 23.398 68.322 22.498C69.102 21.598 70.188 21.148 71.58 21.148C72.3 21.148 72.936 21.268 73.488 21.508C74.04 21.736 74.502 22.06 74.874 22.48C75.246 22.888 75.528 23.374 75.72 23.938C75.912 24.49 76.008 25.084 76.008 25.72V25.936H74.496V25.72C74.484 25.312 74.418 24.916 74.298 24.532C74.19 24.148 74.016 23.812 73.776 23.524C73.548 23.224 73.254 22.99 72.894 22.822C72.534 22.642 72.096 22.552 71.58 22.552C70.608 22.552 69.876 22.906 69.384 23.614C68.904 24.322 68.664 25.252 68.664 26.404V28.996C68.664 30.232 68.904 31.186 69.384 31.858C69.876 32.518 70.608 32.848 71.58 32.848ZM77.7235 25.072H80.9635V26.26H81.1795C81.4075 25.768 81.7315 25.408 82.1515 25.18C82.5715 24.94 83.0515 24.82 83.5915 24.82C84.4915 24.82 85.2175 25.114 85.7695 25.702C86.3215 26.29 86.6155 27.148 86.6515 28.276L85.1755 28.492C85.1755 27.664 84.9775 27.07 84.5815 26.71C84.1855 26.338 83.6995 26.152 83.1235 26.152C82.7515 26.152 82.4275 26.224 82.1515 26.368C81.8875 26.512 81.6655 26.71 81.4855 26.962C81.3055 27.214 81.1735 27.508 81.0895 27.844C81.0055 28.18 80.9635 28.54 80.9635 28.924V32.704H83.2315V34H77.5075V32.704H79.5595V26.368H77.7235V25.072ZM95.369 32.38H95.153C94.865 32.956 94.487 33.412 94.019 33.748C93.551 34.084 92.957 34.252 92.237 34.252C91.745 34.252 91.289 34.168 90.869 34C90.461 33.844 90.107 33.604 89.807 33.28C89.519 32.956 89.291 32.554 89.123 32.074C88.967 31.594 88.889 31.036 88.889 30.4V25.072H90.293V30.22C90.293 31.156 90.485 31.84 90.869 32.272C91.253 32.704 91.841 32.92 92.633 32.92C93.485 32.92 94.151 32.632 94.631 32.056C95.123 31.468 95.369 30.688 95.369 29.716V25.072H96.773V36.196C96.773 36.604 96.641 36.94 96.377 37.204C96.125 37.468 95.795 37.6 95.387 37.6H90.293V36.304H94.883C95.207 36.304 95.369 36.124 95.369 35.764V32.38ZM100.63 37.6H99.2265V25.072H100.63V26.476H100.846C101.158 25.936 101.59 25.528 102.142 25.252C102.694 24.964 103.294 24.82 103.942 24.82C104.494 24.82 105.016 24.922 105.508 25.126C106 25.33 106.432 25.624 106.804 26.008C107.188 26.392 107.488 26.866 107.704 27.43C107.932 27.994 108.046 28.636 108.046 29.356V29.716C108.046 30.448 107.938 31.096 107.722 31.66C107.506 32.224 107.206 32.698 106.822 33.082C106.45 33.466 106.012 33.76 105.508 33.964C105.004 34.156 104.47 34.252 103.906 34.252C103.618 34.252 103.324 34.216 103.024 34.144C102.724 34.084 102.436 33.988 102.16 33.856C101.896 33.712 101.65 33.544 101.422 33.352C101.194 33.148 101.002 32.908 100.846 32.632H100.63V37.6ZM103.618 32.92C104.05 32.92 104.446 32.848 104.806 32.704C105.166 32.548 105.478 32.332 105.742 32.056C106.018 31.78 106.228 31.444 106.372 31.048C106.528 30.652 106.606 30.208 106.606 29.716V29.356C106.606 28.876 106.528 28.444 106.372 28.06C106.228 27.664 106.018 27.328 105.742 27.052C105.478 26.764 105.16 26.542 104.788 26.386C104.428 26.23 104.038 26.152 103.618 26.152C103.198 26.152 102.808 26.236 102.448 26.404C102.088 26.56 101.77 26.782 101.494 27.07C101.23 27.358 101.02 27.706 100.864 28.114C100.708 28.51 100.63 28.948 100.63 29.428V29.644C100.63 30.136 100.708 30.586 100.864 30.994C101.02 31.39 101.23 31.732 101.494 32.02C101.77 32.308 102.088 32.53 102.448 32.686C102.808 32.842 103.198 32.92 103.618 32.92ZM109.906 25.072H112.714V21.4H114.118V25.072H117.574V26.368H114.118V32.164C114.118 32.524 114.28 32.704 114.604 32.704H117.142V34H114.1C113.692 34 113.356 33.868 113.092 33.604C112.84 33.34 112.714 33.004 112.714 32.596V26.368H109.906V25.072ZM129.297 29.644C129.297 30.388 129.171 31.048 128.919 31.624C128.679 32.188 128.355 32.668 127.947 33.064C127.539 33.448 127.059 33.742 126.507 33.946C125.967 34.15 125.403 34.252 124.815 34.252C124.215 34.252 123.645 34.15 123.105 33.946C122.565 33.742 122.091 33.448 121.683 33.064C121.275 32.668 120.945 32.188 120.693 31.624C120.453 31.048 120.333 30.388 120.333 29.644V29.428C120.333 28.696 120.453 28.048 120.693 27.484C120.945 26.908 121.275 26.422 121.683 26.026C122.103 25.63 122.583 25.33 123.123 25.126C123.663 24.922 124.227 24.82 124.815 24.82C125.403 24.82 125.967 24.922 126.507 25.126C127.047 25.33 127.521 25.63 127.929 26.026C128.349 26.422 128.679 26.908 128.919 27.484C129.171 28.048 129.297 28.696 129.297 29.428V29.644ZM124.815 32.92C125.247 32.92 125.643 32.848 126.003 32.704C126.375 32.548 126.699 32.326 126.975 32.038C127.251 31.75 127.467 31.408 127.623 31.012C127.779 30.604 127.857 30.148 127.857 29.644V29.428C127.857 28.948 127.779 28.51 127.623 28.114C127.467 27.706 127.251 27.358 126.975 27.07C126.699 26.782 126.375 26.56 126.003 26.404C125.631 26.236 125.235 26.152 124.815 26.152C124.395 26.152 123.999 26.236 123.627 26.404C123.255 26.56 122.931 26.782 122.655 27.07C122.379 27.358 122.163 27.706 122.007 28.114C121.851 28.51 121.773 28.948 121.773 29.428V29.644C121.773 30.148 121.851 30.604 122.007 31.012C122.163 31.408 122.379 31.75 122.655 32.038C122.931 32.326 123.249 32.548 123.609 32.704C123.981 32.848 124.383 32.92 124.815 32.92ZM150.08 34H148.568V29.788C148.568 29.476 148.496 29.236 148.352 29.068C148.208 28.9 147.956 28.816 147.596 28.816H143.672V34H142.16V21.4H146.66C147.308 21.4 147.872 21.496 148.352 21.688C148.832 21.868 149.228 22.114 149.54 22.426C149.864 22.738 150.104 23.104 150.26 23.524C150.428 23.932 150.512 24.364 150.512 24.82V25.36C150.512 25.828 150.38 26.296 150.116 26.764C149.864 27.232 149.468 27.592 148.928 27.844V28.06C149.288 28.12 149.57 28.264 149.774 28.492C149.978 28.72 150.08 29.044 150.08 29.464V34ZM143.672 27.412H146.48C147.332 27.412 147.962 27.232 148.37 26.872C148.79 26.5 149 25.96 149 25.252V24.928C149 24.292 148.79 23.782 148.37 23.398C147.962 23.002 147.332 22.804 146.48 22.804H143.672V27.412ZM153.884 29.968C153.92 30.856 154.196 31.57 154.712 32.11C155.228 32.65 155.948 32.92 156.872 32.92C157.292 32.92 157.658 32.872 157.97 32.776C158.282 32.68 158.546 32.548 158.762 32.38C158.99 32.212 159.17 32.02 159.302 31.804C159.446 31.576 159.56 31.336 159.644 31.084L160.976 31.444C160.724 32.272 160.256 32.95 159.572 33.478C158.9 33.994 157.988 34.252 156.836 34.252C156.2 34.252 155.612 34.144 155.072 33.928C154.544 33.7 154.088 33.382 153.704 32.974C153.32 32.566 153.02 32.08 152.804 31.516C152.588 30.952 152.48 30.328 152.48 29.644V29.212C152.48 28.588 152.588 28.006 152.804 27.466C153.032 26.926 153.344 26.464 153.74 26.08C154.136 25.684 154.598 25.378 155.126 25.162C155.666 24.934 156.248 24.82 156.872 24.82C157.604 24.82 158.234 24.958 158.762 25.234C159.302 25.498 159.74 25.828 160.076 26.224C160.424 26.62 160.676 27.052 160.832 27.52C161 27.988 161.084 28.42 161.084 28.816V29.968H153.884ZM156.872 26.152C156.476 26.152 156.104 26.218 155.756 26.35C155.42 26.47 155.12 26.644 154.856 26.872C154.604 27.1 154.394 27.37 154.226 27.682C154.07 27.982 153.968 28.312 153.92 28.672H159.68C159.656 28.288 159.56 27.94 159.392 27.628C159.236 27.316 159.026 27.052 158.762 26.836C158.51 26.62 158.216 26.452 157.88 26.332C157.556 26.212 157.22 26.152 156.872 26.152ZM171.241 34H168.649L167.569 25.72H167.353L166.273 34H163.681L162.277 25.072H163.717L164.905 33.352H165.121L166.165 25.072H168.757L169.801 33.352H170.017L171.205 25.072H172.645L171.241 34ZM180.661 32.488H180.445C180.157 33.088 179.755 33.532 179.239 33.82C178.735 34.108 178.201 34.252 177.637 34.252C177.049 34.252 176.503 34.156 175.999 33.964C175.495 33.76 175.051 33.466 174.667 33.082C174.295 32.686 174.001 32.206 173.785 31.642C173.569 31.078 173.461 30.424 173.461 29.68V29.392C173.461 28.66 173.569 28.012 173.785 27.448C174.001 26.884 174.295 26.41 174.667 26.026C175.051 25.63 175.495 25.33 175.999 25.126C176.503 24.922 177.037 24.82 177.601 24.82C178.213 24.82 178.765 24.958 179.257 25.234C179.761 25.498 180.157 25.912 180.445 26.476H180.661V25.072H182.065V32.164C182.065 32.524 182.227 32.704 182.551 32.704H183.001V34H182.047C181.639 34 181.303 33.868 181.039 33.604C180.787 33.34 180.661 33.004 180.661 32.596V32.488ZM177.781 32.92C178.201 32.92 178.585 32.842 178.933 32.686C179.293 32.53 179.599 32.308 179.851 32.02C180.103 31.732 180.301 31.39 180.445 30.994C180.589 30.586 180.661 30.136 180.661 29.644V29.428C180.661 28.948 180.589 28.51 180.445 28.114C180.301 27.706 180.097 27.358 179.833 27.07C179.581 26.782 179.275 26.56 178.915 26.404C178.567 26.236 178.189 26.152 177.781 26.152C177.361 26.152 176.977 26.23 176.629 26.386C176.281 26.542 175.975 26.764 175.711 27.052C175.459 27.328 175.261 27.67 175.117 28.078C174.973 28.474 174.901 28.912 174.901 29.392V29.68C174.901 30.7 175.165 31.498 175.693 32.074C176.233 32.638 176.929 32.92 177.781 32.92ZM184.338 25.072H187.578V26.26H187.794C188.022 25.768 188.346 25.408 188.766 25.18C189.186 24.94 189.666 24.82 190.206 24.82C191.106 24.82 191.832 25.114 192.384 25.702C192.936 26.29 193.23 27.148 193.266 28.276L191.79 28.492C191.79 27.664 191.592 27.07 191.196 26.71C190.8 26.338 190.314 26.152 189.738 26.152C189.366 26.152 189.042 26.224 188.766 26.368C188.502 26.512 188.28 26.71 188.1 26.962C187.92 27.214 187.788 27.508 187.704 27.844C187.62 28.18 187.578 28.54 187.578 28.924V32.704H189.846V34H184.122V32.704H186.174V26.368H184.338V25.072ZM202.416 32.632H202.2C202.056 32.908 201.87 33.148 201.642 33.352C201.426 33.556 201.186 33.724 200.922 33.856C200.67 33.988 200.4 34.084 200.112 34.144C199.824 34.216 199.548 34.252 199.284 34.252C198.684 34.252 198.126 34.15 197.61 33.946C197.094 33.742 196.638 33.448 196.242 33.064C195.858 32.68 195.552 32.206 195.324 31.642C195.108 31.066 195 30.412 195 29.68V29.392C195 28.672 195.114 28.03 195.342 27.466C195.57 26.89 195.876 26.41 196.26 26.026C196.644 25.63 197.094 25.33 197.61 25.126C198.126 24.922 198.672 24.82 199.248 24.82C199.86 24.82 200.43 24.958 200.958 25.234C201.498 25.498 201.912 25.912 202.2 26.476H202.416V21.4H203.82V34H202.416V32.632ZM199.428 32.92C199.848 32.92 200.238 32.842 200.598 32.686C200.958 32.53 201.27 32.308 201.534 32.02C201.81 31.732 202.026 31.39 202.182 30.994C202.338 30.586 202.416 30.136 202.416 29.644V29.428C202.416 28.948 202.338 28.51 202.182 28.114C202.026 27.706 201.81 27.358 201.534 27.07C201.27 26.782 200.952 26.56 200.58 26.404C200.22 26.236 199.836 26.152 199.428 26.152C199.008 26.152 198.612 26.23 198.24 26.386C197.88 26.542 197.562 26.764 197.286 27.052C197.022 27.34 196.812 27.682 196.656 28.078C196.512 28.474 196.44 28.912 196.44 29.392V29.68C196.44 30.184 196.512 30.634 196.656 31.03C196.812 31.426 197.022 31.768 197.286 32.056C197.562 32.332 197.88 32.548 198.24 32.704C198.6 32.848 198.996 32.92 199.428 32.92ZM208.019 27.376C208.019 27.808 208.199 28.138 208.559 28.366C208.931 28.594 209.603 28.744 210.575 28.816C211.619 28.9 212.411 29.152 212.951 29.572C213.503 29.98 213.779 30.58 213.779 31.372V31.48C213.779 31.912 213.689 32.302 213.509 32.65C213.341 32.986 213.101 33.274 212.789 33.514C212.489 33.754 212.117 33.934 211.673 34.054C211.241 34.186 210.767 34.252 210.251 34.252C209.555 34.252 208.955 34.162 208.451 33.982C207.959 33.79 207.545 33.544 207.209 33.244C206.885 32.932 206.639 32.584 206.471 32.2C206.303 31.804 206.207 31.408 206.183 31.012L207.515 30.688C207.575 31.372 207.839 31.924 208.307 32.344C208.775 32.752 209.399 32.956 210.179 32.956C210.839 32.956 211.367 32.83 211.763 32.578C212.171 32.314 212.375 31.948 212.375 31.48C212.375 30.976 212.177 30.616 211.781 30.4C211.385 30.184 210.743 30.046 209.855 29.986C208.823 29.914 208.031 29.674 207.479 29.266C206.927 28.858 206.651 28.264 206.651 27.484V27.376C206.651 26.956 206.741 26.59 206.921 26.278C207.101 25.954 207.341 25.684 207.641 25.468C207.953 25.252 208.301 25.09 208.685 24.982C209.069 24.874 209.471 24.82 209.891 24.82C210.479 24.82 210.995 24.904 211.439 25.072C211.883 25.228 212.255 25.438 212.555 25.702C212.855 25.954 213.083 26.248 213.239 26.584C213.407 26.92 213.515 27.256 213.563 27.592L212.231 27.916C212.171 27.34 211.937 26.89 211.529 26.566C211.133 26.242 210.611 26.08 209.963 26.08C209.711 26.08 209.465 26.11 209.225 26.17C208.997 26.218 208.793 26.296 208.613 26.404C208.433 26.512 208.289 26.65 208.181 26.818C208.073 26.974 208.019 27.16 208.019 27.376Z" fill="#7C71FC"/>
<path d="M72.894 32.596L72.9997 32.8226L73.0029 32.821L72.894 32.596ZM73.794 31.894L73.5988 31.7378L73.598 31.7388L73.794 31.894ZM74.316 30.886L74.0773 30.8114L74.0759 30.8163L74.316 30.886ZM74.496 29.464V29.214H74.246V29.464H74.496ZM76.008 29.464H76.258V29.214H76.008V29.464ZM75.72 31.48L75.9561 31.5621L75.9567 31.5606L75.72 31.48ZM74.874 32.938L75.0588 33.1065L75.0611 33.1038L74.874 32.938ZM73.488 33.91L73.5835 34.1411L73.5877 34.1393L73.488 33.91ZM68.322 32.938L68.5087 32.7718L68.5087 32.7718L68.322 32.938ZM68.322 22.498L68.1331 22.3343L68.1331 22.3343L68.322 22.498ZM73.488 21.508L73.3883 21.7373L73.3926 21.7391L73.488 21.508ZM74.874 22.48L74.6868 22.6458L74.6893 22.6484L74.874 22.48ZM75.72 23.938L75.4833 24.0186L75.4839 24.0201L75.72 23.938ZM76.008 25.936V26.186H76.258V25.936H76.008ZM74.496 25.936H74.246V26.186H74.496V25.936ZM74.496 25.72H74.7461L74.7459 25.7126L74.496 25.72ZM74.298 24.532L74.0572 24.5997L74.0594 24.6066L74.298 24.532ZM73.776 23.524L73.5768 23.6754L73.5839 23.684L73.776 23.524ZM72.894 22.822L72.7822 23.0457L72.7883 23.0485L72.894 22.822ZM69.384 23.614L69.1787 23.4713L69.1771 23.4737L69.384 23.614ZM69.384 31.858L69.1805 32.0033L69.1836 32.0074L69.384 31.858ZM71.58 33.098C72.122 33.098 72.5983 33.0099 72.9997 32.8225L72.7883 32.3695C72.4697 32.5181 72.07 32.598 71.58 32.598V33.098ZM73.0029 32.821C73.4046 32.6267 73.7358 32.3702 73.99 32.0492L73.598 31.7388C73.3962 31.9938 73.1274 32.2053 72.7851 32.371L73.0029 32.821ZM73.9892 32.0502C74.2499 31.7244 74.439 31.3589 74.5561 30.9557L74.0759 30.8163C73.977 31.1571 73.8181 31.4636 73.5988 31.7378L73.9892 32.0502ZM74.5546 30.9606C74.6825 30.5514 74.746 30.1242 74.746 29.68H74.246C74.246 30.0758 74.1895 30.4526 74.0774 30.8114L74.5546 30.9606ZM74.746 29.68V29.464H74.246V29.68H74.746ZM74.496 29.714H76.008V29.214H74.496V29.714ZM75.758 29.464V29.68H76.258V29.464H75.758ZM75.758 29.68C75.758 30.2905 75.6659 30.8631 75.4833 31.3994L75.9567 31.5606C76.1581 30.9689 76.258 30.3415 76.258 29.68H75.758ZM75.4839 31.3979C75.3021 31.9204 75.0363 32.3777 74.6869 32.7722L75.0611 33.1038C75.4557 32.6583 75.7539 32.1436 75.9561 31.5621L75.4839 31.3979ZM74.6893 32.7696C74.3431 33.1492 73.9109 33.4535 73.3883 33.6807L73.5877 34.1393C74.1691 33.8865 74.6609 33.5428 75.0587 33.1064L74.6893 32.7696ZM73.3926 33.6789C72.8764 33.8921 72.2738 34.002 71.58 34.002V34.502C72.3262 34.502 72.9956 34.3839 73.5834 34.1411L73.3926 33.6789ZM71.58 34.002C70.2448 34.002 69.2324 33.5845 68.5087 32.7718L68.1353 33.1042C68.9716 34.0435 70.1312 34.502 71.58 34.502V34.002ZM68.5087 32.7718C67.7841 31.9579 67.402 30.7489 67.402 29.104H66.902C66.902 30.8191 67.2999 32.1661 68.1353 33.1042L68.5087 32.7718ZM67.402 29.104V26.296H66.902V29.104H67.402ZM67.402 26.296C67.402 24.7018 67.7828 23.5019 68.5109 22.6617L68.1331 22.3343C67.3012 23.2941 66.902 24.6262 66.902 26.296H67.402ZM68.5109 22.6617C69.2352 21.826 70.247 21.398 71.58 21.398V20.898C70.129 20.898 68.9688 21.37 68.1331 22.3343L68.5109 22.6617ZM71.58 21.398C72.2723 21.398 72.8733 21.5134 73.3883 21.7373L73.5877 21.2787C72.9987 21.0226 72.3277 20.898 71.58 20.898V21.398ZM73.3926 21.7391C73.9117 21.9535 74.3417 22.256 74.6869 22.6458L75.0611 22.3142C74.6623 21.864 74.1683 21.5185 73.5834 21.2769L73.3926 21.7391ZM74.6893 22.6484C75.0363 23.0291 75.3015 23.4845 75.4833 24.0186L75.9567 23.8574C75.7545 23.2635 75.4557 22.7469 75.0587 22.3116L74.6893 22.6484ZM75.4839 24.0201C75.6659 24.5435 75.758 25.1095 75.758 25.72H76.258C76.258 25.0585 76.1581 24.4365 75.9561 23.8559L75.4839 24.0201ZM75.758 25.72V25.936H76.258V25.72H75.758ZM76.008 25.686H74.496V26.186H76.008V25.686ZM74.746 25.936V25.72H74.246V25.936H74.746ZM74.7459 25.7126C74.7332 25.2822 74.6635 24.8635 74.5366 24.4574L74.0594 24.6066C74.1725 24.9685 74.2348 25.3418 74.2461 25.7273L74.7459 25.7126ZM74.5387 24.4643C74.4218 24.0487 74.232 23.6807 73.9681 23.364L73.5839 23.684C73.8 23.9433 73.9582 24.2473 74.0573 24.5997L74.5387 24.4643ZM73.975 23.3727C73.7212 23.0387 73.3944 22.7796 72.9997 22.5955L72.7883 23.0485C73.1136 23.2004 73.3748 23.4093 73.577 23.6753L73.975 23.3727ZM73.0058 22.5984C72.6027 22.3968 72.1242 22.302 71.58 22.302V22.802C72.0678 22.802 72.4653 22.8872 72.7822 23.0456L73.0058 22.5984ZM71.58 22.302C70.5382 22.302 69.7239 22.6867 69.1787 23.4713L69.5893 23.7567C70.0281 23.1253 70.6778 22.802 71.58 22.802V22.302ZM69.1771 23.4737C68.6608 24.2352 68.414 25.219 68.414 26.404H68.914C68.914 25.285 69.1472 24.4088 69.5909 23.7543L69.1771 23.4737ZM68.414 26.404V28.996H68.914V26.404H68.414ZM68.414 28.996C68.414 30.2596 68.6586 31.2726 69.1806 32.0033L69.5874 31.7127C69.1494 31.0994 68.914 30.2044 68.914 28.996H68.414ZM69.1836 32.0074C69.7316 32.7426 70.5452 33.098 71.58 33.098V32.598C70.6708 32.598 70.0204 32.2934 69.5844 31.7086L69.1836 32.0074ZM77.7235 25.072V24.822H77.4735V25.072H77.7235ZM80.9635 25.072H81.2135V24.822H80.9635V25.072ZM80.9635 26.26H80.7135V26.51H80.9635V26.26ZM81.1795 26.26V26.51H81.3392L81.4063 26.3651L81.1795 26.26ZM82.1515 25.18L82.2708 25.3998L82.2755 25.3971L82.1515 25.18ZM85.7695 25.702L85.9518 25.5309L85.9518 25.5309L85.7695 25.702ZM86.6515 28.276L86.6877 28.5234L86.9085 28.4911L86.9014 28.268L86.6515 28.276ZM85.1755 28.492H84.9255V28.7812L85.2117 28.7394L85.1755 28.492ZM84.5815 26.71L84.4103 26.8922L84.4133 26.895L84.5815 26.71ZM82.1515 26.368L82.0358 26.1463L82.0318 26.1485L82.1515 26.368ZM81.4855 26.962L81.2821 26.8167L81.2821 26.8167L81.4855 26.962ZM81.0895 27.844L80.8469 27.7834L80.8469 27.7834L81.0895 27.844ZM80.9635 32.704H80.7135V32.954H80.9635V32.704ZM83.2315 32.704H83.4815V32.454H83.2315V32.704ZM83.2315 34V34.25H83.4815V34H83.2315ZM77.5075 34H77.2575V34.25H77.5075V34ZM77.5075 32.704V32.454H77.2575V32.704H77.5075ZM79.5595 32.704V32.954H79.8095V32.704H79.5595ZM79.5595 26.368H79.8095V26.118H79.5595V26.368ZM77.7235 26.368H77.4735V26.618H77.7235V26.368ZM77.7235 25.322H80.9635V24.822H77.7235V25.322ZM80.7135 25.072V26.26H81.2135V25.072H80.7135ZM80.9635 26.51H81.1795V26.01H80.9635V26.51ZM81.4063 26.3651C81.6149 25.915 81.9042 25.5987 82.2708 25.3997L82.0322 24.9603C81.5587 25.2173 81.2001 25.621 80.9527 26.1549L81.4063 26.3651ZM82.2755 25.3971C82.6535 25.1811 83.0898 25.07 83.5915 25.07V24.57C83.0131 24.57 82.4895 24.6989 82.0274 24.9629L82.2755 25.3971ZM83.5915 25.07C84.4313 25.07 85.0882 25.3416 85.5872 25.8731L85.9518 25.5309C85.3468 24.8864 84.5517 24.57 83.5915 24.57V25.07ZM85.5872 25.8731C86.0836 26.4018 86.3668 27.1926 86.4016 28.284L86.9014 28.268C86.8642 27.1034 86.5594 26.1782 85.9518 25.5309L85.5872 25.8731ZM86.6153 28.0286L85.1393 28.2446L85.2117 28.7394L86.6877 28.5234L86.6153 28.0286ZM85.4255 28.492C85.4255 27.6317 85.2206 26.9531 84.7497 26.525L84.4133 26.895C84.7344 27.1869 84.9255 27.6963 84.9255 28.492H85.4255ZM84.7527 26.5278C84.3073 26.1094 83.7589 25.902 83.1235 25.902V26.402C83.6401 26.402 84.0636 26.5666 84.4103 26.8922L84.7527 26.5278ZM83.1235 25.902C82.719 25.902 82.3539 25.9804 82.0358 26.1464L82.2671 26.5896C82.5011 26.4676 82.7839 26.402 83.1235 26.402V25.902ZM82.0318 26.1485C81.7336 26.3112 81.4833 26.5349 81.2821 26.8167L81.6889 27.1073C81.8476 26.8851 82.0414 26.7128 82.2712 26.5875L82.0318 26.1485ZM81.2821 26.8167C81.0818 27.0971 80.9377 27.4205 80.8469 27.7834L81.332 27.9046C81.4093 27.5955 81.5292 27.3309 81.6889 27.1073L81.2821 26.8167ZM80.8469 27.7834C80.7575 28.1412 80.7135 28.5217 80.7135 28.924H81.2135C81.2135 28.5583 81.2535 28.2188 81.332 27.9046L80.8469 27.7834ZM80.7135 28.924V32.704H81.2135V28.924H80.7135ZM80.9635 32.954H83.2315V32.454H80.9635V32.954ZM82.9815 32.704V34H83.4815V32.704H82.9815ZM83.2315 33.75H77.5075V34.25H83.2315V33.75ZM77.7575 34V32.704H77.2575V34H77.7575ZM77.5075 32.954H79.5595V32.454H77.5075V32.954ZM79.8095 32.704V26.368H79.3095V32.704H79.8095ZM79.5595 26.118H77.7235V26.618H79.5595V26.118ZM77.9735 26.368V25.072H77.4735V26.368H77.9735ZM95.369 32.38H95.619V32.13H95.369V32.38ZM95.153 32.38V32.13H94.9985L94.9294 32.2682L95.153 32.38ZM94.019 33.748L94.1648 33.9511L94.1648 33.9511L94.019 33.748ZM90.869 34L90.9618 33.7679L90.9583 33.7665L90.869 34ZM89.807 33.28L89.6201 33.4461L89.6235 33.4499L89.807 33.28ZM89.123 32.074L88.8852 32.1513L88.887 32.1566L89.123 32.074ZM88.889 25.072V24.822H88.639V25.072H88.889ZM90.293 25.072H90.543V24.822H90.293V25.072ZM94.631 32.056L94.4392 31.8956L94.4389 31.896L94.631 32.056ZM95.369 25.072V24.822H95.119V25.072H95.369ZM96.773 25.072H97.023V24.822H96.773V25.072ZM96.377 37.204L96.2001 37.0272L96.1961 37.0314L96.377 37.204ZM90.293 37.6H90.043V37.85H90.293V37.6ZM90.293 36.304V36.054H90.043V36.304H90.293ZM95.369 32.13H95.153V32.63H95.369V32.13ZM94.9294 32.2682C94.6573 32.8122 94.3045 33.2353 93.8732 33.5449L94.1648 33.9511C94.6695 33.5887 95.0726 33.0998 95.3766 32.4918L94.9294 32.2682ZM93.8732 33.5449C93.4573 33.8435 92.9179 34.002 92.237 34.002V34.502C92.9961 34.502 93.6447 34.3245 94.1648 33.9511L93.8732 33.5449ZM92.237 34.002C91.774 34.002 91.3498 33.9231 90.9618 33.7679L90.7761 34.2321C91.2281 34.4129 91.716 34.502 92.237 34.502V34.002ZM90.9583 33.7665C90.5865 33.6244 90.2646 33.4063 89.9904 33.1101L89.6235 33.4499C89.9493 33.8017 90.3354 34.0636 90.7797 34.2335L90.9583 33.7665ZM89.9938 33.1139C89.7309 32.8181 89.518 32.4459 89.3589 31.9914L88.887 32.1566C89.0639 32.6621 89.307 33.0939 89.6201 33.4461L89.9938 33.1139ZM89.3607 31.9967C89.2146 31.5472 89.139 31.0163 89.139 30.4H88.639C88.639 31.0557 88.7193 31.6408 88.8852 32.1513L89.3607 31.9967ZM89.139 30.4V25.072H88.639V30.4H89.139ZM88.889 25.322H90.293V24.822H88.889V25.322ZM90.043 25.072V30.22H90.543V25.072H90.043ZM90.043 30.22C90.043 31.1815 90.2387 31.9393 90.6821 32.4381L91.0558 32.1059C90.7312 31.7407 90.543 31.1305 90.543 30.22H90.043ZM90.6821 32.4381C91.1292 32.9411 91.7971 33.17 92.633 33.17V32.67C91.8848 32.67 91.3767 32.4669 91.0558 32.1059L90.6821 32.4381ZM92.633 33.17C93.5478 33.17 94.2887 32.8572 94.823 32.216L94.4389 31.896C94.0132 32.4068 93.4221 32.67 92.633 32.67V33.17ZM94.8227 32.2164C95.3615 31.5725 95.619 30.7306 95.619 29.716H95.119C95.119 30.6454 94.8844 31.3635 94.4392 31.8956L94.8227 32.2164ZM95.619 29.716V25.072H95.119V29.716H95.619ZM95.369 25.322H96.773V24.822H95.369V25.322ZM96.523 25.072V36.196H97.023V25.072H96.523ZM96.523 36.196C96.523 36.5445 96.4127 36.8147 96.2002 37.0272L96.5537 37.3808C96.8692 37.0653 97.023 36.6635 97.023 36.196H96.523ZM96.1961 37.0314C95.9971 37.2399 95.7355 37.35 95.387 37.35V37.85C95.8544 37.85 96.2528 37.6961 96.5578 37.3766L96.1961 37.0314ZM95.387 37.35H90.293V37.85H95.387V37.35ZM90.543 37.6V36.304H90.043V37.6H90.543ZM90.293 36.554H94.883V36.054H90.293V36.554ZM94.883 36.554C95.0907 36.554 95.2903 36.4951 95.4333 36.3362C95.5717 36.1824 95.619 35.9764 95.619 35.764H95.119C95.119 35.9116 95.0852 35.9756 95.0616 36.0018C95.0426 36.0229 94.9992 36.054 94.883 36.054V36.554ZM95.619 35.764V32.38H95.119V35.764H95.619ZM100.63 37.6V37.85H100.88V37.6H100.63ZM99.2265 37.6H98.9765V37.85H99.2265V37.6ZM99.2265 25.072V24.822H98.9765V25.072H99.2265ZM100.63 25.072H100.88V24.822H100.63V25.072ZM100.63 26.476H100.38V26.726H100.63V26.476ZM100.846 26.476V26.726H100.991L101.063 26.6011L100.846 26.476ZM102.142 25.252L102.254 25.4756L102.258 25.4736L102.142 25.252ZM106.804 26.008L106.625 26.182L106.628 26.1848L106.804 26.008ZM107.704 27.43L107.471 27.5194L107.473 27.5237L107.704 27.43ZM107.722 31.66L107.489 31.5706L107.489 31.5706L107.722 31.66ZM106.822 33.082L106.646 32.9052L106.643 32.9081L106.822 33.082ZM105.508 33.964L105.597 34.1977L105.602 34.1957L105.508 33.964ZM103.024 34.144L103.083 33.9007L103.073 33.8989L103.024 34.144ZM102.16 33.856L102.041 34.0758L102.053 34.0815L102.16 33.856ZM101.422 33.352L101.256 33.5384L101.261 33.5432L101.422 33.352ZM100.846 32.632L101.064 32.509L100.992 32.382H100.846V32.632ZM100.63 32.632V32.382H100.38V32.632H100.63ZM104.806 32.704L104.899 32.9362L104.906 32.9334L104.806 32.704ZM105.742 32.056L105.566 31.8792L105.562 31.8832L105.742 32.056ZM106.372 31.048L106.14 30.9563L106.138 30.9626L106.372 31.048ZM106.372 28.06L106.137 28.1455L106.141 28.1541L106.372 28.06ZM105.742 27.052L105.558 27.2211L105.566 27.2288L105.742 27.052ZM104.788 26.386L104.689 26.6154L104.692 26.6165L104.788 26.386ZM102.448 26.404L102.548 26.6335L102.554 26.6305L102.448 26.404ZM101.494 27.07L101.314 26.897L101.31 26.9011L101.494 27.07ZM100.864 28.114L101.097 28.2056L101.098 28.2033L100.864 28.114ZM100.864 30.994L100.631 31.0833L100.632 31.0856L100.864 30.994ZM101.494 32.02L101.31 32.189L101.314 32.193L101.494 32.02ZM102.448 32.686L102.548 32.4566L102.548 32.4566L102.448 32.686ZM100.63 37.35H99.2265V37.85H100.63V37.35ZM99.4765 37.6V25.072H98.9765V37.6H99.4765ZM99.2265 25.322H100.63V24.822H99.2265V25.322ZM100.38 25.072V26.476H100.88V25.072H100.38ZM100.63 26.726H100.846V26.226H100.63V26.726ZM101.063 26.6011C101.351 26.103 101.747 25.7295 102.254 25.4756L102.031 25.0284C101.434 25.3265 100.966 25.769 100.63 26.3509L101.063 26.6011ZM102.258 25.4736C102.773 25.205 103.333 25.07 103.942 25.07V24.57C103.256 24.57 102.616 24.723 102.027 25.0304L102.258 25.4736ZM103.942 25.07C104.463 25.07 104.952 25.166 105.413 25.3569L105.604 24.8951C105.081 24.678 104.526 24.57 103.942 24.57V25.07ZM105.413 25.3569C105.873 25.5478 106.277 25.8224 106.625 26.1819L106.984 25.8341C106.588 25.4256 106.128 25.1122 105.604 24.8951L105.413 25.3569ZM106.628 26.1848C106.984 26.5413 107.266 26.9845 107.471 27.5194L107.938 27.3406C107.711 26.7475 107.393 26.2427 106.981 25.8312L106.628 26.1848ZM107.473 27.5237C107.687 28.053 107.796 28.6623 107.796 29.356H108.296C108.296 28.6097 108.178 27.935 107.936 27.3363L107.473 27.5237ZM107.796 29.356V29.716H108.296V29.356H107.796ZM107.796 29.716C107.796 30.4237 107.692 31.0405 107.489 31.5706L107.956 31.7494C108.185 31.1515 108.296 30.4723 108.296 29.716H107.796ZM107.489 31.5706C107.284 32.1055 107.002 32.5487 106.646 32.9052L106.999 33.2588C107.411 32.8473 107.729 32.3425 107.956 31.7494L107.489 31.5706ZM106.643 32.9081C106.296 33.2666 105.887 33.5411 105.415 33.7323L105.602 34.1957C106.138 33.9789 106.605 33.6654 107.002 33.2559L106.643 32.9081ZM105.419 33.7304C104.945 33.9111 104.441 34.002 103.906 34.002V34.502C104.499 34.502 105.064 34.4009 105.597 34.1976L105.419 33.7304ZM103.906 34.002C103.639 34.002 103.365 33.9686 103.083 33.9009L102.966 34.3871C103.284 34.4634 103.597 34.502 103.906 34.502V34.002ZM103.073 33.8989C102.794 33.8429 102.526 33.7535 102.268 33.6305L102.053 34.0815C102.347 34.2225 102.655 34.3251 102.975 34.3891L103.073 33.8989ZM102.28 33.6365C102.031 33.5005 101.799 33.3419 101.583 33.1608L101.261 33.5432C101.502 33.7461 101.762 33.9235 102.041 34.0755L102.28 33.6365ZM101.589 33.1657C101.382 32.9805 101.207 32.7621 101.064 32.509L100.629 32.755C100.798 33.0539 101.007 33.3155 101.256 33.5383L101.589 33.1657ZM100.846 32.382H100.63V32.882H100.846V32.382ZM100.38 32.632V37.6H100.88V32.632H100.38ZM103.618 33.17C104.079 33.17 104.507 33.0932 104.899 32.9361L104.714 32.4719C104.386 32.6028 104.022 32.67 103.618 32.67V33.17ZM104.906 32.9334C105.296 32.7645 105.635 32.5296 105.923 32.2288L105.562 31.8832C105.321 32.1344 105.037 32.3315 104.707 32.4746L104.906 32.9334ZM105.919 32.2328C106.223 31.9289 106.452 31.561 106.607 31.1334L106.138 30.9626C106.005 31.327 105.814 31.6311 105.566 31.8792L105.919 32.2328ZM106.605 31.1396C106.774 30.7103 106.856 30.2345 106.856 29.716H106.356C106.356 30.1815 106.283 30.5937 106.14 30.9564L106.605 31.1396ZM106.856 29.716V29.356H106.356V29.716H106.856ZM106.856 29.356C106.856 28.8488 106.774 28.3841 106.604 27.9659L106.141 28.1541C106.283 28.5039 106.356 28.9032 106.356 29.356H106.856ZM106.607 27.9746C106.452 27.547 106.223 27.1791 105.919 26.8752L105.566 27.2288C105.814 27.4769 106.005 27.781 106.138 28.1454L106.607 27.9746ZM105.927 26.8831C105.638 26.5676 105.289 26.325 104.885 26.1555L104.692 26.6165C105.032 26.759 105.319 26.9604 105.558 27.2209L105.927 26.8831ZM104.888 26.1566C104.494 25.9861 104.07 25.902 103.618 25.902V26.402C104.007 26.402 104.363 26.4739 104.689 26.6154L104.888 26.1566ZM103.618 25.902C103.164 25.902 102.738 25.9931 102.343 26.1775L102.554 26.6305C102.879 26.4789 103.233 26.402 103.618 26.402V25.902ZM102.349 26.1746C101.958 26.3441 101.613 26.5854 101.314 26.897L101.675 27.243C101.928 26.9786 102.219 26.7759 102.548 26.6334L102.349 26.1746ZM101.31 26.9011C101.023 27.2149 100.797 27.5908 100.631 28.0247L101.098 28.2033C101.244 27.8212 101.438 27.5011 101.679 27.2389L101.31 26.9011ZM100.632 28.0224C100.463 28.451 100.38 28.9206 100.38 29.428H100.88C100.88 28.9754 100.954 28.569 101.097 28.2056L100.632 28.0224ZM100.38 29.428V29.644H100.88V29.428H100.38ZM100.38 29.644C100.38 30.1627 100.463 30.6434 100.631 31.0833L101.098 30.9047C100.954 30.5286 100.88 30.1093 100.88 29.644H100.38ZM100.632 31.0856C100.798 31.5076 101.024 31.8764 101.31 32.1889L101.679 31.8511C101.437 31.5876 101.243 31.2724 101.097 30.9024L100.632 31.0856ZM101.314 32.193C101.613 32.5046 101.958 32.7459 102.349 32.9154L102.548 32.4566C102.219 32.3141 101.928 32.1114 101.675 31.847L101.314 32.193ZM102.349 32.9154C102.743 33.0859 103.167 33.17 103.618 33.17V32.67C103.23 32.67 102.874 32.5981 102.548 32.4566L102.349 32.9154ZM109.906 25.072V24.822H109.656V25.072H109.906ZM112.714 25.072V25.322H112.964V25.072H112.714ZM112.714 21.4V21.15H112.464V21.4H112.714ZM114.118 21.4H114.368V21.15H114.118V21.4ZM114.118 25.072H113.868V25.322H114.118V25.072ZM117.574 25.072H117.824V24.822H117.574V25.072ZM117.574 26.368V26.618H117.824V26.368H117.574ZM114.118 26.368V26.118H113.868V26.368H114.118ZM117.142 32.704H117.392V32.454H117.142V32.704ZM117.142 34V34.25H117.392V34H117.142ZM113.092 33.604L112.911 33.7767L112.915 33.7808L113.092 33.604ZM112.714 26.368H112.964V26.118H112.714V26.368ZM109.906 26.368H109.656V26.618H109.906V26.368ZM109.906 25.322H112.714V24.822H109.906V25.322ZM112.964 25.072V21.4H112.464V25.072H112.964ZM112.714 21.65H114.118V21.15H112.714V21.65ZM113.868 21.4V25.072H114.368V21.4H113.868ZM114.118 25.322H117.574V24.822H114.118V25.322ZM117.324 25.072V26.368H117.824V25.072H117.324ZM117.574 26.118H114.118V26.618H117.574V26.118ZM113.868 26.368V32.164H114.368V26.368H113.868ZM113.868 32.164C113.868 32.3764 113.915 32.5824 114.054 32.7362C114.197 32.8951 114.396 32.954 114.604 32.954V32.454C114.488 32.454 114.444 32.4229 114.425 32.4018C114.402 32.3756 114.368 32.3116 114.368 32.164H113.868ZM114.604 32.954H117.142V32.454H114.604V32.954ZM116.892 32.704V34H117.392V32.704H116.892ZM117.142 33.75H114.1V34.25H117.142V33.75ZM114.1 33.75C113.751 33.75 113.481 33.6398 113.269 33.4272L112.915 33.7808C113.231 34.0962 113.632 34.25 114.1 34.25V33.75ZM113.273 33.4314C113.071 33.2195 112.964 32.9479 112.964 32.596H112.464C112.464 33.0601 112.609 33.4605 112.911 33.7766L113.273 33.4314ZM112.964 32.596V26.368H112.464V32.596H112.964ZM112.714 26.118H109.906V26.618H112.714V26.118ZM110.156 26.368V25.072H109.656V26.368H110.156ZM128.919 31.624L128.69 31.5238L128.689 31.5261L128.919 31.624ZM127.947 33.064L128.119 33.2461L128.122 33.2434L127.947 33.064ZM126.507 33.946L126.421 33.7115L126.419 33.7121L126.507 33.946ZM123.105 33.946L123.017 34.1799L123.017 34.1799L123.105 33.946ZM121.683 33.064L121.509 33.2434L121.512 33.2461L121.683 33.064ZM120.693 31.624L120.463 31.7202L120.465 31.726L120.693 31.624ZM120.693 27.484L120.464 27.3838L120.463 27.3861L120.693 27.484ZM121.683 26.026L121.512 25.8441L121.509 25.8466L121.683 26.026ZM123.123 25.126L123.212 25.3599L123.212 25.3599L123.123 25.126ZM126.507 25.126L126.419 25.3599L126.419 25.3599L126.507 25.126ZM127.929 26.026L127.755 26.2054L127.758 26.2079L127.929 26.026ZM128.919 27.484L128.689 27.5802L128.691 27.586L128.919 27.484ZM126.003 32.704L126.096 32.9362L126.1 32.9345L126.003 32.704ZM126.975 32.038L126.795 31.865L126.795 31.865L126.975 32.038ZM127.623 31.012L127.856 31.1036L127.857 31.1013L127.623 31.012ZM127.623 28.114L127.39 28.2033L127.391 28.2056L127.623 28.114ZM126.003 26.404L125.9 26.6319L125.907 26.6345L126.003 26.404ZM123.627 26.404L123.724 26.6346L123.73 26.6318L123.627 26.404ZM122.007 28.114L122.24 28.2056L122.241 28.2033L122.007 28.114ZM122.007 31.012L121.774 31.1013L121.775 31.1036L122.007 31.012ZM122.655 32.038L122.836 31.865L122.836 31.865L122.655 32.038ZM123.609 32.704L123.51 32.9336L123.519 32.9371L123.609 32.704ZM129.047 29.644C129.047 30.3597 128.926 30.9846 128.69 31.5238L129.148 31.7242C129.417 31.1114 129.547 30.4163 129.547 29.644H129.047ZM128.689 31.5261C128.461 32.0619 128.156 32.5135 127.773 32.8846L128.122 33.2434C128.555 32.8225 128.897 32.3141 129.149 31.7219L128.689 31.5261ZM127.776 32.8819C127.394 33.2418 126.943 33.5185 126.421 33.7115L126.594 34.1805C127.176 33.9655 127.685 33.6542 128.119 33.2461L127.776 32.8819ZM126.419 33.7121C125.908 33.9053 125.374 34.002 124.815 34.002V34.502C125.433 34.502 126.027 34.3947 126.596 34.1799L126.419 33.7121ZM124.815 34.002C124.244 34.002 123.704 33.905 123.194 33.7121L123.017 34.1799C123.586 34.395 124.186 34.502 124.815 34.502V34.002ZM123.194 33.7121C122.684 33.5194 122.238 33.2427 121.855 32.8819L121.512 33.2461C121.945 33.6533 122.447 33.9646 123.017 34.1799L123.194 33.7121ZM121.858 32.8846C121.474 32.5126 121.162 32.0595 120.922 31.522L120.465 31.726C120.729 32.3165 121.077 32.8234 121.509 33.2434L121.858 32.8846ZM120.924 31.5278C120.699 30.9876 120.583 30.3612 120.583 29.644H120.083C120.083 30.4148 120.208 31.1084 120.463 31.7202L120.924 31.5278ZM120.583 29.644V29.428H120.083V29.644H120.583ZM120.583 29.428C120.583 28.7232 120.699 28.1095 120.923 27.5819L120.463 27.3861C120.208 27.9865 120.083 28.6688 120.083 29.428H120.583ZM120.922 27.5842C121.163 27.0348 121.475 26.5765 121.858 26.2054L121.509 25.8466C121.076 26.2675 120.728 26.7812 120.464 27.3838L120.922 27.5842ZM121.855 26.2079C122.251 25.8345 122.703 25.5522 123.212 25.3599L123.035 24.8921C122.464 25.1078 121.956 25.4255 121.512 25.8441L121.855 26.2079ZM123.212 25.3599C123.723 25.1667 124.257 25.07 124.815 25.07V24.57C124.198 24.57 123.604 24.6773 123.035 24.8921L123.212 25.3599ZM124.815 25.07C125.374 25.07 125.908 25.1667 126.419 25.3599L126.596 24.8921C126.027 24.6773 125.433 24.57 124.815 24.57V25.07ZM126.419 25.3599C126.928 25.552 127.372 25.8336 127.755 26.2054L128.104 25.8466C127.671 25.4264 127.167 25.108 126.596 24.8921L126.419 25.3599ZM127.758 26.2079C128.15 26.5779 128.461 27.0339 128.689 27.5802L129.15 27.3878C128.898 26.7821 128.549 26.2661 128.101 25.8441L127.758 26.2079ZM128.691 27.586C128.926 28.1125 129.047 28.7247 129.047 29.428H129.547C129.547 28.6673 129.416 27.9835 129.148 27.382L128.691 27.586ZM129.047 29.428V29.644H129.547V29.428H129.047ZM124.815 33.17C125.276 33.17 125.704 33.0932 126.096 32.9361L125.911 32.4719C125.583 32.6028 125.219 32.67 124.815 32.67V33.17ZM126.1 32.9345C126.503 32.7655 126.856 32.524 127.156 32.211L126.795 31.865C126.543 32.128 126.248 32.3305 125.907 32.4735L126.1 32.9345ZM127.156 32.211C127.456 31.898 127.689 31.5278 127.856 31.1036L127.391 30.9204C127.246 31.2882 127.047 31.602 126.795 31.865L127.156 32.211ZM127.857 31.1013C128.025 30.6608 128.107 30.1739 128.107 29.644H127.607C127.607 30.1221 127.533 30.5472 127.39 30.9227L127.857 31.1013ZM128.107 29.644V29.428H127.607V29.644H128.107ZM128.107 29.428C128.107 28.9206 128.025 28.451 127.856 28.0224L127.391 28.2056C127.534 28.569 127.607 28.9754 127.607 29.428H128.107ZM127.857 28.0247C127.69 27.5885 127.457 27.2113 127.156 26.897L126.795 27.243C127.046 27.5047 127.245 27.8235 127.39 28.2033L127.857 28.0247ZM127.156 26.897C126.856 26.584 126.503 26.3425 126.1 26.1735L125.907 26.6345C126.248 26.7775 126.543 26.98 126.795 27.243L127.156 26.897ZM126.106 26.1762C125.701 25.9931 125.27 25.902 124.815 25.902V26.402C125.201 26.402 125.562 26.4789 125.901 26.6318L126.106 26.1762ZM124.815 25.902C124.361 25.902 123.93 25.9931 123.525 26.1762L123.73 26.6318C124.069 26.4789 124.43 26.402 124.815 26.402V25.902ZM123.531 26.1735C123.128 26.3425 122.775 26.584 122.475 26.897L122.836 27.243C123.088 26.98 123.383 26.7775 123.724 26.6345L123.531 26.1735ZM122.475 26.897C122.174 27.2113 121.941 27.5885 121.774 28.0247L122.241 28.2033C122.386 27.8235 122.585 27.5047 122.836 27.243L122.475 26.897ZM121.775 28.0224C121.606 28.451 121.523 28.9206 121.523 29.428H122.023C122.023 28.9754 122.097 28.569 122.24 28.2056L121.775 28.0224ZM121.523 29.428V29.644H122.023V29.428H121.523ZM121.523 29.644C121.523 30.1739 121.605 30.6608 121.774 31.1013L122.241 30.9227C122.097 30.5472 122.023 30.1221 122.023 29.644H121.523ZM121.775 31.1036C121.942 31.5278 122.175 31.898 122.475 32.211L122.836 31.865C122.584 31.602 122.385 31.2882 122.24 30.9204L121.775 31.1036ZM122.475 32.211C122.774 32.5226 123.119 32.7639 123.51 32.9334L123.709 32.4746C123.38 32.3321 123.089 32.1294 122.836 31.865L122.475 32.211ZM123.519 32.9371C123.922 33.0932 124.355 33.17 124.815 33.17V32.67C124.412 32.67 124.041 32.6028 123.7 32.4709L123.519 32.9371ZM150.08 34V34.25H150.33V34H150.08ZM148.568 34H148.318V34.25H148.568V34ZM143.672 28.816V28.566H143.422V28.816H143.672ZM143.672 34V34.25H143.922V34H143.672ZM142.16 34H141.91V34.25H142.16V34ZM142.16 21.4V21.15H141.91V21.4H142.16ZM148.352 21.688L148.26 21.9202L148.265 21.9221L148.352 21.688ZM149.54 22.426L149.364 22.6028L149.367 22.6061L149.54 22.426ZM150.26 23.524L150.026 23.6111L150.029 23.6192L150.26 23.524ZM150.116 26.764L149.899 26.6411L149.896 26.6455L150.116 26.764ZM148.928 27.844L148.823 27.6175L148.678 27.6848V27.844H148.928ZM148.928 28.06H148.678V28.2718L148.887 28.3066L148.928 28.06ZM149.774 28.492L149.588 28.6587L149.588 28.6587L149.774 28.492ZM143.672 27.412H143.422V27.662H143.672V27.412ZM148.37 26.872L148.536 27.0595L148.536 27.0591L148.37 26.872ZM148.37 23.398L148.196 23.5775L148.202 23.5825L148.37 23.398ZM143.672 22.804V22.554H143.422V22.804H143.672ZM150.08 33.75H148.568V34.25H150.08V33.75ZM148.818 34V29.788H148.318V34H148.818ZM148.818 29.788C148.818 29.4405 148.738 29.1341 148.542 28.9053L148.163 29.2307C148.254 29.3379 148.318 29.5115 148.318 29.788H148.818ZM148.542 28.9053C148.328 28.6551 147.985 28.566 147.596 28.566V29.066C147.928 29.066 148.089 29.1449 148.163 29.2307L148.542 28.9053ZM147.596 28.566H143.672V29.066H147.596V28.566ZM143.422 28.816V34H143.922V28.816H143.422ZM143.672 33.75H142.16V34.25H143.672V33.75ZM142.41 34V21.4H141.91V34H142.41ZM142.16 21.65H146.66V21.15H142.16V21.65ZM146.66 21.65C147.284 21.65 147.816 21.7425 148.26 21.9201L148.445 21.4559C147.929 21.2495 147.332 21.15 146.66 21.15V21.65ZM148.265 21.9221C148.717 22.0916 149.081 22.3198 149.364 22.6028L149.717 22.2492C149.376 21.9082 148.948 21.6444 148.44 21.4539L148.265 21.9221ZM149.367 22.6061C149.664 22.8921 149.883 23.2264 150.026 23.611L150.495 23.437C150.326 22.9816 150.065 22.5839 149.714 22.2459L149.367 22.6061ZM150.029 23.6192C150.184 23.996 150.262 24.3955 150.262 24.82H150.762C150.762 24.3325 150.672 23.868 150.492 23.4288L150.029 23.6192ZM150.262 24.82V25.36H150.762V24.82H150.262ZM150.262 25.36C150.262 25.7789 150.145 26.205 149.899 26.6412L150.334 26.8868C150.616 26.387 150.762 25.8771 150.762 25.36H150.262ZM149.896 26.6455C149.673 27.0604 149.32 27.3853 148.823 27.6175L149.034 28.0705C149.617 27.7987 150.056 27.4036 150.337 26.8825L149.896 26.6455ZM148.678 27.844V28.06H149.178V27.844H148.678ZM148.887 28.3066C149.202 28.3591 149.429 28.4808 149.588 28.6587L149.961 28.3253C149.712 28.0472 149.374 27.8809 148.969 27.8134L148.887 28.3066ZM149.588 28.6587C149.738 28.8262 149.83 29.0824 149.83 29.464H150.33C150.33 29.0056 150.219 28.6138 149.961 28.3253L149.588 28.6587ZM149.83 29.464V34H150.33V29.464H149.83ZM143.672 27.662H146.48V27.162H143.672V27.662ZM146.48 27.662C147.36 27.662 148.062 27.4772 148.536 27.0595L148.205 26.6845C147.862 26.9868 147.304 27.162 146.48 27.162V27.662ZM148.536 27.0591C149.023 26.6278 149.25 26.0114 149.25 25.252H148.75C148.75 25.9086 148.558 26.3722 148.205 26.6849L148.536 27.0591ZM149.25 25.252V24.928H148.75V25.252H149.25ZM149.25 24.928C149.25 24.231 149.017 23.6507 148.539 23.2135L148.202 23.5825C148.564 23.9133 148.75 24.353 148.75 24.928H149.25ZM148.545 23.2186C148.071 22.7591 147.366 22.554 146.48 22.554V23.054C147.299 23.054 147.854 23.2449 148.196 23.5774L148.545 23.2186ZM146.48 22.554H143.672V23.054H146.48V22.554ZM143.422 22.804V27.412H143.922V22.804H143.422ZM153.884 29.968V29.718H153.624L153.634 29.9781L153.884 29.968ZM154.712 32.11L154.893 31.9373L154.893 31.9373L154.712 32.11ZM158.762 32.38L158.614 32.1787L158.608 32.1827L158.762 32.38ZM159.302 31.804L159.09 31.6705L159.089 31.6736L159.302 31.804ZM159.644 31.084L159.709 30.8427L159.481 30.7811L159.407 31.0049L159.644 31.084ZM160.976 31.444L161.215 31.5168L161.29 31.27L161.041 31.2027L160.976 31.444ZM159.572 33.478L159.724 33.6763L159.725 33.6759L159.572 33.478ZM155.072 33.928L154.973 34.1576L154.979 34.1601L155.072 33.928ZM153.704 32.974L153.522 33.1453L153.522 33.1453L153.704 32.974ZM152.804 31.516L153.037 31.4266L153.037 31.4266L152.804 31.516ZM152.804 27.466L152.574 27.3687L152.572 27.3732L152.804 27.466ZM153.74 26.08L153.914 26.2595L153.917 26.2568L153.74 26.08ZM155.126 25.162L155.221 25.3934L155.223 25.3923L155.126 25.162ZM158.762 25.234L158.646 25.4556L158.652 25.4586L158.762 25.234ZM160.076 26.224L159.885 26.3858L159.888 26.389L160.076 26.224ZM160.832 27.52L160.595 27.5991L160.597 27.6045L160.832 27.52ZM161.084 29.968V30.218H161.334V29.968H161.084ZM155.756 26.35L155.84 26.5855L155.845 26.5837L155.756 26.35ZM154.856 26.872L154.692 26.6827L154.688 26.6866L154.856 26.872ZM154.226 27.682L154.006 27.5635L154.004 27.5667L154.226 27.682ZM153.92 28.672L153.672 28.639L153.634 28.922H153.92V28.672ZM159.68 28.672V28.922H159.946L159.929 28.6564L159.68 28.672ZM159.392 27.628L159.168 27.7399L159.172 27.7465L159.392 27.628ZM158.762 26.836L158.599 27.0259L158.604 27.0295L158.762 26.836ZM157.88 26.332L157.793 26.5665L157.796 26.5674L157.88 26.332ZM153.634 29.9781C153.672 30.9148 153.965 31.6907 154.531 32.2827L154.893 31.9373C154.426 31.4493 154.168 30.7972 154.134 29.9579L153.634 29.9781ZM154.531 32.2827C155.105 32.8833 155.897 33.17 156.872 33.17V32.67C155.999 32.67 155.351 32.4167 154.893 31.9373L154.531 32.2827ZM156.872 33.17C157.31 33.17 157.702 33.12 158.043 33.0149L157.896 32.5371C157.614 32.624 157.274 32.67 156.872 32.67V33.17ZM158.043 33.0149C158.379 32.9117 158.671 32.7671 158.915 32.5773L158.608 32.1827C158.42 32.3289 158.185 32.4483 157.896 32.5371L158.043 33.0149ZM158.91 32.5813C159.161 32.3963 159.364 32.1811 159.515 31.9344L159.089 31.6736C158.975 31.8589 158.819 32.0277 158.614 32.1787L158.91 32.5813ZM159.513 31.9375C159.668 31.6927 159.791 31.4345 159.881 31.1631L159.407 31.0049C159.329 31.2375 159.224 31.4593 159.091 31.6705L159.513 31.9375ZM159.579 31.3253L160.911 31.6853L161.041 31.2027L159.709 30.8427L159.579 31.3253ZM160.737 31.3712C160.5 32.1496 160.062 32.7839 159.419 33.2801L159.725 33.6759C160.45 33.1161 160.948 32.3944 161.215 31.5168L160.737 31.3712ZM159.42 33.2797C158.805 33.7519 157.952 34.002 156.836 34.002V34.502C158.023 34.502 158.995 34.2361 159.724 33.6763L159.42 33.2797ZM156.836 34.002C156.229 34.002 155.673 33.899 155.165 33.6959L154.979 34.1601C155.551 34.389 156.171 34.502 156.836 34.502V34.002ZM155.171 33.6985C154.673 33.4836 154.246 33.1851 153.886 32.8027L153.522 33.1453C153.93 33.5789 154.414 33.9164 154.973 34.1575L155.171 33.6985ZM153.886 32.8027C153.526 32.4202 153.243 31.9626 153.037 31.4266L152.57 31.6054C152.797 32.1974 153.114 32.7118 153.522 33.1453L153.886 32.8027ZM153.037 31.4266C152.834 30.8947 152.73 30.3015 152.73 29.644H152.23C152.23 30.3545 152.342 31.0093 152.57 31.6054L153.037 31.4266ZM152.73 29.644V29.212H152.23V29.644H152.73ZM152.73 29.212C152.73 28.6175 152.833 28.0672 153.036 27.5588L152.572 27.3732C152.343 27.9448 152.23 28.5585 152.23 29.212H152.73ZM153.034 27.5632C153.25 27.0522 153.543 26.6187 153.914 26.2595L153.566 25.9005C153.144 26.3093 152.814 26.7998 152.574 27.3688L153.034 27.5632ZM153.917 26.2568C154.289 25.8847 154.723 25.5971 155.221 25.3934L155.031 24.9306C154.473 25.1589 153.983 25.4833 153.563 25.9032L153.917 26.2568ZM155.223 25.3923C155.73 25.1781 156.279 25.07 156.872 25.07V24.57C156.217 24.57 155.601 24.6899 155.029 24.9317L155.223 25.3923ZM156.872 25.07C157.573 25.07 158.161 25.202 158.646 25.4556L158.878 25.0124C158.307 24.714 157.635 24.57 156.872 24.57V25.07ZM158.652 25.4586C159.166 25.7098 159.575 26.0199 159.885 26.3857L160.267 26.0623C159.905 25.6361 159.438 25.2862 158.872 25.0094L158.652 25.4586ZM159.888 26.389C160.216 26.7617 160.45 27.1649 160.595 27.5991L161.069 27.4409C160.902 26.9391 160.632 26.4783 160.264 26.059L159.888 26.389ZM160.597 27.6045C160.757 28.052 160.834 28.4551 160.834 28.816H161.334C161.334 28.3849 161.243 27.924 161.067 27.4355L160.597 27.6045ZM160.834 28.816V29.968H161.334V28.816H160.834ZM161.084 29.718H153.884V30.218H161.084V29.718ZM156.872 25.902C156.448 25.902 156.045 25.9728 155.667 26.1163L155.845 26.5837C156.162 26.4632 156.504 26.402 156.872 26.402V25.902ZM155.672 26.1146C155.307 26.2447 154.98 26.4342 154.692 26.6828L155.019 27.0612C155.259 26.8538 155.532 26.6953 155.84 26.5854L155.672 26.1146ZM154.688 26.6866C154.414 26.9346 154.187 27.2274 154.006 27.5635L154.446 27.8005C154.601 27.5126 154.794 27.2654 155.024 27.0574L154.688 26.6866ZM154.004 27.5667C153.834 27.8942 153.724 28.2524 153.672 28.639L154.168 28.705C154.212 28.3716 154.306 28.0698 154.448 27.7973L154.004 27.5667ZM153.92 28.922H159.68V28.422H153.92V28.922ZM159.929 28.6564C159.903 28.2395 159.799 27.8559 159.612 27.5095L159.172 27.7465C159.321 28.0241 159.408 28.3365 159.43 28.6876L159.929 28.6564ZM159.615 27.5162C159.444 27.1734 159.212 26.8813 158.92 26.6425L158.604 27.0295C158.84 27.2227 159.028 27.4586 159.168 27.7398L159.615 27.5162ZM158.925 26.6462C158.648 26.4089 158.327 26.2261 157.964 26.0966L157.796 26.5674C158.105 26.6779 158.372 26.8311 158.599 27.0258L158.925 26.6462ZM157.967 26.0976C157.615 25.9672 157.249 25.902 156.872 25.902V26.402C157.19 26.402 157.497 26.4568 157.793 26.5664L157.967 26.0976ZM171.241 34V34.25H171.455L171.488 34.0388L171.241 34ZM168.649 34L168.401 34.0323L168.43 34.25H168.649V34ZM167.569 25.72L167.817 25.6877L167.789 25.47H167.569V25.72ZM167.353 25.72V25.47H167.134L167.105 25.6877L167.353 25.72ZM166.273 34V34.25H166.493L166.521 34.0323L166.273 34ZM163.681 34L163.434 34.0388L163.468 34.25H163.681V34ZM162.277 25.072V24.822H161.985L162.03 25.1108L162.277 25.072ZM163.717 25.072L163.965 25.0365L163.934 24.822H163.717V25.072ZM164.905 33.352L164.658 33.3875L164.689 33.602H164.905V33.352ZM165.121 33.352V33.602H165.342L165.369 33.3833L165.121 33.352ZM166.165 25.072V24.822H165.945L165.917 25.0407L166.165 25.072ZM168.757 25.072L169.005 25.0407L168.978 24.822H168.757V25.072ZM169.801 33.352L169.553 33.3833L169.581 33.602H169.801V33.352ZM170.017 33.352V33.602H170.234L170.265 33.3875L170.017 33.352ZM171.205 25.072V24.822H170.989L170.958 25.0365L171.205 25.072ZM172.645 25.072L172.892 25.1108L172.938 24.822H172.645V25.072ZM171.241 33.75H168.649V34.25H171.241V33.75ZM168.897 33.9677L167.817 25.6877L167.321 25.7523L168.401 34.0323L168.897 33.9677ZM167.569 25.47H167.353V25.97H167.569V25.47ZM167.105 25.6877L166.025 33.9677L166.521 34.0323L167.601 25.7523L167.105 25.6877ZM166.273 33.75H163.681V34.25H166.273V33.75ZM163.928 33.9612L162.524 25.0332L162.03 25.1108L163.434 34.0388L163.928 33.9612ZM162.277 25.322H163.717V24.822H162.277V25.322ZM163.47 25.1075L164.658 33.3875L165.153 33.3165L163.965 25.0365L163.47 25.1075ZM164.905 33.602H165.121V33.102H164.905V33.602ZM165.369 33.3833L166.413 25.1033L165.917 25.0407L164.873 33.3207L165.369 33.3833ZM166.165 25.322H168.757V24.822H166.165V25.322ZM168.509 25.1033L169.553 33.3833L170.049 33.3207L169.005 25.0407L168.509 25.1033ZM169.801 33.602H170.017V33.102H169.801V33.602ZM170.265 33.3875L171.453 25.1075L170.958 25.0365L169.77 33.3165L170.265 33.3875ZM171.205 25.322H172.645V24.822H171.205V25.322ZM172.398 25.0332L170.994 33.9612L171.488 34.0388L172.892 25.1108L172.398 25.0332ZM180.661 32.488H180.911V32.238H180.661V32.488ZM180.445 32.488V32.238H180.288L180.219 32.3798L180.445 32.488ZM179.239 33.82L179.117 33.6017L179.115 33.6029L179.239 33.82ZM175.999 33.964L175.905 34.1958L175.91 34.1976L175.999 33.964ZM174.667 33.082L174.485 33.2533L174.49 33.2588L174.667 33.082ZM173.785 31.642L174.018 31.5526L174.018 31.5526L173.785 31.642ZM173.785 27.448L173.551 27.3586L173.551 27.3586L173.785 27.448ZM174.667 26.026L174.487 25.852L174.487 25.8521L174.667 26.026ZM179.257 25.234L179.134 25.4521L179.141 25.4555L179.257 25.234ZM180.445 26.476L180.222 26.5897L180.292 26.726H180.445V26.476ZM180.661 26.476V26.726H180.911V26.476H180.661ZM180.661 25.072V24.822H180.411V25.072H180.661ZM182.065 25.072H182.315V24.822H182.065V25.072ZM183.001 32.704H183.251V32.454H183.001V32.704ZM183.001 34V34.25H183.251V34H183.001ZM181.039 33.604L180.858 33.7767L180.862 33.7808L181.039 33.604ZM178.933 32.686L178.833 32.4566L178.831 32.4579L178.933 32.686ZM179.851 32.02L179.663 31.8554L179.663 31.8554L179.851 32.02ZM180.445 30.994L180.68 31.0794L180.681 31.0772L180.445 30.994ZM180.445 28.114L180.209 28.1972L180.21 28.1994L180.445 28.114ZM179.833 27.07L179.645 27.2347L179.649 27.2389L179.833 27.07ZM178.915 26.404L178.806 26.6293L178.815 26.6334L178.915 26.404ZM176.629 26.386L176.731 26.6141L176.731 26.6141L176.629 26.386ZM175.711 27.052L175.527 26.8831L175.526 26.8834L175.711 27.052ZM175.117 28.078L175.352 28.1634L175.353 28.1612L175.117 28.078ZM175.693 32.074L175.509 32.243L175.512 32.2469L175.693 32.074ZM180.661 32.238H180.445V32.738H180.661V32.238ZM180.219 32.3798C179.951 32.9394 179.582 33.342 179.117 33.6017L179.361 34.0383C179.927 33.722 180.363 33.2366 180.67 32.5962L180.219 32.3798ZM179.115 33.6029C178.647 33.87 178.156 34.002 177.637 34.002V34.502C178.246 34.502 178.822 34.346 179.363 34.0371L179.115 33.6029ZM177.637 34.002C177.077 34.002 176.561 33.9106 176.088 33.7304L175.91 34.1976C176.445 34.4014 177.021 34.502 177.637 34.502V34.002ZM176.093 33.7323C175.62 33.5408 175.204 33.2655 174.844 32.9052L174.49 33.2588C174.898 33.6665 175.37 33.9792 175.905 34.1957L176.093 33.7323ZM174.849 32.9108C174.502 32.541 174.224 32.0897 174.018 31.5526L173.551 31.7314C173.778 32.3223 174.088 32.831 174.485 33.2532L174.849 32.9108ZM174.018 31.5526C173.815 31.0229 173.711 30.4003 173.711 29.68H173.211C173.211 30.4477 173.322 31.1331 173.551 31.7314L174.018 31.5526ZM173.711 29.68V29.392H173.211V29.68H173.711ZM173.711 29.392C173.711 28.6843 173.815 28.0675 174.018 27.5374L173.551 27.3586C173.322 27.9565 173.211 28.6357 173.211 29.392H173.711ZM174.018 27.5374C174.224 27.0009 174.501 26.5567 174.846 26.1999L174.487 25.8521C174.089 26.2633 173.778 26.7671 173.551 27.3586L174.018 27.5374ZM174.846 26.2C175.206 25.8287 175.621 25.5485 176.093 25.3577L175.905 24.8943C175.368 25.1115 174.895 25.4313 174.487 25.852L174.846 26.2ZM176.093 25.3577C176.566 25.1662 177.068 25.07 177.601 25.07V24.57C177.006 24.57 176.44 24.6778 175.905 24.8943L176.093 25.3577ZM177.601 25.07C178.174 25.07 178.683 25.1987 179.135 25.452L179.379 25.016C178.847 24.7172 178.252 24.57 177.601 24.57V25.07ZM179.141 25.4555C179.594 25.6928 179.955 26.0663 180.222 26.5897L180.667 26.3623C180.359 25.7577 179.928 25.3032 179.373 25.0125L179.141 25.4555ZM180.445 26.726H180.661V26.226H180.445V26.726ZM180.911 26.476V25.072H180.411V26.476H180.911ZM180.661 25.322H182.065V24.822H180.661V25.322ZM181.815 25.072V32.164H182.315V25.072H181.815ZM181.815 32.164C181.815 32.3764 181.862 32.5824 182.001 32.7362C182.143 32.8951 182.343 32.954 182.551 32.954V32.454C182.435 32.454 182.391 32.4229 182.372 32.4018C182.349 32.3756 182.315 32.3116 182.315 32.164H181.815ZM182.551 32.954H183.001V32.454H182.551V32.954ZM182.751 32.704V34H183.251V32.704H182.751ZM183.001 33.75H182.047V34.25H183.001V33.75ZM182.047 33.75C181.698 33.75 181.428 33.6398 181.216 33.4272L180.862 33.7808C181.178 34.0962 181.579 34.25 182.047 34.25V33.75ZM181.22 33.4314C181.017 33.2195 180.911 32.9479 180.911 32.596H180.411C180.411 33.0601 180.556 33.4605 180.858 33.7766L181.22 33.4314ZM180.911 32.596V32.488H180.411V32.596H180.911ZM177.781 33.17C178.232 33.17 178.652 33.0859 179.035 32.9141L178.831 32.4579C178.518 32.5981 178.169 32.67 177.781 32.67V33.17ZM179.032 32.9154C179.425 32.745 179.762 32.5012 180.039 32.1846L179.663 31.8554C179.436 32.1148 179.16 32.315 178.833 32.4566L179.032 32.9154ZM180.039 32.1846C180.313 31.8711 180.526 31.5016 180.68 31.0794L180.21 30.9086C180.075 31.2784 179.892 31.5929 179.663 31.8554L180.039 32.1846ZM180.681 31.0772C180.835 30.6391 180.911 30.1605 180.911 29.644H180.411C180.411 30.1115 180.342 30.5329 180.209 30.9108L180.681 31.0772ZM180.911 29.644V29.428H180.411V29.644H180.911ZM180.911 29.428C180.911 28.9229 180.835 28.4555 180.68 28.0286L180.21 28.1994C180.343 28.5645 180.411 28.9731 180.411 29.428H180.911ZM180.681 28.0308C180.527 27.5945 180.306 27.2164 180.017 26.9011L179.649 27.2389C179.887 27.4996 180.075 27.8175 180.209 28.1972L180.681 28.0308ZM180.021 26.9054C179.744 26.5888 179.407 26.345 179.014 26.1746L178.815 26.6334C179.142 26.775 179.418 26.9752 179.645 27.2346L180.021 26.9054ZM179.024 26.1789C178.64 25.9936 178.224 25.902 177.781 25.902V26.402C178.153 26.402 178.494 26.4784 178.806 26.6291L179.024 26.1789ZM177.781 25.902C177.329 25.902 176.91 25.9861 176.527 26.1579L176.731 26.6141C177.044 26.4739 177.392 26.402 177.781 26.402V25.902ZM176.527 26.1579C176.147 26.3282 175.813 26.5706 175.527 26.8831L175.895 27.2209C176.137 26.9574 176.415 26.7558 176.731 26.6141L176.527 26.1579ZM175.526 26.8834C175.248 27.1878 175.035 27.5601 174.881 27.9948L175.353 28.1612C175.487 27.7799 175.669 27.4682 175.895 27.2206L175.526 26.8834ZM174.882 27.9926C174.727 28.4195 174.651 28.8869 174.651 29.392H175.151C175.151 28.9371 175.219 28.5285 175.352 28.1634L174.882 27.9926ZM174.651 29.392V29.68H175.151V29.392H174.651ZM174.651 29.68C174.651 30.7429 174.927 31.6082 175.509 32.2429L175.877 31.9051C175.403 31.3878 175.151 30.6571 175.151 29.68H174.651ZM175.512 32.2469C176.104 32.8649 176.868 33.17 177.781 33.17V32.67C176.99 32.67 176.362 32.4111 175.873 31.9011L175.512 32.2469ZM184.338 25.072V24.822H184.088V25.072H184.338ZM187.578 25.072H187.828V24.822H187.578V25.072ZM187.578 26.26H187.328V26.51H187.578V26.26ZM187.794 26.26V26.51H187.954L188.021 26.3651L187.794 26.26ZM188.766 25.18L188.886 25.3998L188.89 25.3971L188.766 25.18ZM192.384 25.702L192.567 25.5309L192.567 25.5309L192.384 25.702ZM193.266 28.276L193.303 28.5234L193.523 28.4911L193.516 28.268L193.266 28.276ZM191.79 28.492H191.54V28.7812L191.827 28.7394L191.79 28.492ZM191.196 26.71L191.025 26.8922L191.028 26.895L191.196 26.71ZM188.766 26.368L188.651 26.1463L188.647 26.1485L188.766 26.368ZM188.1 26.962L187.897 26.8167L187.897 26.8167L188.1 26.962ZM187.704 27.844L187.462 27.7834L187.462 27.7834L187.704 27.844ZM187.578 32.704H187.328V32.954H187.578V32.704ZM189.846 32.704H190.096V32.454H189.846V32.704ZM189.846 34V34.25H190.096V34H189.846ZM184.122 34H183.872V34.25H184.122V34ZM184.122 32.704V32.454H183.872V32.704H184.122ZM186.174 32.704V32.954H186.424V32.704H186.174ZM186.174 26.368H186.424V26.118H186.174V26.368ZM184.338 26.368H184.088V26.618H184.338V26.368ZM184.338 25.322H187.578V24.822H184.338V25.322ZM187.328 25.072V26.26H187.828V25.072H187.328ZM187.578 26.51H187.794V26.01H187.578V26.51ZM188.021 26.3651C188.23 25.915 188.519 25.5987 188.886 25.3997L188.647 24.9603C188.174 25.2173 187.815 25.621 187.568 26.1549L188.021 26.3651ZM188.89 25.3971C189.268 25.1811 189.705 25.07 190.206 25.07V24.57C189.628 24.57 189.104 24.6989 188.642 24.9629L188.89 25.3971ZM190.206 25.07C191.046 25.07 191.703 25.3416 192.202 25.8731L192.567 25.5309C191.962 24.8864 191.167 24.57 190.206 24.57V25.07ZM192.202 25.8731C192.698 26.4018 192.982 27.1926 193.016 28.284L193.516 28.268C193.479 27.1034 193.174 26.1782 192.567 25.5309L192.202 25.8731ZM193.23 28.0286L191.754 28.2446L191.827 28.7394L193.303 28.5234L193.23 28.0286ZM192.04 28.492C192.04 27.6317 191.835 26.9531 191.364 26.525L191.028 26.895C191.349 27.1869 191.54 27.6963 191.54 28.492H192.04ZM191.367 26.5278C190.922 26.1094 190.374 25.902 189.738 25.902V26.402C190.255 26.402 190.678 26.5666 191.025 26.8922L191.367 26.5278ZM189.738 25.902C189.334 25.902 188.969 25.9804 188.651 26.1464L188.882 26.5896C189.116 26.4676 189.399 26.402 189.738 26.402V25.902ZM188.647 26.1485C188.348 26.3112 188.098 26.5349 187.897 26.8167L188.304 27.1073C188.462 26.8851 188.656 26.7128 188.886 26.5875L188.647 26.1485ZM187.897 26.8167C187.697 27.0971 187.553 27.4205 187.462 27.7834L187.947 27.9046C188.024 27.5955 188.144 27.3309 188.304 27.1073L187.897 26.8167ZM187.462 27.7834C187.372 28.1412 187.328 28.5217 187.328 28.924H187.828C187.828 28.5583 187.868 28.2188 187.947 27.9046L187.462 27.7834ZM187.328 28.924V32.704H187.828V28.924H187.328ZM187.578 32.954H189.846V32.454H187.578V32.954ZM189.596 32.704V34H190.096V32.704H189.596ZM189.846 33.75H184.122V34.25H189.846V33.75ZM184.372 34V32.704H183.872V34H184.372ZM184.122 32.954H186.174V32.454H184.122V32.954ZM186.424 32.704V26.368H185.924V32.704H186.424ZM186.174 26.118H184.338V26.618H186.174V26.118ZM184.588 26.368V25.072H184.088V26.368H184.588ZM202.416 32.632H202.666V32.382H202.416V32.632ZM202.2 32.632V32.382H202.048L201.978 32.5164L202.2 32.632ZM201.642 33.352L201.475 33.1656L201.47 33.1702L201.642 33.352ZM200.922 33.856L200.81 33.6324L200.806 33.6345L200.922 33.856ZM200.112 34.144L200.061 33.8991L200.051 33.9015L200.112 34.144ZM197.61 33.946L197.518 34.1785L197.61 33.946ZM196.242 33.064L196.065 33.2408L196.068 33.2435L196.242 33.064ZM195.324 31.642L195.09 31.7298L195.092 31.7357L195.324 31.642ZM195.342 27.466L195.574 27.5597L195.574 27.558L195.342 27.466ZM196.26 26.026L196.437 26.2028L196.439 26.2L196.26 26.026ZM200.958 25.234L200.842 25.4556L200.848 25.4586L200.958 25.234ZM202.2 26.476L201.977 26.5897L202.047 26.726H202.2V26.476ZM202.416 26.476V26.726H202.666V26.476H202.416ZM202.416 21.4V21.15H202.166V21.4H202.416ZM203.82 21.4H204.07V21.15H203.82V21.4ZM203.82 34V34.25H204.07V34H203.82ZM202.416 34H202.166V34.25H202.416V34ZM200.598 32.686L200.498 32.4566L200.498 32.4566L200.598 32.686ZM201.534 32.02L201.353 31.847L201.35 31.8511L201.534 32.02ZM202.182 30.994L202.414 31.0856L202.415 31.0833L202.182 30.994ZM202.182 28.114L201.948 28.2033L201.949 28.2056L202.182 28.114ZM201.534 27.07L201.349 27.239L201.353 27.243L201.534 27.07ZM200.58 26.404L200.474 26.6307L200.483 26.6345L200.58 26.404ZM198.24 26.386L198.143 26.1554L198.14 26.1566L198.24 26.386ZM197.286 27.052L197.105 26.879L197.102 26.8831L197.286 27.052ZM196.656 28.078L196.423 27.9863L196.421 27.9926L196.656 28.078ZM196.656 31.03L196.421 31.1155L196.423 31.1216L196.656 31.03ZM197.286 32.056L197.101 32.2251L197.109 32.2328L197.286 32.056ZM198.24 32.704L198.14 32.9335L198.147 32.9361L198.24 32.704ZM202.416 32.382H202.2V32.882H202.416V32.382ZM201.978 32.5164C201.848 32.7662 201.68 32.9821 201.475 33.1657L201.809 33.5383C202.059 33.3139 202.264 33.0498 202.421 32.7476L201.978 32.5164ZM201.47 33.1702C201.272 33.3576 201.052 33.5114 200.81 33.6324L201.034 34.0796C201.32 33.9366 201.58 33.7544 201.813 33.5338L201.47 33.1702ZM200.806 33.6345C200.575 33.7554 200.327 33.8438 200.061 33.8993L200.163 34.3887C200.473 34.3242 200.765 34.2206 201.038 34.0775L200.806 33.6345ZM200.051 33.9015C199.781 33.9691 199.525 34.002 199.284 34.002V34.502C199.571 34.502 199.867 34.4629 200.172 34.3865L200.051 33.9015ZM199.284 34.002C198.713 34.002 198.186 33.905 197.702 33.7135L197.518 34.1785C198.065 34.395 198.655 34.502 199.284 34.502V34.002ZM197.702 33.7135C197.216 33.5215 196.788 33.2455 196.416 32.8845L196.068 33.2435C196.488 33.6505 196.971 33.9625 197.518 34.1785L197.702 33.7135ZM196.419 32.8872C196.061 32.5296 195.773 32.0849 195.556 31.5483L195.092 31.7357C195.331 32.3271 195.655 32.8304 196.065 33.2408L196.419 32.8872ZM195.558 31.5542C195.354 31.0111 195.25 30.3876 195.25 29.68H194.75C194.75 30.4364 194.861 31.1209 195.09 31.7298L195.558 31.5542ZM195.25 29.68V29.392H194.75V29.68H195.25ZM195.25 29.392C195.25 28.6983 195.36 28.089 195.574 27.5597L195.11 27.3723C194.868 27.971 194.75 28.6457 194.75 29.392H195.25ZM195.574 27.558C195.791 27.0093 196.08 26.5595 196.437 26.2028L196.083 25.8492C195.672 26.2605 195.348 26.7707 195.109 27.374L195.574 27.558ZM196.439 26.2C196.798 25.8297 197.219 25.5495 197.702 25.3585L197.518 24.8935C196.969 25.1105 196.489 25.4303 196.08 25.852L196.439 26.2ZM197.702 25.3585C198.187 25.1665 198.702 25.07 199.248 25.07V24.57C198.642 24.57 198.064 24.6775 197.518 24.8935L197.702 25.3585ZM199.248 25.07C199.821 25.07 200.351 25.1988 200.842 25.4556L201.074 25.0124C200.509 24.7172 199.899 24.57 199.248 24.57V25.07ZM200.848 25.4586C201.337 25.6975 201.712 26.0711 201.977 26.5897L202.422 26.3623C202.111 25.7529 201.659 25.2985 201.068 25.0094L200.848 25.4586ZM202.2 26.726H202.416V26.226H202.2V26.726ZM202.666 26.476V21.4H202.166V26.476H202.666ZM202.416 21.65H203.82V21.15H202.416V21.65ZM203.57 21.4V34H204.07V21.4H203.57ZM203.82 33.75H202.416V34.25H203.82V33.75ZM202.666 34V32.632H202.166V34H202.666ZM199.428 33.17C199.88 33.17 200.304 33.0859 200.697 32.9154L200.498 32.4566C200.172 32.5981 199.816 32.67 199.428 32.67V33.17ZM200.697 32.9154C201.089 32.7455 201.43 32.5029 201.718 32.1889L201.35 31.8511C201.109 32.1131 200.826 32.3145 200.498 32.4566L200.697 32.9154ZM201.714 32.193C202.014 31.88 202.247 31.5098 202.414 31.0856L201.949 30.9024C201.804 31.2702 201.605 31.584 201.353 31.847L201.714 32.193ZM202.415 31.0833C202.584 30.6434 202.666 30.1627 202.666 29.644H202.166C202.166 30.1093 202.092 30.5286 201.948 30.9047L202.415 31.0833ZM202.666 29.644V29.428H202.166V29.644H202.666ZM202.666 29.428C202.666 28.9206 202.583 28.451 202.414 28.0224L201.949 28.2056C202.092 28.569 202.166 28.9754 202.166 29.428H202.666ZM202.415 28.0247C202.249 27.5885 202.015 27.2113 201.714 26.897L201.353 27.243C201.604 27.5047 201.803 27.8235 201.948 28.2033L202.415 28.0247ZM201.718 26.9011C201.429 26.5856 201.081 26.343 200.676 26.1735L200.483 26.6345C200.823 26.777 201.111 26.9784 201.35 27.2389L201.718 26.9011ZM200.686 26.1775C200.292 25.9936 199.871 25.902 199.428 25.902V26.402C199.8 26.402 200.148 26.4784 200.474 26.6305L200.686 26.1775ZM199.428 25.902C198.976 25.902 198.547 25.9861 198.143 26.1555L198.336 26.6165C198.677 26.4739 199.04 26.402 199.428 26.402V25.902ZM198.14 26.1566C197.749 26.3261 197.404 26.5674 197.105 26.879L197.466 27.225C197.72 26.9606 198.01 26.7579 198.339 26.6154L198.14 26.1566ZM197.102 26.8831C196.815 27.1956 196.589 27.5644 196.423 27.9864L196.888 28.1696C197.034 27.7996 197.229 27.4844 197.47 27.2209L197.102 26.8831ZM196.421 27.9926C196.266 28.4195 196.19 28.8869 196.19 29.392H196.69C196.69 28.9371 196.758 28.5285 196.891 28.1634L196.421 27.9926ZM196.19 29.392V29.68H196.69V29.392H196.19ZM196.19 29.68C196.19 30.2076 196.265 30.6873 196.421 31.1154L196.891 30.9446C196.758 30.5807 196.69 30.1604 196.69 29.68H196.19ZM196.423 31.1216C196.589 31.5436 196.815 31.9124 197.102 32.2249L197.47 31.8871C197.229 31.6236 197.034 31.3084 196.888 30.9384L196.423 31.1216ZM197.109 32.2328C197.407 32.5311 197.752 32.7649 198.14 32.9334L198.339 32.4746C198.008 32.3311 197.716 32.1329 197.463 31.8792L197.109 32.2328ZM198.147 32.9361C198.54 33.0932 198.968 33.17 199.428 33.17V32.67C199.024 32.67 198.66 32.6028 198.333 32.4719L198.147 32.9361ZM208.559 28.366L208.426 28.5772L208.429 28.5791L208.559 28.366ZM210.575 28.816L210.595 28.5668L210.594 28.5667L210.575 28.816ZM212.951 29.572L212.798 29.7694L212.803 29.773L212.951 29.572ZM213.509 32.65L213.287 32.5351L213.286 32.5382L213.509 32.65ZM212.789 33.514L212.637 33.3158L212.633 33.3188L212.789 33.514ZM211.673 34.054L211.608 33.8125L211.6 33.8149L211.673 34.054ZM208.451 33.982L208.36 34.215L208.367 34.2174L208.451 33.982ZM207.209 33.244L207.036 33.4242L207.043 33.4305L207.209 33.244ZM206.471 32.2L206.241 32.2976L206.242 32.3002L206.471 32.2ZM206.183 31.012L206.124 30.7691L205.921 30.8185L205.934 31.0271L206.183 31.012ZM207.515 30.688L207.764 30.6662L207.739 30.3763L207.456 30.4451L207.515 30.688ZM208.307 32.344L208.14 32.5301L208.143 32.5324L208.307 32.344ZM211.763 32.578L211.898 32.7889L211.899 32.7879L211.763 32.578ZM211.781 30.4L211.662 30.6195L211.662 30.6195L211.781 30.4ZM209.855 29.986L209.838 30.2354L209.838 30.2354L209.855 29.986ZM207.479 29.266L207.331 29.467L207.331 29.467L207.479 29.266ZM206.921 26.278L207.138 26.4029L207.14 26.3994L206.921 26.278ZM207.641 25.468L207.499 25.2624L207.495 25.2651L207.641 25.468ZM208.685 24.982L208.618 24.7413L208.618 24.7413L208.685 24.982ZM211.439 25.072L211.351 25.3059L211.356 25.3079L211.439 25.072ZM212.555 25.702L212.39 25.8897L212.395 25.8934L212.555 25.702ZM213.239 26.584L213.012 26.6893L213.016 26.6958L213.239 26.584ZM213.563 27.592L213.622 27.8349L213.843 27.7813L213.811 27.5566L213.563 27.592ZM212.231 27.916L211.983 27.9419L212.012 28.2266L212.29 28.1589L212.231 27.916ZM211.529 26.566L211.371 26.7595L211.374 26.7618L211.529 26.566ZM209.225 26.17L209.277 26.4148L209.286 26.4125L209.225 26.17ZM208.181 26.818L208.387 26.9604L208.392 26.9532L208.181 26.818ZM207.769 27.376C207.769 27.8922 207.992 28.3026 208.426 28.5772L208.693 28.1548C208.407 27.9734 208.269 27.7238 208.269 27.376H207.769ZM208.429 28.5791C208.856 28.8413 209.583 28.9932 210.557 29.0653L210.594 28.5667C209.624 28.4948 209.006 28.3467 208.69 28.1528L208.429 28.5791ZM210.555 29.0652C211.575 29.1472 212.312 29.3912 212.798 29.7693L213.105 29.3747C212.511 28.9128 211.664 28.6528 210.595 28.5668L210.555 29.0652ZM212.803 29.773C213.281 30.1262 213.529 30.6454 213.529 31.372H214.029C214.029 30.5146 213.726 29.8338 213.1 29.371L212.803 29.773ZM213.529 31.372V31.48H214.029V31.372H213.529ZM213.529 31.48C213.529 31.8762 213.447 32.2262 213.287 32.5351L213.731 32.7649C213.932 32.3778 214.029 31.9478 214.029 31.48H213.529ZM213.286 32.5382C213.135 32.8388 212.92 33.0977 212.637 33.3158L212.942 33.7122C213.282 33.4503 213.547 33.1332 213.733 32.7618L213.286 32.5382ZM212.633 33.3188C212.365 33.5335 212.025 33.6999 211.608 33.8127L211.739 34.2953C212.209 34.1681 212.614 33.9745 212.945 33.7092L212.633 33.3188ZM211.6 33.8149C211.195 33.9387 210.746 34.002 210.251 34.002V34.502C210.789 34.502 211.288 34.4333 211.746 34.2931L211.6 33.8149ZM210.251 34.002C209.576 34.002 209.006 33.9145 208.535 33.7466L208.367 34.2174C208.905 34.4095 209.535 34.502 210.251 34.502V34.002ZM208.542 33.7491C208.073 33.5661 207.686 33.3346 207.376 33.0575L207.043 33.4305C207.405 33.7534 207.845 34.0139 208.36 34.2149L208.542 33.7491ZM207.383 33.0639C207.081 32.773 206.854 32.4516 206.7 32.0998L206.242 32.3002C206.424 32.7164 206.69 33.091 207.036 33.4241L207.383 33.0639ZM206.701 32.1024C206.544 31.7304 206.455 31.3622 206.433 30.9969L205.934 31.0271C205.96 31.4538 206.063 31.8776 206.241 32.2976L206.701 32.1024ZM206.242 31.2549L207.574 30.9309L207.456 30.4451L206.124 30.7691L206.242 31.2549ZM207.266 30.7098C207.331 31.4507 207.621 32.0637 208.14 32.5301L208.474 32.1579C208.058 31.7843 207.819 31.2933 207.764 30.6662L207.266 30.7098ZM208.143 32.5324C208.667 32.9895 209.355 33.206 210.179 33.206V32.706C209.444 32.706 208.883 32.5145 208.472 32.1556L208.143 32.5324ZM210.179 33.206C210.868 33.206 211.448 33.0748 211.898 32.7889L211.629 32.3671C211.286 32.5852 210.81 32.706 210.179 32.706V33.206ZM211.899 32.7879C212.375 32.48 212.625 32.0367 212.625 31.48H212.125C212.125 31.8593 211.968 32.148 211.627 32.3681L211.899 32.7879ZM212.625 31.48C212.625 30.8976 212.388 30.4463 211.901 30.1805L211.662 30.6195C211.966 30.7857 212.125 31.0544 212.125 31.48H212.625ZM211.901 30.1805C211.455 29.9374 210.768 29.7971 209.872 29.7366L209.838 30.2354C210.719 30.2949 211.315 30.4306 211.662 30.6195L211.901 30.1805ZM209.873 29.7366C208.866 29.6664 208.127 29.4338 207.628 29.065L207.331 29.467C207.936 29.9142 208.781 30.1616 209.838 30.2354L209.873 29.7366ZM207.628 29.065C207.149 28.711 206.901 28.1971 206.901 27.484H206.401C206.401 28.3309 206.706 29.005 207.331 29.467L207.628 29.065ZM206.901 27.484V27.376H206.401V27.484H206.901ZM206.901 27.376C206.901 26.9925 206.983 26.671 207.138 26.4029L206.705 26.1531C206.499 26.509 206.401 26.9195 206.401 27.376H206.901ZM207.14 26.3994C207.302 26.1075 207.517 25.8653 207.787 25.6709L207.495 25.2651C207.165 25.5027 206.901 25.8005 206.703 26.1566L207.14 26.3994ZM207.784 25.6735C208.072 25.4741 208.394 25.3236 208.753 25.2227L208.618 24.7413C208.208 24.8564 207.835 25.0299 207.499 25.2625L207.784 25.6735ZM208.753 25.2227C209.114 25.1212 209.493 25.07 209.891 25.07V24.57C209.45 24.57 209.025 24.6268 208.618 24.7413L208.753 25.2227ZM209.891 25.07C210.456 25.07 210.941 25.1507 211.351 25.3058L211.528 24.8382C211.05 24.6573 210.503 24.57 209.891 24.57V25.07ZM211.356 25.3079C211.775 25.4551 212.118 25.6503 212.39 25.8897L212.72 25.5143C212.393 25.2257 211.991 25.0009 211.522 24.8361L211.356 25.3079ZM212.395 25.8934C212.668 26.1233 212.873 26.3884 213.013 26.6893L213.466 26.4787C213.294 26.1076 213.042 25.7847 212.716 25.5106L212.395 25.8934ZM213.016 26.6958C213.173 27.0103 213.272 27.3206 213.316 27.6274L213.811 27.5566C213.759 27.1914 213.642 26.8297 213.463 26.4722L213.016 26.6958ZM213.504 27.3491L212.172 27.6731L212.29 28.1589L213.622 27.8349L213.504 27.3491ZM212.48 27.8901C212.414 27.2554 212.152 26.7409 211.685 26.3702L211.374 26.7618C211.723 27.0391 211.929 27.4246 211.983 27.9419L212.48 27.8901ZM211.688 26.3725C211.236 26.0031 210.653 25.83 209.963 25.83V26.33C210.569 26.33 211.03 26.4809 211.371 26.7595L211.688 26.3725ZM209.963 25.83C209.691 25.83 209.425 25.8624 209.165 25.9275L209.286 26.4125C209.506 26.3576 209.731 26.33 209.963 26.33V25.83ZM209.174 25.9254C208.922 25.9785 208.691 26.0658 208.485 26.1896L208.742 26.6184C208.896 26.5262 209.073 26.4575 209.277 26.4146L209.174 25.9254ZM208.485 26.1896C208.273 26.3164 208.101 26.4808 207.971 26.6828L208.392 26.9532C208.478 26.8192 208.593 26.7076 208.742 26.6184L208.485 26.1896ZM207.976 26.6757C207.835 26.8791 207.769 27.1164 207.769 27.376H208.269C208.269 27.2036 208.312 27.0689 208.387 26.9603L207.976 26.6757Z" fill="#7C71FC"/>
</svg>
