<svg width="106" height="58" viewBox="0 0 106 58" fill="none" xmlns="http://www.w3.org/2000/svg">
<path d="M65.232 23.28C63.408 23.28 61.968 24.144 61.368 25.32V23.52H58.296V40.56H61.368V34.2C61.968 35.376 63.408 36.24 65.232 36.24C67.92 36.24 70.728 34.32 70.728 29.76C70.728 25.2 67.92 23.28 65.232 23.28ZM64.512 33.672C62.832 33.672 61.224 32.448 61.224 29.76C61.224 27.072 62.832 25.848 64.512 25.848C66.24 25.848 67.848 27.072 67.848 29.76C67.848 32.448 66.24 33.672 64.512 33.672ZM77.6992 36.24C80.8193 36.24 83.8913 34.272 83.8913 29.76C83.8913 25.248 80.8193 23.28 77.6992 23.28C74.5552 23.28 71.5072 25.248 71.5072 29.76C71.5072 34.272 74.5552 36.24 77.6992 36.24ZM77.6992 33.672C75.8752 33.672 74.3872 32.472 74.3872 29.76C74.3872 27.048 75.8752 25.848 77.6992 25.848C79.4993 25.848 80.9873 27.048 80.9873 29.76C80.9873 32.472 79.4993 33.672 77.6992 33.672ZM90.8542 36.24C93.9743 36.24 97.0462 34.272 97.0462 29.76C97.0462 25.248 93.9743 23.28 90.8542 23.28C87.7102 23.28 84.6622 25.248 84.6622 29.76C84.6622 34.272 87.7102 36.24 90.8542 36.24ZM90.8542 33.672C89.0302 33.672 87.5422 32.472 87.5422 29.76C87.5422 27.048 89.0302 25.848 90.8542 25.848C92.6542 25.848 94.1423 27.048 94.1423 29.76C94.1423 32.472 92.6542 33.672 90.8542 33.672ZM103.586 21.168H104.57V18.816H102.842C100.538 18.816 98.9777 19.824 98.9777 22.464V23.52H97.2257V25.896H98.9777V36H102.05V25.896H104.498V23.52H102.05V22.824C102.05 21.744 102.458 21.168 103.586 21.168Z" fill="#7C71FC"/>
<rect x="32.0908" y="13.4559" width="19.2393" height="30.9203" rx="2.89734" transform="rotate(25 32.0908 13.4559)" fill="#ECE6FE"/>
<rect x="17.3428" y="10.5983" width="19.2393" height="30.9203" rx="2.89734" fill="#CCC3FC"/>
<rect x="8.09766" y="21.0825" width="19.2393" height="30.9203" rx="2.89734" transform="rotate(-25 8.09766 21.0825)" fill="#7C71FC"/>
<path d="M20.0508 33.7953C19.3171 33.8107 18.8164 32.7404 19.2942 32.1834C19.8697 31.5126 20.4237 30.7439 20.6892 30.0302C20.945 29.3424 20.9974 28.3492 20.9717 27.4259C20.9517 26.7046 21.96 26.2209 22.5066 26.6919C23.2151 27.3024 24.0261 27.9019 24.7153 28.1528C25.405 28.4038 26.4124 28.4658 27.3482 28.4534C28.0695 28.4438 28.5316 29.4626 28.0529 30.0023C27.4325 30.7018 26.8228 31.5112 26.5636 32.2232C26.3189 32.8957 26.2578 33.8355 26.2734 34.7252C26.2861 35.4589 25.2199 35.9514 24.6685 35.4672C24.0032 34.883 23.25 34.326 22.5784 34.0816C21.9009 33.835 20.9497 33.7765 20.0508 33.7953Z" fill="white"/>
</svg>
